%TF.GenerationSoftware,KiCad,Pcbnew,(5.1.6)-1*%
%TF.CreationDate,2022-01-17T21:19:15-08:00*%
%TF.ProjectId,PCB,5043422e-6b69-4636-9164-5f7063625858,rev?*%
%TF.SameCoordinates,Original*%
%TF.FileFunction,Soldermask,Bot*%
%TF.FilePolarity,Negative*%
%FSLAX46Y46*%
G04 Gerber Fmt 4.6, Leading zero omitted, Abs format (unit mm)*
G04 Created by KiCad (PCBNEW (5.1.6)-1) date 2022-01-17 21:19:15*
%MOMM*%
%LPD*%
G01*
G04 APERTURE LIST*
%ADD10O,1.800000X1.800000*%
%ADD11R,1.800000X1.800000*%
%ADD12C,2.100000*%
G04 APERTURE END LIST*
D10*
%TO.C,J7*%
X162540000Y-108260000D03*
X160000000Y-108260000D03*
X162540000Y-105720000D03*
X160000000Y-105720000D03*
X162540000Y-103180000D03*
X160000000Y-103180000D03*
X162540000Y-100640000D03*
X160000000Y-100640000D03*
X162540000Y-98100000D03*
X160000000Y-98100000D03*
X162540000Y-95560000D03*
X160000000Y-95560000D03*
X162540000Y-93020000D03*
X160000000Y-93020000D03*
X162540000Y-90480000D03*
X160000000Y-90480000D03*
X162540000Y-87940000D03*
X160000000Y-87940000D03*
X162540000Y-85400000D03*
X160000000Y-85400000D03*
X162540000Y-82860000D03*
X160000000Y-82860000D03*
X162540000Y-80320000D03*
X160000000Y-80320000D03*
X162540000Y-77780000D03*
X160000000Y-77780000D03*
X162540000Y-75240000D03*
X160000000Y-75240000D03*
X162540000Y-72700000D03*
X160000000Y-72700000D03*
X162540000Y-70160000D03*
X160000000Y-70160000D03*
X162540000Y-67620000D03*
X160000000Y-67620000D03*
X162540000Y-65080000D03*
X160000000Y-65080000D03*
X162540000Y-62540000D03*
X160000000Y-62540000D03*
X162540000Y-60000000D03*
D11*
X160000000Y-60000000D03*
%TD*%
D12*
%TO.C,J17*%
X149750000Y-74750000D03*
X154750000Y-71250000D03*
%TD*%
%TO.C,J16*%
X149750000Y-65750000D03*
X154750000Y-62250000D03*
%TD*%
%TO.C,J15*%
X135750000Y-74750000D03*
X140750000Y-71250000D03*
%TD*%
%TO.C,J14*%
X135750000Y-65750000D03*
X140750000Y-62250000D03*
%TD*%
%TO.C,J13*%
X149750000Y-109750000D03*
X154750000Y-106250000D03*
%TD*%
%TO.C,J12*%
X121750000Y-74750000D03*
X126750000Y-71250000D03*
%TD*%
%TO.C,J11*%
X121750000Y-65750000D03*
X126750000Y-62250000D03*
%TD*%
%TO.C,J10*%
X140750000Y-87250000D03*
X135750000Y-83750000D03*
X140750000Y-80250000D03*
%TD*%
%TO.C,J9*%
X140750000Y-100250000D03*
X135750000Y-96750000D03*
X140750000Y-93250000D03*
%TD*%
%TO.C,J8*%
X141250000Y-114250000D03*
X137750000Y-119250000D03*
X134250000Y-114250000D03*
%TD*%
%TO.C,J6*%
X147250000Y-91750000D03*
X152250000Y-95250000D03*
X147250000Y-98750000D03*
%TD*%
%TO.C,J5*%
X155250000Y-114250000D03*
X151750000Y-119250000D03*
X148250000Y-114250000D03*
%TD*%
%TO.C,J4*%
X147250000Y-78750000D03*
X152250000Y-82250000D03*
X147250000Y-85750000D03*
%TD*%
%TO.C,J3*%
X126750000Y-100250000D03*
X121750000Y-96750000D03*
X126750000Y-93250000D03*
%TD*%
%TO.C,J2*%
X126750000Y-87250000D03*
X121750000Y-83750000D03*
X126750000Y-80250000D03*
%TD*%
%TO.C,J1*%
X135750000Y-109750000D03*
X140750000Y-106250000D03*
%TD*%
M02*
