%TF.GenerationSoftware,KiCad,Pcbnew,(5.1.6)-1*%
%TF.CreationDate,2022-01-17T21:19:15-08:00*%
%TF.ProjectId,PCB,5043422e-6b69-4636-9164-5f7063625858,rev?*%
%TF.SameCoordinates,Original*%
%TF.FileFunction,Copper,L1,Top*%
%TF.FilePolarity,Positive*%
%FSLAX46Y46*%
G04 Gerber Fmt 4.6, Leading zero omitted, Abs format (unit mm)*
G04 Created by KiCad (PCBNEW (5.1.6)-1) date 2022-01-17 21:19:15*
%MOMM*%
%LPD*%
G01*
G04 APERTURE LIST*
%TA.AperFunction,ComponentPad*%
%ADD10O,1.700000X1.700000*%
%TD*%
%TA.AperFunction,ComponentPad*%
%ADD11R,1.700000X1.700000*%
%TD*%
%TA.AperFunction,ComponentPad*%
%ADD12C,2.000000*%
%TD*%
%TA.AperFunction,ViaPad*%
%ADD13C,0.800000*%
%TD*%
%TA.AperFunction,Conductor*%
%ADD14C,1.000000*%
%TD*%
%TA.AperFunction,Conductor*%
%ADD15C,0.250000*%
%TD*%
%TA.AperFunction,Conductor*%
%ADD16C,0.254000*%
%TD*%
G04 APERTURE END LIST*
D10*
%TO.P,J7,40*%
%TO.N,N/C*%
X162540000Y-108260000D03*
%TO.P,J7,39*%
%TO.N,Net-(J4-Pad1)*%
X160000000Y-108260000D03*
%TO.P,J7,38*%
%TO.N,N/C*%
X162540000Y-105720000D03*
%TO.P,J7,37*%
X160000000Y-105720000D03*
%TO.P,J7,36*%
X162540000Y-103180000D03*
%TO.P,J7,35*%
%TO.N,Net-(J1-Pad1)*%
X160000000Y-103180000D03*
%TO.P,J7,34*%
%TO.N,Net-(J4-Pad1)*%
X162540000Y-100640000D03*
%TO.P,J7,33*%
%TO.N,Net-(J13-Pad2)*%
X160000000Y-100640000D03*
%TO.P,J7,32*%
%TO.N,Net-(J13-Pad1)*%
X162540000Y-98100000D03*
%TO.P,J7,31*%
%TO.N,N/C*%
X160000000Y-98100000D03*
%TO.P,J7,30*%
%TO.N,Net-(J4-Pad1)*%
X162540000Y-95560000D03*
%TO.P,J7,29*%
%TO.N,N/C*%
X160000000Y-95560000D03*
%TO.P,J7,28*%
%TO.N,Net-(J11-Pad2)*%
X162540000Y-93020000D03*
%TO.P,J7,27*%
%TO.N,Net-(J11-Pad1)*%
X160000000Y-93020000D03*
%TO.P,J7,26*%
%TO.N,N/C*%
X162540000Y-90480000D03*
%TO.P,J7,25*%
%TO.N,Net-(J4-Pad1)*%
X160000000Y-90480000D03*
%TO.P,J7,24*%
%TO.N,N/C*%
X162540000Y-87940000D03*
%TO.P,J7,23*%
X160000000Y-87940000D03*
%TO.P,J7,22*%
X162540000Y-85400000D03*
%TO.P,J7,21*%
X160000000Y-85400000D03*
%TO.P,J7,20*%
%TO.N,Net-(J4-Pad1)*%
X162540000Y-82860000D03*
%TO.P,J7,19*%
%TO.N,N/C*%
X160000000Y-82860000D03*
%TO.P,J7,18*%
X162540000Y-80320000D03*
%TO.P,J7,17*%
%TO.N,Net-(J10-Pad1)*%
X160000000Y-80320000D03*
%TO.P,J7,16*%
%TO.N,N/C*%
X162540000Y-77780000D03*
%TO.P,J7,15*%
X160000000Y-77780000D03*
%TO.P,J7,14*%
%TO.N,Net-(J4-Pad1)*%
X162540000Y-75240000D03*
%TO.P,J7,13*%
%TO.N,N/C*%
X160000000Y-75240000D03*
%TO.P,J7,12*%
%TO.N,Net-(J1-Pad2)*%
X162540000Y-72700000D03*
%TO.P,J7,11*%
%TO.N,N/C*%
X160000000Y-72700000D03*
%TO.P,J7,10*%
X162540000Y-70160000D03*
%TO.P,J7,9*%
%TO.N,Net-(J4-Pad1)*%
X160000000Y-70160000D03*
%TO.P,J7,8*%
%TO.N,N/C*%
X162540000Y-67620000D03*
%TO.P,J7,7*%
X160000000Y-67620000D03*
%TO.P,J7,6*%
%TO.N,Net-(J4-Pad1)*%
X162540000Y-65080000D03*
%TO.P,J7,5*%
%TO.N,Net-(J12-Pad2)*%
X160000000Y-65080000D03*
%TO.P,J7,4*%
%TO.N,Net-(J2-Pad1)*%
X162540000Y-62540000D03*
%TO.P,J7,3*%
%TO.N,Net-(J12-Pad1)*%
X160000000Y-62540000D03*
%TO.P,J7,2*%
%TO.N,Net-(J2-Pad1)*%
X162540000Y-60000000D03*
D11*
%TO.P,J7,1*%
%TO.N,Net-(J10-Pad1)*%
X160000000Y-60000000D03*
%TD*%
D12*
%TO.P,J17,2*%
%TO.N,Net-(J12-Pad2)*%
X149750000Y-74750000D03*
%TO.P,J17,1*%
%TO.N,Net-(J12-Pad1)*%
X154750000Y-71250000D03*
%TD*%
%TO.P,J16,2*%
%TO.N,Net-(J11-Pad2)*%
X149750000Y-65750000D03*
%TO.P,J16,1*%
%TO.N,Net-(J11-Pad1)*%
X154750000Y-62250000D03*
%TD*%
%TO.P,J15,2*%
%TO.N,Net-(J12-Pad2)*%
X135750000Y-74750000D03*
%TO.P,J15,1*%
%TO.N,Net-(J12-Pad1)*%
X140750000Y-71250000D03*
%TD*%
%TO.P,J14,2*%
%TO.N,Net-(J11-Pad2)*%
X135750000Y-65750000D03*
%TO.P,J14,1*%
%TO.N,Net-(J11-Pad1)*%
X140750000Y-62250000D03*
%TD*%
%TO.P,J13,2*%
%TO.N,Net-(J13-Pad2)*%
X149750000Y-109750000D03*
%TO.P,J13,1*%
%TO.N,Net-(J13-Pad1)*%
X154750000Y-106250000D03*
%TD*%
%TO.P,J12,2*%
%TO.N,Net-(J12-Pad2)*%
X121750000Y-74750000D03*
%TO.P,J12,1*%
%TO.N,Net-(J12-Pad1)*%
X126750000Y-71250000D03*
%TD*%
%TO.P,J11,2*%
%TO.N,Net-(J11-Pad2)*%
X121750000Y-65750000D03*
%TO.P,J11,1*%
%TO.N,Net-(J11-Pad1)*%
X126750000Y-62250000D03*
%TD*%
%TO.P,J10,3*%
%TO.N,Net-(J10-Pad1)*%
X140750000Y-87250000D03*
%TO.P,J10,2*%
X135750000Y-83750000D03*
%TO.P,J10,1*%
X140750000Y-80250000D03*
%TD*%
%TO.P,J9,3*%
%TO.N,Net-(J10-Pad1)*%
X140750000Y-100250000D03*
%TO.P,J9,2*%
X135750000Y-96750000D03*
%TO.P,J9,1*%
X140750000Y-93250000D03*
%TD*%
%TO.P,J8,3*%
%TO.N,Net-(J4-Pad1)*%
X141250000Y-114250000D03*
%TO.P,J8,2*%
X137750000Y-119250000D03*
%TO.P,J8,1*%
X134250000Y-114250000D03*
%TD*%
%TO.P,J6,3*%
%TO.N,Net-(J4-Pad1)*%
X147250000Y-91750000D03*
%TO.P,J6,2*%
X152250000Y-95250000D03*
%TO.P,J6,1*%
X147250000Y-98750000D03*
%TD*%
%TO.P,J5,3*%
%TO.N,Net-(J4-Pad1)*%
X155250000Y-114250000D03*
%TO.P,J5,2*%
X151750000Y-119250000D03*
%TO.P,J5,1*%
X148250000Y-114250000D03*
%TD*%
%TO.P,J4,3*%
%TO.N,Net-(J4-Pad1)*%
X147250000Y-78750000D03*
%TO.P,J4,2*%
X152250000Y-82250000D03*
%TO.P,J4,1*%
X147250000Y-85750000D03*
%TD*%
%TO.P,J3,3*%
%TO.N,Net-(J2-Pad1)*%
X126750000Y-100250000D03*
%TO.P,J3,2*%
X121750000Y-96750000D03*
%TO.P,J3,1*%
X126750000Y-93250000D03*
%TD*%
%TO.P,J2,3*%
%TO.N,Net-(J2-Pad1)*%
X126750000Y-87250000D03*
%TO.P,J2,2*%
X121750000Y-83750000D03*
%TO.P,J2,1*%
X126750000Y-80250000D03*
%TD*%
%TO.P,J1,2*%
%TO.N,Net-(J1-Pad2)*%
X135750000Y-109750000D03*
%TO.P,J1,1*%
%TO.N,Net-(J1-Pad1)*%
X140750000Y-106250000D03*
%TD*%
D13*
%TO.N,Net-(J1-Pad2)*%
X153000000Y-112000000D03*
%TO.N,Net-(J1-Pad1)*%
X156000000Y-101000000D03*
%TO.N,Net-(J4-Pad1)*%
X157000000Y-93000000D03*
%TO.N,Net-(J11-Pad1)*%
X157000000Y-76000000D03*
%TO.N,Net-(J13-Pad2)*%
X149000000Y-104000000D03*
%TD*%
D14*
%TO.N,Net-(J1-Pad2)*%
X135750000Y-109750000D02*
X138000000Y-112000000D01*
X138000000Y-112000000D02*
X153000000Y-112000000D01*
X153000000Y-112000000D02*
X153000000Y-112000000D01*
%TO.N,Net-(J1-Pad1)*%
X157820000Y-101000000D02*
X160000000Y-103180000D01*
X156000000Y-101000000D02*
X157820000Y-101000000D01*
%TO.N,Net-(J2-Pad1)*%
X162540000Y-58797919D02*
X162540000Y-60000000D01*
X128033999Y-58449999D02*
X162192080Y-58449999D01*
X121033997Y-63950001D02*
X125933999Y-63950001D01*
X125049999Y-63066001D02*
X125049999Y-61433999D01*
X118849989Y-66134009D02*
X121033997Y-63950001D01*
X162192080Y-58449999D02*
X162540000Y-58797919D01*
X125933999Y-63950001D02*
X125049999Y-63066001D01*
X118849989Y-76063061D02*
X118849989Y-66134009D01*
X125049999Y-61433999D02*
X128033999Y-58449999D01*
X123036928Y-80250000D02*
X118849989Y-76063061D01*
X126750000Y-80250000D02*
X123036928Y-80250000D01*
X162540000Y-60000000D02*
X162540000Y-62540000D01*
X125250000Y-80250000D02*
X121750000Y-83750000D01*
X126750000Y-80250000D02*
X125250000Y-80250000D01*
X121750000Y-83750000D02*
X123750000Y-83750000D01*
X126750000Y-86750000D02*
X126750000Y-87250000D01*
X123750000Y-83750000D02*
X126750000Y-86750000D01*
X126750000Y-87250000D02*
X126750000Y-93250000D01*
X125250000Y-93250000D02*
X121750000Y-96750000D01*
X126750000Y-93250000D02*
X125250000Y-93250000D01*
X123250000Y-96750000D02*
X126750000Y-100250000D01*
X121750000Y-96750000D02*
X123250000Y-96750000D01*
%TO.N,Net-(J4-Pad1)*%
X148750000Y-78750000D02*
X152250000Y-82250000D01*
X147250000Y-78750000D02*
X148750000Y-78750000D01*
X150750000Y-82250000D02*
X147250000Y-85750000D01*
X152250000Y-82250000D02*
X150750000Y-82250000D01*
X147250000Y-85750000D02*
X147250000Y-91750000D01*
X148750000Y-91750000D02*
X152250000Y-95250000D01*
X147250000Y-91750000D02*
X148750000Y-91750000D01*
X150750000Y-95250000D02*
X147250000Y-98750000D01*
X152250000Y-95250000D02*
X150750000Y-95250000D01*
X157480000Y-93000000D02*
X160000000Y-90480000D01*
X157000000Y-93000000D02*
X157480000Y-93000000D01*
D15*
X158195001Y-94195001D02*
X161175001Y-94195001D01*
X161175001Y-94195001D02*
X162540000Y-95560000D01*
X157000000Y-93000000D02*
X158195001Y-94195001D01*
X161364999Y-96735001D02*
X162540000Y-95560000D01*
X161364999Y-99464999D02*
X161364999Y-96735001D01*
X162540000Y-100640000D02*
X161364999Y-99464999D01*
X163715001Y-85964001D02*
X163715001Y-84035001D01*
X163715001Y-84035001D02*
X162540000Y-82860000D01*
X163104001Y-86575001D02*
X163715001Y-85964001D01*
X161364999Y-87375999D02*
X162165997Y-86575001D01*
X162165997Y-86575001D02*
X163104001Y-86575001D01*
X161364999Y-89115001D02*
X161364999Y-87375999D01*
X160000000Y-90480000D02*
X161364999Y-89115001D01*
X163715001Y-81684999D02*
X163715001Y-76415001D01*
X163715001Y-76415001D02*
X162540000Y-75240000D01*
X162540000Y-82860000D02*
X163715001Y-81684999D01*
X161175001Y-71335001D02*
X161175001Y-73875001D01*
X161175001Y-73875001D02*
X162540000Y-75240000D01*
X160000000Y-70160000D02*
X161175001Y-71335001D01*
X161364999Y-66255001D02*
X162540000Y-65080000D01*
X161364999Y-68795001D02*
X161364999Y-66255001D01*
X160000000Y-70160000D02*
X161364999Y-68795001D01*
D14*
%TO.N,Net-(J10-Pad1)*%
X137250000Y-83750000D02*
X140750000Y-80250000D01*
X135750000Y-83750000D02*
X137250000Y-83750000D01*
X137250000Y-83750000D02*
X140750000Y-87250000D01*
X140750000Y-87250000D02*
X140750000Y-93250000D01*
X139250000Y-93250000D02*
X135750000Y-96750000D01*
X140750000Y-93250000D02*
X139250000Y-93250000D01*
X137250000Y-96750000D02*
X140750000Y-100250000D01*
X135750000Y-96750000D02*
X137250000Y-96750000D01*
%TO.N,Net-(J11-Pad1)*%
X126750000Y-62250000D02*
X140750000Y-62250000D01*
X140750000Y-62250000D02*
X154750000Y-62250000D01*
%TO.N,Net-(J11-Pad2)*%
X135750000Y-65750000D02*
X149750000Y-65750000D01*
X121750000Y-65750000D02*
X135750000Y-65750000D01*
X163284001Y-109810001D02*
X164090001Y-109004001D01*
X155793999Y-109810001D02*
X163284001Y-109810001D01*
X153049999Y-107066001D02*
X155793999Y-109810001D01*
X120049999Y-73933999D02*
X120049999Y-75566001D01*
X123549999Y-70433999D02*
X120049999Y-73933999D01*
X164090001Y-94570001D02*
X162540000Y-93020000D01*
X125049999Y-70433999D02*
X123549999Y-70433999D01*
X164090001Y-109004001D02*
X164090001Y-94570001D01*
X149750000Y-65750000D02*
X129733998Y-65750000D01*
X129733998Y-65750000D02*
X125049999Y-70433999D01*
X154000000Y-81483998D02*
X154000000Y-104483998D01*
X120049999Y-75566001D02*
X120933999Y-76450001D01*
X120933999Y-76450001D02*
X148966003Y-76450001D01*
X154000000Y-104483998D02*
X153049999Y-105433999D01*
X148966003Y-76450001D02*
X154000000Y-81483998D01*
X153049999Y-105433999D02*
X153049999Y-107066001D01*
%TO.N,Net-(J11-Pad1)*%
X154750000Y-63664213D02*
X157000000Y-65914213D01*
X154750000Y-62250000D02*
X154750000Y-63664213D01*
X157000000Y-65914213D02*
X157000000Y-76000000D01*
X157000000Y-76000000D02*
X157000000Y-76000000D01*
%TO.N,Net-(J12-Pad2)*%
X121750000Y-74750000D02*
X135750000Y-74750000D01*
X135750000Y-74750000D02*
X149750000Y-74750000D01*
%TO.N,Net-(J12-Pad1)*%
X126750000Y-71250000D02*
X140750000Y-71250000D01*
X140750000Y-71250000D02*
X154750000Y-71250000D01*
%TO.N,Net-(J13-Pad2)*%
X149000000Y-109000000D02*
X149750000Y-109750000D01*
X149000000Y-104000000D02*
X149000000Y-109000000D01*
%TD*%
D16*
%TO.N,Net-(J4-Pad1)*%
G36*
X117966353Y-57685000D02*
G01*
X127193533Y-57685000D01*
X127192008Y-57686858D01*
X124286859Y-60592008D01*
X124243551Y-60627550D01*
X124101716Y-60800376D01*
X124101339Y-60801082D01*
X123996323Y-60997553D01*
X123955714Y-61131423D01*
X123933548Y-61204494D01*
X123931422Y-61211501D01*
X123909508Y-61433999D01*
X123914999Y-61489750D01*
X123914999Y-62815001D01*
X121089749Y-62815001D01*
X121033997Y-62809510D01*
X120811498Y-62831424D01*
X120597550Y-62896325D01*
X120400374Y-63001717D01*
X120270853Y-63108012D01*
X120270851Y-63108014D01*
X120227548Y-63143552D01*
X120192010Y-63186855D01*
X118086849Y-65292018D01*
X118043541Y-65327560D01*
X117901706Y-65500386D01*
X117854359Y-65588967D01*
X117796313Y-65697563D01*
X117731412Y-65911511D01*
X117709498Y-66134009D01*
X117714990Y-66189770D01*
X117714989Y-76007309D01*
X117709498Y-76063061D01*
X117714989Y-76118812D01*
X117731412Y-76285559D01*
X117796313Y-76499507D01*
X117901705Y-76696684D01*
X118043540Y-76869510D01*
X118086854Y-76905057D01*
X122194937Y-81013141D01*
X122230479Y-81056449D01*
X122403305Y-81198284D01*
X122594428Y-81300441D01*
X121779869Y-82115000D01*
X121588967Y-82115000D01*
X121273088Y-82177832D01*
X120975537Y-82301082D01*
X120707748Y-82480013D01*
X120480013Y-82707748D01*
X120301082Y-82975537D01*
X120177832Y-83273088D01*
X120115000Y-83588967D01*
X120115000Y-83911033D01*
X120177832Y-84226912D01*
X120301082Y-84524463D01*
X120480013Y-84792252D01*
X120707748Y-85019987D01*
X120975537Y-85198918D01*
X121273088Y-85322168D01*
X121588967Y-85385000D01*
X121911033Y-85385000D01*
X122226912Y-85322168D01*
X122524463Y-85198918D01*
X122792252Y-85019987D01*
X122927239Y-84885000D01*
X123279869Y-84885000D01*
X125176193Y-86781326D01*
X125115000Y-87088967D01*
X125115000Y-87411033D01*
X125177832Y-87726912D01*
X125301082Y-88024463D01*
X125480013Y-88292252D01*
X125615000Y-88427239D01*
X125615001Y-92072760D01*
X125572761Y-92115000D01*
X125305741Y-92115000D01*
X125249999Y-92109510D01*
X125194257Y-92115000D01*
X125194248Y-92115000D01*
X125027501Y-92131423D01*
X124813553Y-92196324D01*
X124616377Y-92301716D01*
X124443551Y-92443551D01*
X124408009Y-92486859D01*
X121779869Y-95115000D01*
X121588967Y-95115000D01*
X121273088Y-95177832D01*
X120975537Y-95301082D01*
X120707748Y-95480013D01*
X120480013Y-95707748D01*
X120301082Y-95975537D01*
X120177832Y-96273088D01*
X120115000Y-96588967D01*
X120115000Y-96911033D01*
X120177832Y-97226912D01*
X120301082Y-97524463D01*
X120480013Y-97792252D01*
X120707748Y-98019987D01*
X120975537Y-98198918D01*
X121273088Y-98322168D01*
X121588967Y-98385000D01*
X121911033Y-98385000D01*
X122226912Y-98322168D01*
X122524463Y-98198918D01*
X122792252Y-98019987D01*
X122853554Y-97958685D01*
X125115000Y-100220132D01*
X125115000Y-100411033D01*
X125177832Y-100726912D01*
X125301082Y-101024463D01*
X125480013Y-101292252D01*
X125707748Y-101519987D01*
X125975537Y-101698918D01*
X126273088Y-101822168D01*
X126588967Y-101885000D01*
X126911033Y-101885000D01*
X127226912Y-101822168D01*
X127524463Y-101698918D01*
X127792252Y-101519987D01*
X128019987Y-101292252D01*
X128198918Y-101024463D01*
X128322168Y-100726912D01*
X128385000Y-100411033D01*
X128385000Y-100088967D01*
X128322168Y-99773088D01*
X128198918Y-99475537D01*
X128019987Y-99207748D01*
X127792252Y-98980013D01*
X127524463Y-98801082D01*
X127226912Y-98677832D01*
X126911033Y-98615000D01*
X126720132Y-98615000D01*
X124105131Y-96000000D01*
X125646446Y-94458685D01*
X125707748Y-94519987D01*
X125975537Y-94698918D01*
X126273088Y-94822168D01*
X126588967Y-94885000D01*
X126911033Y-94885000D01*
X127226912Y-94822168D01*
X127524463Y-94698918D01*
X127792252Y-94519987D01*
X128019987Y-94292252D01*
X128198918Y-94024463D01*
X128322168Y-93726912D01*
X128385000Y-93411033D01*
X128385000Y-93088967D01*
X128322168Y-92773088D01*
X128198918Y-92475537D01*
X128019987Y-92207748D01*
X127885000Y-92072761D01*
X127885000Y-88427239D01*
X128019987Y-88292252D01*
X128198918Y-88024463D01*
X128322168Y-87726912D01*
X128385000Y-87411033D01*
X128385000Y-87088967D01*
X128322168Y-86773088D01*
X128198918Y-86475537D01*
X128019987Y-86207748D01*
X127792252Y-85980013D01*
X127524463Y-85801082D01*
X127322600Y-85717468D01*
X125194099Y-83588967D01*
X134115000Y-83588967D01*
X134115000Y-83911033D01*
X134177832Y-84226912D01*
X134301082Y-84524463D01*
X134480013Y-84792252D01*
X134707748Y-85019987D01*
X134975537Y-85198918D01*
X135273088Y-85322168D01*
X135588967Y-85385000D01*
X135911033Y-85385000D01*
X136226912Y-85322168D01*
X136524463Y-85198918D01*
X136792252Y-85019987D01*
X136853554Y-84958685D01*
X139115000Y-87220132D01*
X139115000Y-87411033D01*
X139177832Y-87726912D01*
X139301082Y-88024463D01*
X139480013Y-88292252D01*
X139615000Y-88427239D01*
X139615001Y-92072760D01*
X139572761Y-92115000D01*
X139305741Y-92115000D01*
X139249999Y-92109510D01*
X139194257Y-92115000D01*
X139194248Y-92115000D01*
X139027501Y-92131423D01*
X138813553Y-92196324D01*
X138616377Y-92301716D01*
X138443551Y-92443551D01*
X138408009Y-92486859D01*
X135779869Y-95115000D01*
X135588967Y-95115000D01*
X135273088Y-95177832D01*
X134975537Y-95301082D01*
X134707748Y-95480013D01*
X134480013Y-95707748D01*
X134301082Y-95975537D01*
X134177832Y-96273088D01*
X134115000Y-96588967D01*
X134115000Y-96911033D01*
X134177832Y-97226912D01*
X134301082Y-97524463D01*
X134480013Y-97792252D01*
X134707748Y-98019987D01*
X134975537Y-98198918D01*
X135273088Y-98322168D01*
X135588967Y-98385000D01*
X135911033Y-98385000D01*
X136226912Y-98322168D01*
X136524463Y-98198918D01*
X136792252Y-98019987D01*
X136853554Y-97958685D01*
X139115000Y-100220132D01*
X139115000Y-100411033D01*
X139177832Y-100726912D01*
X139301082Y-101024463D01*
X139480013Y-101292252D01*
X139707748Y-101519987D01*
X139975537Y-101698918D01*
X140273088Y-101822168D01*
X140588967Y-101885000D01*
X140911033Y-101885000D01*
X141226912Y-101822168D01*
X141524463Y-101698918D01*
X141792252Y-101519987D01*
X142019987Y-101292252D01*
X142198918Y-101024463D01*
X142322168Y-100726912D01*
X142385000Y-100411033D01*
X142385000Y-100088967D01*
X142322168Y-99773088D01*
X142198918Y-99475537D01*
X142019987Y-99207748D01*
X141792252Y-98980013D01*
X141524463Y-98801082D01*
X141226912Y-98677832D01*
X140911033Y-98615000D01*
X140720132Y-98615000D01*
X138105131Y-96000000D01*
X139646446Y-94458685D01*
X139707748Y-94519987D01*
X139975537Y-94698918D01*
X140273088Y-94822168D01*
X140588967Y-94885000D01*
X140911033Y-94885000D01*
X141226912Y-94822168D01*
X141524463Y-94698918D01*
X141792252Y-94519987D01*
X142019987Y-94292252D01*
X142198918Y-94024463D01*
X142322168Y-93726912D01*
X142385000Y-93411033D01*
X142385000Y-93088967D01*
X142322168Y-92773088D01*
X142198918Y-92475537D01*
X142019987Y-92207748D01*
X141885000Y-92072761D01*
X141885000Y-88427239D01*
X142019987Y-88292252D01*
X142198918Y-88024463D01*
X142322168Y-87726912D01*
X142385000Y-87411033D01*
X142385000Y-87088967D01*
X142322168Y-86773088D01*
X142198918Y-86475537D01*
X142019987Y-86207748D01*
X141792252Y-85980013D01*
X141524463Y-85801082D01*
X141226912Y-85677832D01*
X140911033Y-85615000D01*
X140720132Y-85615000D01*
X138855131Y-83750000D01*
X140720132Y-81885000D01*
X140911033Y-81885000D01*
X141226912Y-81822168D01*
X141524463Y-81698918D01*
X141792252Y-81519987D01*
X142019987Y-81292252D01*
X142198918Y-81024463D01*
X142322168Y-80726912D01*
X142385000Y-80411033D01*
X142385000Y-80088967D01*
X142322168Y-79773088D01*
X142198918Y-79475537D01*
X142019987Y-79207748D01*
X141792252Y-78980013D01*
X141524463Y-78801082D01*
X141226912Y-78677832D01*
X140911033Y-78615000D01*
X140588967Y-78615000D01*
X140273088Y-78677832D01*
X139975537Y-78801082D01*
X139707748Y-78980013D01*
X139480013Y-79207748D01*
X139301082Y-79475537D01*
X139177832Y-79773088D01*
X139115000Y-80088967D01*
X139115000Y-80279868D01*
X136853554Y-82541315D01*
X136792252Y-82480013D01*
X136524463Y-82301082D01*
X136226912Y-82177832D01*
X135911033Y-82115000D01*
X135588967Y-82115000D01*
X135273088Y-82177832D01*
X134975537Y-82301082D01*
X134707748Y-82480013D01*
X134480013Y-82707748D01*
X134301082Y-82975537D01*
X134177832Y-83273088D01*
X134115000Y-83588967D01*
X125194099Y-83588967D01*
X124591996Y-82986865D01*
X124556449Y-82943551D01*
X124383623Y-82801716D01*
X124331354Y-82773778D01*
X125646446Y-81458685D01*
X125707748Y-81519987D01*
X125975537Y-81698918D01*
X126273088Y-81822168D01*
X126588967Y-81885000D01*
X126911033Y-81885000D01*
X127226912Y-81822168D01*
X127524463Y-81698918D01*
X127792252Y-81519987D01*
X128019987Y-81292252D01*
X128198918Y-81024463D01*
X128322168Y-80726912D01*
X128385000Y-80411033D01*
X128385000Y-80088967D01*
X128322168Y-79773088D01*
X128198918Y-79475537D01*
X128019987Y-79207748D01*
X127792252Y-78980013D01*
X127524463Y-78801082D01*
X127226912Y-78677832D01*
X126911033Y-78615000D01*
X126588967Y-78615000D01*
X126273088Y-78677832D01*
X125975537Y-78801082D01*
X125707748Y-78980013D01*
X125572761Y-79115000D01*
X125305741Y-79115000D01*
X125249999Y-79109510D01*
X125194257Y-79115000D01*
X123507060Y-79115000D01*
X121977061Y-77585001D01*
X148495872Y-77585001D01*
X152865000Y-81954130D01*
X152865001Y-104013865D01*
X152286863Y-104592004D01*
X152243550Y-104627550D01*
X152101715Y-104800376D01*
X152005698Y-104980013D01*
X151996323Y-104997553D01*
X151931422Y-105211501D01*
X151909508Y-105433999D01*
X151914999Y-105489750D01*
X151914999Y-107010250D01*
X151909508Y-107066001D01*
X151931422Y-107288499D01*
X151996323Y-107502447D01*
X152025263Y-107556589D01*
X152101716Y-107699624D01*
X152243551Y-107872450D01*
X152286859Y-107907992D01*
X154952008Y-110573142D01*
X154987550Y-110616450D01*
X155160376Y-110758285D01*
X155357552Y-110863677D01*
X155571500Y-110928578D01*
X155793998Y-110950492D01*
X155849750Y-110945001D01*
X163228250Y-110945001D01*
X163284001Y-110950492D01*
X163339752Y-110945001D01*
X163339753Y-110945001D01*
X163506500Y-110928578D01*
X163720448Y-110863677D01*
X163917624Y-110758285D01*
X164090450Y-110616450D01*
X164125996Y-110573137D01*
X164315001Y-110384133D01*
X164315001Y-123033647D01*
X164324289Y-123127950D01*
X164311375Y-123259660D01*
X164235965Y-123509429D01*
X164113477Y-123739794D01*
X163948579Y-123941979D01*
X163747546Y-124108288D01*
X163518046Y-124232378D01*
X163268805Y-124309531D01*
X163128181Y-124324311D01*
X163033647Y-124315000D01*
X116966353Y-124315000D01*
X116872045Y-124324289D01*
X116740340Y-124311375D01*
X116490571Y-124235965D01*
X116260206Y-124113477D01*
X116058021Y-123948579D01*
X115891712Y-123747546D01*
X115767622Y-123518046D01*
X115690469Y-123268805D01*
X115660000Y-122978911D01*
X115660000Y-109588967D01*
X134115000Y-109588967D01*
X134115000Y-109911033D01*
X134177832Y-110226912D01*
X134301082Y-110524463D01*
X134480013Y-110792252D01*
X134707748Y-111019987D01*
X134975537Y-111198918D01*
X135273088Y-111322168D01*
X135588967Y-111385000D01*
X135779868Y-111385000D01*
X137158013Y-112763146D01*
X137193551Y-112806449D01*
X137236854Y-112841987D01*
X137236856Y-112841989D01*
X137366377Y-112948284D01*
X137563553Y-113053676D01*
X137777501Y-113118577D01*
X138000000Y-113140491D01*
X138055752Y-113135000D01*
X153055752Y-113135000D01*
X153222499Y-113118577D01*
X153436447Y-113053676D01*
X153633623Y-112948284D01*
X153806449Y-112806449D01*
X153948284Y-112633623D01*
X154053676Y-112436447D01*
X154118577Y-112222499D01*
X154140491Y-112000000D01*
X154118577Y-111777501D01*
X154053676Y-111563553D01*
X153948284Y-111366377D01*
X153806449Y-111193551D01*
X153633623Y-111051716D01*
X153436447Y-110946324D01*
X153222499Y-110881423D01*
X153055752Y-110865000D01*
X150947239Y-110865000D01*
X151019987Y-110792252D01*
X151198918Y-110524463D01*
X151322168Y-110226912D01*
X151385000Y-109911033D01*
X151385000Y-109588967D01*
X151322168Y-109273088D01*
X151198918Y-108975537D01*
X151019987Y-108707748D01*
X150792252Y-108480013D01*
X150524463Y-108301082D01*
X150226912Y-108177832D01*
X150135000Y-108159550D01*
X150135000Y-103944248D01*
X150118577Y-103777501D01*
X150053676Y-103563553D01*
X149948284Y-103366377D01*
X149806449Y-103193551D01*
X149633623Y-103051716D01*
X149436446Y-102946324D01*
X149222498Y-102881423D01*
X149000000Y-102859509D01*
X148777501Y-102881423D01*
X148563553Y-102946324D01*
X148366377Y-103051716D01*
X148193551Y-103193551D01*
X148051716Y-103366377D01*
X147946324Y-103563554D01*
X147881423Y-103777502D01*
X147865000Y-103944249D01*
X147865001Y-108944239D01*
X147859509Y-109000000D01*
X147881423Y-109222498D01*
X147946324Y-109436446D01*
X147994993Y-109527500D01*
X148051717Y-109633623D01*
X148115000Y-109710733D01*
X148115000Y-109911033D01*
X148177832Y-110226912D01*
X148301082Y-110524463D01*
X148480013Y-110792252D01*
X148552761Y-110865000D01*
X138470133Y-110865000D01*
X137385000Y-109779868D01*
X137385000Y-109588967D01*
X137322168Y-109273088D01*
X137198918Y-108975537D01*
X137019987Y-108707748D01*
X136792252Y-108480013D01*
X136524463Y-108301082D01*
X136226912Y-108177832D01*
X135911033Y-108115000D01*
X135588967Y-108115000D01*
X135273088Y-108177832D01*
X134975537Y-108301082D01*
X134707748Y-108480013D01*
X134480013Y-108707748D01*
X134301082Y-108975537D01*
X134177832Y-109273088D01*
X134115000Y-109588967D01*
X115660000Y-109588967D01*
X115660000Y-106088967D01*
X139115000Y-106088967D01*
X139115000Y-106411033D01*
X139177832Y-106726912D01*
X139301082Y-107024463D01*
X139480013Y-107292252D01*
X139707748Y-107519987D01*
X139975537Y-107698918D01*
X140273088Y-107822168D01*
X140588967Y-107885000D01*
X140911033Y-107885000D01*
X141226912Y-107822168D01*
X141524463Y-107698918D01*
X141792252Y-107519987D01*
X142019987Y-107292252D01*
X142198918Y-107024463D01*
X142322168Y-106726912D01*
X142385000Y-106411033D01*
X142385000Y-106088967D01*
X142322168Y-105773088D01*
X142198918Y-105475537D01*
X142019987Y-105207748D01*
X141792252Y-104980013D01*
X141524463Y-104801082D01*
X141226912Y-104677832D01*
X140911033Y-104615000D01*
X140588967Y-104615000D01*
X140273088Y-104677832D01*
X139975537Y-104801082D01*
X139707748Y-104980013D01*
X139480013Y-105207748D01*
X139301082Y-105475537D01*
X139177832Y-105773088D01*
X139115000Y-106088967D01*
X115660000Y-106088967D01*
X115660000Y-60032279D01*
X115707670Y-59546107D01*
X115839489Y-59109502D01*
X116053600Y-58706815D01*
X116341848Y-58353388D01*
X116693261Y-58062673D01*
X117094439Y-57845758D01*
X117530113Y-57710894D01*
X117868335Y-57675346D01*
X117966353Y-57685000D01*
G37*
X117966353Y-57685000D02*
X127193533Y-57685000D01*
X127192008Y-57686858D01*
X124286859Y-60592008D01*
X124243551Y-60627550D01*
X124101716Y-60800376D01*
X124101339Y-60801082D01*
X123996323Y-60997553D01*
X123955714Y-61131423D01*
X123933548Y-61204494D01*
X123931422Y-61211501D01*
X123909508Y-61433999D01*
X123914999Y-61489750D01*
X123914999Y-62815001D01*
X121089749Y-62815001D01*
X121033997Y-62809510D01*
X120811498Y-62831424D01*
X120597550Y-62896325D01*
X120400374Y-63001717D01*
X120270853Y-63108012D01*
X120270851Y-63108014D01*
X120227548Y-63143552D01*
X120192010Y-63186855D01*
X118086849Y-65292018D01*
X118043541Y-65327560D01*
X117901706Y-65500386D01*
X117854359Y-65588967D01*
X117796313Y-65697563D01*
X117731412Y-65911511D01*
X117709498Y-66134009D01*
X117714990Y-66189770D01*
X117714989Y-76007309D01*
X117709498Y-76063061D01*
X117714989Y-76118812D01*
X117731412Y-76285559D01*
X117796313Y-76499507D01*
X117901705Y-76696684D01*
X118043540Y-76869510D01*
X118086854Y-76905057D01*
X122194937Y-81013141D01*
X122230479Y-81056449D01*
X122403305Y-81198284D01*
X122594428Y-81300441D01*
X121779869Y-82115000D01*
X121588967Y-82115000D01*
X121273088Y-82177832D01*
X120975537Y-82301082D01*
X120707748Y-82480013D01*
X120480013Y-82707748D01*
X120301082Y-82975537D01*
X120177832Y-83273088D01*
X120115000Y-83588967D01*
X120115000Y-83911033D01*
X120177832Y-84226912D01*
X120301082Y-84524463D01*
X120480013Y-84792252D01*
X120707748Y-85019987D01*
X120975537Y-85198918D01*
X121273088Y-85322168D01*
X121588967Y-85385000D01*
X121911033Y-85385000D01*
X122226912Y-85322168D01*
X122524463Y-85198918D01*
X122792252Y-85019987D01*
X122927239Y-84885000D01*
X123279869Y-84885000D01*
X125176193Y-86781326D01*
X125115000Y-87088967D01*
X125115000Y-87411033D01*
X125177832Y-87726912D01*
X125301082Y-88024463D01*
X125480013Y-88292252D01*
X125615000Y-88427239D01*
X125615001Y-92072760D01*
X125572761Y-92115000D01*
X125305741Y-92115000D01*
X125249999Y-92109510D01*
X125194257Y-92115000D01*
X125194248Y-92115000D01*
X125027501Y-92131423D01*
X124813553Y-92196324D01*
X124616377Y-92301716D01*
X124443551Y-92443551D01*
X124408009Y-92486859D01*
X121779869Y-95115000D01*
X121588967Y-95115000D01*
X121273088Y-95177832D01*
X120975537Y-95301082D01*
X120707748Y-95480013D01*
X120480013Y-95707748D01*
X120301082Y-95975537D01*
X120177832Y-96273088D01*
X120115000Y-96588967D01*
X120115000Y-96911033D01*
X120177832Y-97226912D01*
X120301082Y-97524463D01*
X120480013Y-97792252D01*
X120707748Y-98019987D01*
X120975537Y-98198918D01*
X121273088Y-98322168D01*
X121588967Y-98385000D01*
X121911033Y-98385000D01*
X122226912Y-98322168D01*
X122524463Y-98198918D01*
X122792252Y-98019987D01*
X122853554Y-97958685D01*
X125115000Y-100220132D01*
X125115000Y-100411033D01*
X125177832Y-100726912D01*
X125301082Y-101024463D01*
X125480013Y-101292252D01*
X125707748Y-101519987D01*
X125975537Y-101698918D01*
X126273088Y-101822168D01*
X126588967Y-101885000D01*
X126911033Y-101885000D01*
X127226912Y-101822168D01*
X127524463Y-101698918D01*
X127792252Y-101519987D01*
X128019987Y-101292252D01*
X128198918Y-101024463D01*
X128322168Y-100726912D01*
X128385000Y-100411033D01*
X128385000Y-100088967D01*
X128322168Y-99773088D01*
X128198918Y-99475537D01*
X128019987Y-99207748D01*
X127792252Y-98980013D01*
X127524463Y-98801082D01*
X127226912Y-98677832D01*
X126911033Y-98615000D01*
X126720132Y-98615000D01*
X124105131Y-96000000D01*
X125646446Y-94458685D01*
X125707748Y-94519987D01*
X125975537Y-94698918D01*
X126273088Y-94822168D01*
X126588967Y-94885000D01*
X126911033Y-94885000D01*
X127226912Y-94822168D01*
X127524463Y-94698918D01*
X127792252Y-94519987D01*
X128019987Y-94292252D01*
X128198918Y-94024463D01*
X128322168Y-93726912D01*
X128385000Y-93411033D01*
X128385000Y-93088967D01*
X128322168Y-92773088D01*
X128198918Y-92475537D01*
X128019987Y-92207748D01*
X127885000Y-92072761D01*
X127885000Y-88427239D01*
X128019987Y-88292252D01*
X128198918Y-88024463D01*
X128322168Y-87726912D01*
X128385000Y-87411033D01*
X128385000Y-87088967D01*
X128322168Y-86773088D01*
X128198918Y-86475537D01*
X128019987Y-86207748D01*
X127792252Y-85980013D01*
X127524463Y-85801082D01*
X127322600Y-85717468D01*
X125194099Y-83588967D01*
X134115000Y-83588967D01*
X134115000Y-83911033D01*
X134177832Y-84226912D01*
X134301082Y-84524463D01*
X134480013Y-84792252D01*
X134707748Y-85019987D01*
X134975537Y-85198918D01*
X135273088Y-85322168D01*
X135588967Y-85385000D01*
X135911033Y-85385000D01*
X136226912Y-85322168D01*
X136524463Y-85198918D01*
X136792252Y-85019987D01*
X136853554Y-84958685D01*
X139115000Y-87220132D01*
X139115000Y-87411033D01*
X139177832Y-87726912D01*
X139301082Y-88024463D01*
X139480013Y-88292252D01*
X139615000Y-88427239D01*
X139615001Y-92072760D01*
X139572761Y-92115000D01*
X139305741Y-92115000D01*
X139249999Y-92109510D01*
X139194257Y-92115000D01*
X139194248Y-92115000D01*
X139027501Y-92131423D01*
X138813553Y-92196324D01*
X138616377Y-92301716D01*
X138443551Y-92443551D01*
X138408009Y-92486859D01*
X135779869Y-95115000D01*
X135588967Y-95115000D01*
X135273088Y-95177832D01*
X134975537Y-95301082D01*
X134707748Y-95480013D01*
X134480013Y-95707748D01*
X134301082Y-95975537D01*
X134177832Y-96273088D01*
X134115000Y-96588967D01*
X134115000Y-96911033D01*
X134177832Y-97226912D01*
X134301082Y-97524463D01*
X134480013Y-97792252D01*
X134707748Y-98019987D01*
X134975537Y-98198918D01*
X135273088Y-98322168D01*
X135588967Y-98385000D01*
X135911033Y-98385000D01*
X136226912Y-98322168D01*
X136524463Y-98198918D01*
X136792252Y-98019987D01*
X136853554Y-97958685D01*
X139115000Y-100220132D01*
X139115000Y-100411033D01*
X139177832Y-100726912D01*
X139301082Y-101024463D01*
X139480013Y-101292252D01*
X139707748Y-101519987D01*
X139975537Y-101698918D01*
X140273088Y-101822168D01*
X140588967Y-101885000D01*
X140911033Y-101885000D01*
X141226912Y-101822168D01*
X141524463Y-101698918D01*
X141792252Y-101519987D01*
X142019987Y-101292252D01*
X142198918Y-101024463D01*
X142322168Y-100726912D01*
X142385000Y-100411033D01*
X142385000Y-100088967D01*
X142322168Y-99773088D01*
X142198918Y-99475537D01*
X142019987Y-99207748D01*
X141792252Y-98980013D01*
X141524463Y-98801082D01*
X141226912Y-98677832D01*
X140911033Y-98615000D01*
X140720132Y-98615000D01*
X138105131Y-96000000D01*
X139646446Y-94458685D01*
X139707748Y-94519987D01*
X139975537Y-94698918D01*
X140273088Y-94822168D01*
X140588967Y-94885000D01*
X140911033Y-94885000D01*
X141226912Y-94822168D01*
X141524463Y-94698918D01*
X141792252Y-94519987D01*
X142019987Y-94292252D01*
X142198918Y-94024463D01*
X142322168Y-93726912D01*
X142385000Y-93411033D01*
X142385000Y-93088967D01*
X142322168Y-92773088D01*
X142198918Y-92475537D01*
X142019987Y-92207748D01*
X141885000Y-92072761D01*
X141885000Y-88427239D01*
X142019987Y-88292252D01*
X142198918Y-88024463D01*
X142322168Y-87726912D01*
X142385000Y-87411033D01*
X142385000Y-87088967D01*
X142322168Y-86773088D01*
X142198918Y-86475537D01*
X142019987Y-86207748D01*
X141792252Y-85980013D01*
X141524463Y-85801082D01*
X141226912Y-85677832D01*
X140911033Y-85615000D01*
X140720132Y-85615000D01*
X138855131Y-83750000D01*
X140720132Y-81885000D01*
X140911033Y-81885000D01*
X141226912Y-81822168D01*
X141524463Y-81698918D01*
X141792252Y-81519987D01*
X142019987Y-81292252D01*
X142198918Y-81024463D01*
X142322168Y-80726912D01*
X142385000Y-80411033D01*
X142385000Y-80088967D01*
X142322168Y-79773088D01*
X142198918Y-79475537D01*
X142019987Y-79207748D01*
X141792252Y-78980013D01*
X141524463Y-78801082D01*
X141226912Y-78677832D01*
X140911033Y-78615000D01*
X140588967Y-78615000D01*
X140273088Y-78677832D01*
X139975537Y-78801082D01*
X139707748Y-78980013D01*
X139480013Y-79207748D01*
X139301082Y-79475537D01*
X139177832Y-79773088D01*
X139115000Y-80088967D01*
X139115000Y-80279868D01*
X136853554Y-82541315D01*
X136792252Y-82480013D01*
X136524463Y-82301082D01*
X136226912Y-82177832D01*
X135911033Y-82115000D01*
X135588967Y-82115000D01*
X135273088Y-82177832D01*
X134975537Y-82301082D01*
X134707748Y-82480013D01*
X134480013Y-82707748D01*
X134301082Y-82975537D01*
X134177832Y-83273088D01*
X134115000Y-83588967D01*
X125194099Y-83588967D01*
X124591996Y-82986865D01*
X124556449Y-82943551D01*
X124383623Y-82801716D01*
X124331354Y-82773778D01*
X125646446Y-81458685D01*
X125707748Y-81519987D01*
X125975537Y-81698918D01*
X126273088Y-81822168D01*
X126588967Y-81885000D01*
X126911033Y-81885000D01*
X127226912Y-81822168D01*
X127524463Y-81698918D01*
X127792252Y-81519987D01*
X128019987Y-81292252D01*
X128198918Y-81024463D01*
X128322168Y-80726912D01*
X128385000Y-80411033D01*
X128385000Y-80088967D01*
X128322168Y-79773088D01*
X128198918Y-79475537D01*
X128019987Y-79207748D01*
X127792252Y-78980013D01*
X127524463Y-78801082D01*
X127226912Y-78677832D01*
X126911033Y-78615000D01*
X126588967Y-78615000D01*
X126273088Y-78677832D01*
X125975537Y-78801082D01*
X125707748Y-78980013D01*
X125572761Y-79115000D01*
X125305741Y-79115000D01*
X125249999Y-79109510D01*
X125194257Y-79115000D01*
X123507060Y-79115000D01*
X121977061Y-77585001D01*
X148495872Y-77585001D01*
X152865000Y-81954130D01*
X152865001Y-104013865D01*
X152286863Y-104592004D01*
X152243550Y-104627550D01*
X152101715Y-104800376D01*
X152005698Y-104980013D01*
X151996323Y-104997553D01*
X151931422Y-105211501D01*
X151909508Y-105433999D01*
X151914999Y-105489750D01*
X151914999Y-107010250D01*
X151909508Y-107066001D01*
X151931422Y-107288499D01*
X151996323Y-107502447D01*
X152025263Y-107556589D01*
X152101716Y-107699624D01*
X152243551Y-107872450D01*
X152286859Y-107907992D01*
X154952008Y-110573142D01*
X154987550Y-110616450D01*
X155160376Y-110758285D01*
X155357552Y-110863677D01*
X155571500Y-110928578D01*
X155793998Y-110950492D01*
X155849750Y-110945001D01*
X163228250Y-110945001D01*
X163284001Y-110950492D01*
X163339752Y-110945001D01*
X163339753Y-110945001D01*
X163506500Y-110928578D01*
X163720448Y-110863677D01*
X163917624Y-110758285D01*
X164090450Y-110616450D01*
X164125996Y-110573137D01*
X164315001Y-110384133D01*
X164315001Y-123033647D01*
X164324289Y-123127950D01*
X164311375Y-123259660D01*
X164235965Y-123509429D01*
X164113477Y-123739794D01*
X163948579Y-123941979D01*
X163747546Y-124108288D01*
X163518046Y-124232378D01*
X163268805Y-124309531D01*
X163128181Y-124324311D01*
X163033647Y-124315000D01*
X116966353Y-124315000D01*
X116872045Y-124324289D01*
X116740340Y-124311375D01*
X116490571Y-124235965D01*
X116260206Y-124113477D01*
X116058021Y-123948579D01*
X115891712Y-123747546D01*
X115767622Y-123518046D01*
X115690469Y-123268805D01*
X115660000Y-122978911D01*
X115660000Y-109588967D01*
X134115000Y-109588967D01*
X134115000Y-109911033D01*
X134177832Y-110226912D01*
X134301082Y-110524463D01*
X134480013Y-110792252D01*
X134707748Y-111019987D01*
X134975537Y-111198918D01*
X135273088Y-111322168D01*
X135588967Y-111385000D01*
X135779868Y-111385000D01*
X137158013Y-112763146D01*
X137193551Y-112806449D01*
X137236854Y-112841987D01*
X137236856Y-112841989D01*
X137366377Y-112948284D01*
X137563553Y-113053676D01*
X137777501Y-113118577D01*
X138000000Y-113140491D01*
X138055752Y-113135000D01*
X153055752Y-113135000D01*
X153222499Y-113118577D01*
X153436447Y-113053676D01*
X153633623Y-112948284D01*
X153806449Y-112806449D01*
X153948284Y-112633623D01*
X154053676Y-112436447D01*
X154118577Y-112222499D01*
X154140491Y-112000000D01*
X154118577Y-111777501D01*
X154053676Y-111563553D01*
X153948284Y-111366377D01*
X153806449Y-111193551D01*
X153633623Y-111051716D01*
X153436447Y-110946324D01*
X153222499Y-110881423D01*
X153055752Y-110865000D01*
X150947239Y-110865000D01*
X151019987Y-110792252D01*
X151198918Y-110524463D01*
X151322168Y-110226912D01*
X151385000Y-109911033D01*
X151385000Y-109588967D01*
X151322168Y-109273088D01*
X151198918Y-108975537D01*
X151019987Y-108707748D01*
X150792252Y-108480013D01*
X150524463Y-108301082D01*
X150226912Y-108177832D01*
X150135000Y-108159550D01*
X150135000Y-103944248D01*
X150118577Y-103777501D01*
X150053676Y-103563553D01*
X149948284Y-103366377D01*
X149806449Y-103193551D01*
X149633623Y-103051716D01*
X149436446Y-102946324D01*
X149222498Y-102881423D01*
X149000000Y-102859509D01*
X148777501Y-102881423D01*
X148563553Y-102946324D01*
X148366377Y-103051716D01*
X148193551Y-103193551D01*
X148051716Y-103366377D01*
X147946324Y-103563554D01*
X147881423Y-103777502D01*
X147865000Y-103944249D01*
X147865001Y-108944239D01*
X147859509Y-109000000D01*
X147881423Y-109222498D01*
X147946324Y-109436446D01*
X147994993Y-109527500D01*
X148051717Y-109633623D01*
X148115000Y-109710733D01*
X148115000Y-109911033D01*
X148177832Y-110226912D01*
X148301082Y-110524463D01*
X148480013Y-110792252D01*
X148552761Y-110865000D01*
X138470133Y-110865000D01*
X137385000Y-109779868D01*
X137385000Y-109588967D01*
X137322168Y-109273088D01*
X137198918Y-108975537D01*
X137019987Y-108707748D01*
X136792252Y-108480013D01*
X136524463Y-108301082D01*
X136226912Y-108177832D01*
X135911033Y-108115000D01*
X135588967Y-108115000D01*
X135273088Y-108177832D01*
X134975537Y-108301082D01*
X134707748Y-108480013D01*
X134480013Y-108707748D01*
X134301082Y-108975537D01*
X134177832Y-109273088D01*
X134115000Y-109588967D01*
X115660000Y-109588967D01*
X115660000Y-106088967D01*
X139115000Y-106088967D01*
X139115000Y-106411033D01*
X139177832Y-106726912D01*
X139301082Y-107024463D01*
X139480013Y-107292252D01*
X139707748Y-107519987D01*
X139975537Y-107698918D01*
X140273088Y-107822168D01*
X140588967Y-107885000D01*
X140911033Y-107885000D01*
X141226912Y-107822168D01*
X141524463Y-107698918D01*
X141792252Y-107519987D01*
X142019987Y-107292252D01*
X142198918Y-107024463D01*
X142322168Y-106726912D01*
X142385000Y-106411033D01*
X142385000Y-106088967D01*
X142322168Y-105773088D01*
X142198918Y-105475537D01*
X142019987Y-105207748D01*
X141792252Y-104980013D01*
X141524463Y-104801082D01*
X141226912Y-104677832D01*
X140911033Y-104615000D01*
X140588967Y-104615000D01*
X140273088Y-104677832D01*
X139975537Y-104801082D01*
X139707748Y-104980013D01*
X139480013Y-105207748D01*
X139301082Y-105475537D01*
X139177832Y-105773088D01*
X139115000Y-106088967D01*
X115660000Y-106088967D01*
X115660000Y-60032279D01*
X115707670Y-59546107D01*
X115839489Y-59109502D01*
X116053600Y-58706815D01*
X116341848Y-58353388D01*
X116693261Y-58062673D01*
X117094439Y-57845758D01*
X117530113Y-57710894D01*
X117868335Y-57675346D01*
X117966353Y-57685000D01*
G36*
X155193551Y-101806449D02*
G01*
X155366377Y-101948284D01*
X155563553Y-102053676D01*
X155777501Y-102118577D01*
X155944248Y-102135000D01*
X157349869Y-102135000D01*
X158515000Y-103300132D01*
X158515000Y-103326260D01*
X158572068Y-103613158D01*
X158684010Y-103883411D01*
X158846525Y-104126632D01*
X159053368Y-104333475D01*
X159227760Y-104450000D01*
X159053368Y-104566525D01*
X158846525Y-104773368D01*
X158684010Y-105016589D01*
X158572068Y-105286842D01*
X158515000Y-105573740D01*
X158515000Y-105866260D01*
X158572068Y-106153158D01*
X158684010Y-106423411D01*
X158846525Y-106666632D01*
X159053368Y-106873475D01*
X159296589Y-107035990D01*
X159566842Y-107147932D01*
X159853740Y-107205000D01*
X160146260Y-107205000D01*
X160433158Y-107147932D01*
X160703411Y-107035990D01*
X160946632Y-106873475D01*
X161153475Y-106666632D01*
X161270000Y-106492240D01*
X161386525Y-106666632D01*
X161593368Y-106873475D01*
X161767760Y-106990000D01*
X161593368Y-107106525D01*
X161386525Y-107313368D01*
X161224010Y-107556589D01*
X161112068Y-107826842D01*
X161055000Y-108113740D01*
X161055000Y-108406260D01*
X161108456Y-108675001D01*
X156264131Y-108675001D01*
X155357292Y-107768163D01*
X155524463Y-107698918D01*
X155792252Y-107519987D01*
X156019987Y-107292252D01*
X156198918Y-107024463D01*
X156322168Y-106726912D01*
X156385000Y-106411033D01*
X156385000Y-106088967D01*
X156322168Y-105773088D01*
X156198918Y-105475537D01*
X156019987Y-105207748D01*
X155792252Y-104980013D01*
X155524463Y-104801082D01*
X155226912Y-104677832D01*
X155123428Y-104657248D01*
X155135000Y-104539750D01*
X155135000Y-104539741D01*
X155140490Y-104483999D01*
X155135000Y-104428257D01*
X155135000Y-101735105D01*
X155193551Y-101806449D01*
G37*
X155193551Y-101806449D02*
X155366377Y-101948284D01*
X155563553Y-102053676D01*
X155777501Y-102118577D01*
X155944248Y-102135000D01*
X157349869Y-102135000D01*
X158515000Y-103300132D01*
X158515000Y-103326260D01*
X158572068Y-103613158D01*
X158684010Y-103883411D01*
X158846525Y-104126632D01*
X159053368Y-104333475D01*
X159227760Y-104450000D01*
X159053368Y-104566525D01*
X158846525Y-104773368D01*
X158684010Y-105016589D01*
X158572068Y-105286842D01*
X158515000Y-105573740D01*
X158515000Y-105866260D01*
X158572068Y-106153158D01*
X158684010Y-106423411D01*
X158846525Y-106666632D01*
X159053368Y-106873475D01*
X159296589Y-107035990D01*
X159566842Y-107147932D01*
X159853740Y-107205000D01*
X160146260Y-107205000D01*
X160433158Y-107147932D01*
X160703411Y-107035990D01*
X160946632Y-106873475D01*
X161153475Y-106666632D01*
X161270000Y-106492240D01*
X161386525Y-106666632D01*
X161593368Y-106873475D01*
X161767760Y-106990000D01*
X161593368Y-107106525D01*
X161386525Y-107313368D01*
X161224010Y-107556589D01*
X161112068Y-107826842D01*
X161055000Y-108113740D01*
X161055000Y-108406260D01*
X161108456Y-108675001D01*
X156264131Y-108675001D01*
X155357292Y-107768163D01*
X155524463Y-107698918D01*
X155792252Y-107519987D01*
X156019987Y-107292252D01*
X156198918Y-107024463D01*
X156322168Y-106726912D01*
X156385000Y-106411033D01*
X156385000Y-106088967D01*
X156322168Y-105773088D01*
X156198918Y-105475537D01*
X156019987Y-105207748D01*
X155792252Y-104980013D01*
X155524463Y-104801082D01*
X155226912Y-104677832D01*
X155123428Y-104657248D01*
X155135000Y-104539750D01*
X155135000Y-104539741D01*
X155140490Y-104483999D01*
X155135000Y-104428257D01*
X155135000Y-101735105D01*
X155193551Y-101806449D01*
G36*
X161386525Y-99046632D02*
G01*
X161593368Y-99253475D01*
X161836589Y-99415990D01*
X162106842Y-99527932D01*
X162393740Y-99585000D01*
X162686260Y-99585000D01*
X162955002Y-99531544D01*
X162955002Y-101748456D01*
X162686260Y-101695000D01*
X162393740Y-101695000D01*
X162106842Y-101752068D01*
X161836589Y-101864010D01*
X161593368Y-102026525D01*
X161386525Y-102233368D01*
X161270000Y-102407760D01*
X161153475Y-102233368D01*
X160946632Y-102026525D01*
X160772240Y-101910000D01*
X160946632Y-101793475D01*
X161153475Y-101586632D01*
X161315990Y-101343411D01*
X161427932Y-101073158D01*
X161485000Y-100786260D01*
X161485000Y-100493740D01*
X161427932Y-100206842D01*
X161315990Y-99936589D01*
X161153475Y-99693368D01*
X160946632Y-99486525D01*
X160772240Y-99370000D01*
X160946632Y-99253475D01*
X161153475Y-99046632D01*
X161270000Y-98872240D01*
X161386525Y-99046632D01*
G37*
X161386525Y-99046632D02*
X161593368Y-99253475D01*
X161836589Y-99415990D01*
X162106842Y-99527932D01*
X162393740Y-99585000D01*
X162686260Y-99585000D01*
X162955002Y-99531544D01*
X162955002Y-101748456D01*
X162686260Y-101695000D01*
X162393740Y-101695000D01*
X162106842Y-101752068D01*
X161836589Y-101864010D01*
X161593368Y-102026525D01*
X161386525Y-102233368D01*
X161270000Y-102407760D01*
X161153475Y-102233368D01*
X160946632Y-102026525D01*
X160772240Y-101910000D01*
X160946632Y-101793475D01*
X161153475Y-101586632D01*
X161315990Y-101343411D01*
X161427932Y-101073158D01*
X161485000Y-100786260D01*
X161485000Y-100493740D01*
X161427932Y-100206842D01*
X161315990Y-99936589D01*
X161153475Y-99693368D01*
X160946632Y-99486525D01*
X160772240Y-99370000D01*
X160946632Y-99253475D01*
X161153475Y-99046632D01*
X161270000Y-98872240D01*
X161386525Y-99046632D01*
G36*
X158511928Y-60850000D02*
G01*
X158524188Y-60974482D01*
X158560498Y-61094180D01*
X158619463Y-61204494D01*
X158698815Y-61301185D01*
X158795506Y-61380537D01*
X158905820Y-61439502D01*
X158978380Y-61461513D01*
X158846525Y-61593368D01*
X158684010Y-61836589D01*
X158572068Y-62106842D01*
X158515000Y-62393740D01*
X158515000Y-62686260D01*
X158572068Y-62973158D01*
X158684010Y-63243411D01*
X158846525Y-63486632D01*
X159053368Y-63693475D01*
X159227760Y-63810000D01*
X159053368Y-63926525D01*
X158846525Y-64133368D01*
X158684010Y-64376589D01*
X158572068Y-64646842D01*
X158515000Y-64933740D01*
X158515000Y-65226260D01*
X158572068Y-65513158D01*
X158684010Y-65783411D01*
X158846525Y-66026632D01*
X159053368Y-66233475D01*
X159227760Y-66350000D01*
X159053368Y-66466525D01*
X158846525Y-66673368D01*
X158684010Y-66916589D01*
X158572068Y-67186842D01*
X158515000Y-67473740D01*
X158515000Y-67766260D01*
X158572068Y-68053158D01*
X158684010Y-68323411D01*
X158846525Y-68566632D01*
X159053368Y-68773475D01*
X159296589Y-68935990D01*
X159566842Y-69047932D01*
X159853740Y-69105000D01*
X160146260Y-69105000D01*
X160433158Y-69047932D01*
X160703411Y-68935990D01*
X160946632Y-68773475D01*
X161153475Y-68566632D01*
X161270000Y-68392240D01*
X161386525Y-68566632D01*
X161593368Y-68773475D01*
X161767760Y-68890000D01*
X161593368Y-69006525D01*
X161386525Y-69213368D01*
X161224010Y-69456589D01*
X161112068Y-69726842D01*
X161055000Y-70013740D01*
X161055000Y-70306260D01*
X161112068Y-70593158D01*
X161224010Y-70863411D01*
X161386525Y-71106632D01*
X161593368Y-71313475D01*
X161767760Y-71430000D01*
X161593368Y-71546525D01*
X161386525Y-71753368D01*
X161270000Y-71927760D01*
X161153475Y-71753368D01*
X160946632Y-71546525D01*
X160703411Y-71384010D01*
X160433158Y-71272068D01*
X160146260Y-71215000D01*
X159853740Y-71215000D01*
X159566842Y-71272068D01*
X159296589Y-71384010D01*
X159053368Y-71546525D01*
X158846525Y-71753368D01*
X158684010Y-71996589D01*
X158572068Y-72266842D01*
X158515000Y-72553740D01*
X158515000Y-72846260D01*
X158572068Y-73133158D01*
X158684010Y-73403411D01*
X158846525Y-73646632D01*
X159053368Y-73853475D01*
X159227760Y-73970000D01*
X159053368Y-74086525D01*
X158846525Y-74293368D01*
X158684010Y-74536589D01*
X158572068Y-74806842D01*
X158515000Y-75093740D01*
X158515000Y-75386260D01*
X158572068Y-75673158D01*
X158684010Y-75943411D01*
X158846525Y-76186632D01*
X159053368Y-76393475D01*
X159227760Y-76510000D01*
X159053368Y-76626525D01*
X158846525Y-76833368D01*
X158684010Y-77076589D01*
X158572068Y-77346842D01*
X158515000Y-77633740D01*
X158515000Y-77926260D01*
X158572068Y-78213158D01*
X158684010Y-78483411D01*
X158846525Y-78726632D01*
X159053368Y-78933475D01*
X159227760Y-79050000D01*
X159053368Y-79166525D01*
X158846525Y-79373368D01*
X158684010Y-79616589D01*
X158572068Y-79886842D01*
X158515000Y-80173740D01*
X158515000Y-80466260D01*
X158572068Y-80753158D01*
X158684010Y-81023411D01*
X158846525Y-81266632D01*
X159053368Y-81473475D01*
X159227760Y-81590000D01*
X159053368Y-81706525D01*
X158846525Y-81913368D01*
X158684010Y-82156589D01*
X158572068Y-82426842D01*
X158515000Y-82713740D01*
X158515000Y-83006260D01*
X158572068Y-83293158D01*
X158684010Y-83563411D01*
X158846525Y-83806632D01*
X159053368Y-84013475D01*
X159227760Y-84130000D01*
X159053368Y-84246525D01*
X158846525Y-84453368D01*
X158684010Y-84696589D01*
X158572068Y-84966842D01*
X158515000Y-85253740D01*
X158515000Y-85546260D01*
X158572068Y-85833158D01*
X158684010Y-86103411D01*
X158846525Y-86346632D01*
X159053368Y-86553475D01*
X159227760Y-86670000D01*
X159053368Y-86786525D01*
X158846525Y-86993368D01*
X158684010Y-87236589D01*
X158572068Y-87506842D01*
X158515000Y-87793740D01*
X158515000Y-88086260D01*
X158572068Y-88373158D01*
X158684010Y-88643411D01*
X158846525Y-88886632D01*
X159053368Y-89093475D01*
X159296589Y-89255990D01*
X159566842Y-89367932D01*
X159853740Y-89425000D01*
X160146260Y-89425000D01*
X160433158Y-89367932D01*
X160703411Y-89255990D01*
X160946632Y-89093475D01*
X161153475Y-88886632D01*
X161270000Y-88712240D01*
X161386525Y-88886632D01*
X161593368Y-89093475D01*
X161767760Y-89210000D01*
X161593368Y-89326525D01*
X161386525Y-89533368D01*
X161224010Y-89776589D01*
X161112068Y-90046842D01*
X161055000Y-90333740D01*
X161055000Y-90626260D01*
X161112068Y-90913158D01*
X161224010Y-91183411D01*
X161386525Y-91426632D01*
X161593368Y-91633475D01*
X161767760Y-91750000D01*
X161593368Y-91866525D01*
X161386525Y-92073368D01*
X161270000Y-92247760D01*
X161153475Y-92073368D01*
X160946632Y-91866525D01*
X160703411Y-91704010D01*
X160433158Y-91592068D01*
X160146260Y-91535000D01*
X159853740Y-91535000D01*
X159566842Y-91592068D01*
X159296589Y-91704010D01*
X159053368Y-91866525D01*
X158846525Y-92073368D01*
X158684010Y-92316589D01*
X158572068Y-92586842D01*
X158515000Y-92873740D01*
X158515000Y-93166260D01*
X158572068Y-93453158D01*
X158684010Y-93723411D01*
X158846525Y-93966632D01*
X159053368Y-94173475D01*
X159227760Y-94290000D01*
X159053368Y-94406525D01*
X158846525Y-94613368D01*
X158684010Y-94856589D01*
X158572068Y-95126842D01*
X158515000Y-95413740D01*
X158515000Y-95706260D01*
X158572068Y-95993158D01*
X158684010Y-96263411D01*
X158846525Y-96506632D01*
X159053368Y-96713475D01*
X159227760Y-96830000D01*
X159053368Y-96946525D01*
X158846525Y-97153368D01*
X158684010Y-97396589D01*
X158572068Y-97666842D01*
X158515000Y-97953740D01*
X158515000Y-98246260D01*
X158572068Y-98533158D01*
X158684010Y-98803411D01*
X158846525Y-99046632D01*
X159053368Y-99253475D01*
X159227760Y-99370000D01*
X159053368Y-99486525D01*
X158846525Y-99693368D01*
X158684010Y-99936589D01*
X158589973Y-100163616D01*
X158453623Y-100051716D01*
X158256447Y-99946324D01*
X158042499Y-99881423D01*
X157875752Y-99865000D01*
X157875751Y-99865000D01*
X157820000Y-99859509D01*
X157764249Y-99865000D01*
X155944248Y-99865000D01*
X155777501Y-99881423D01*
X155563553Y-99946324D01*
X155366377Y-100051716D01*
X155193551Y-100193551D01*
X155135000Y-100264895D01*
X155135000Y-81539750D01*
X155140491Y-81483998D01*
X155118577Y-81261499D01*
X155053676Y-81047551D01*
X154948284Y-80850375D01*
X154806449Y-80677549D01*
X154763141Y-80642007D01*
X150379922Y-76258789D01*
X150524463Y-76198918D01*
X150792252Y-76019987D01*
X151019987Y-75792252D01*
X151198918Y-75524463D01*
X151322168Y-75226912D01*
X151385000Y-74911033D01*
X151385000Y-74588967D01*
X151322168Y-74273088D01*
X151198918Y-73975537D01*
X151019987Y-73707748D01*
X150792252Y-73480013D01*
X150524463Y-73301082D01*
X150226912Y-73177832D01*
X149911033Y-73115000D01*
X149588967Y-73115000D01*
X149273088Y-73177832D01*
X148975537Y-73301082D01*
X148707748Y-73480013D01*
X148572761Y-73615000D01*
X136927239Y-73615000D01*
X136792252Y-73480013D01*
X136524463Y-73301082D01*
X136226912Y-73177832D01*
X135911033Y-73115000D01*
X135588967Y-73115000D01*
X135273088Y-73177832D01*
X134975537Y-73301082D01*
X134707748Y-73480013D01*
X134572761Y-73615000D01*
X122927239Y-73615000D01*
X122792252Y-73480013D01*
X122524463Y-73301082D01*
X122357292Y-73231837D01*
X124020131Y-71568999D01*
X124994248Y-71568999D01*
X125049999Y-71574490D01*
X125105750Y-71568999D01*
X125105751Y-71568999D01*
X125145640Y-71565070D01*
X125177832Y-71726912D01*
X125301082Y-72024463D01*
X125480013Y-72292252D01*
X125707748Y-72519987D01*
X125975537Y-72698918D01*
X126273088Y-72822168D01*
X126588967Y-72885000D01*
X126911033Y-72885000D01*
X127226912Y-72822168D01*
X127524463Y-72698918D01*
X127792252Y-72519987D01*
X127927239Y-72385000D01*
X139572761Y-72385000D01*
X139707748Y-72519987D01*
X139975537Y-72698918D01*
X140273088Y-72822168D01*
X140588967Y-72885000D01*
X140911033Y-72885000D01*
X141226912Y-72822168D01*
X141524463Y-72698918D01*
X141792252Y-72519987D01*
X141927239Y-72385000D01*
X153572761Y-72385000D01*
X153707748Y-72519987D01*
X153975537Y-72698918D01*
X154273088Y-72822168D01*
X154588967Y-72885000D01*
X154911033Y-72885000D01*
X155226912Y-72822168D01*
X155524463Y-72698918D01*
X155792252Y-72519987D01*
X155865001Y-72447238D01*
X155865001Y-75944238D01*
X155859509Y-76000000D01*
X155881423Y-76222499D01*
X155946324Y-76436447D01*
X156051716Y-76633623D01*
X156193551Y-76806449D01*
X156366377Y-76948284D01*
X156563553Y-77053676D01*
X156777501Y-77118577D01*
X156944248Y-77135000D01*
X156944249Y-77135000D01*
X157000000Y-77140491D01*
X157222499Y-77118577D01*
X157436447Y-77053676D01*
X157633623Y-76948284D01*
X157806449Y-76806449D01*
X157948284Y-76633623D01*
X158053676Y-76436447D01*
X158118577Y-76222499D01*
X158135000Y-76055752D01*
X158140491Y-76000000D01*
X158135000Y-75944248D01*
X158135000Y-65969965D01*
X158140491Y-65914213D01*
X158118577Y-65691714D01*
X158053676Y-65477766D01*
X157948284Y-65280590D01*
X157841989Y-65151069D01*
X157841987Y-65151067D01*
X157806449Y-65107764D01*
X157763146Y-65072226D01*
X156001579Y-63310660D01*
X156019987Y-63292252D01*
X156198918Y-63024463D01*
X156322168Y-62726912D01*
X156385000Y-62411033D01*
X156385000Y-62088967D01*
X156322168Y-61773088D01*
X156198918Y-61475537D01*
X156019987Y-61207748D01*
X155792252Y-60980013D01*
X155524463Y-60801082D01*
X155226912Y-60677832D01*
X154911033Y-60615000D01*
X154588967Y-60615000D01*
X154273088Y-60677832D01*
X153975537Y-60801082D01*
X153707748Y-60980013D01*
X153572761Y-61115000D01*
X141927239Y-61115000D01*
X141792252Y-60980013D01*
X141524463Y-60801082D01*
X141226912Y-60677832D01*
X140911033Y-60615000D01*
X140588967Y-60615000D01*
X140273088Y-60677832D01*
X139975537Y-60801082D01*
X139707748Y-60980013D01*
X139572761Y-61115000D01*
X127927239Y-61115000D01*
X127792252Y-60980013D01*
X127524463Y-60801082D01*
X127357292Y-60731837D01*
X128504131Y-59584999D01*
X158511928Y-59584999D01*
X158511928Y-60850000D01*
G37*
X158511928Y-60850000D02*
X158524188Y-60974482D01*
X158560498Y-61094180D01*
X158619463Y-61204494D01*
X158698815Y-61301185D01*
X158795506Y-61380537D01*
X158905820Y-61439502D01*
X158978380Y-61461513D01*
X158846525Y-61593368D01*
X158684010Y-61836589D01*
X158572068Y-62106842D01*
X158515000Y-62393740D01*
X158515000Y-62686260D01*
X158572068Y-62973158D01*
X158684010Y-63243411D01*
X158846525Y-63486632D01*
X159053368Y-63693475D01*
X159227760Y-63810000D01*
X159053368Y-63926525D01*
X158846525Y-64133368D01*
X158684010Y-64376589D01*
X158572068Y-64646842D01*
X158515000Y-64933740D01*
X158515000Y-65226260D01*
X158572068Y-65513158D01*
X158684010Y-65783411D01*
X158846525Y-66026632D01*
X159053368Y-66233475D01*
X159227760Y-66350000D01*
X159053368Y-66466525D01*
X158846525Y-66673368D01*
X158684010Y-66916589D01*
X158572068Y-67186842D01*
X158515000Y-67473740D01*
X158515000Y-67766260D01*
X158572068Y-68053158D01*
X158684010Y-68323411D01*
X158846525Y-68566632D01*
X159053368Y-68773475D01*
X159296589Y-68935990D01*
X159566842Y-69047932D01*
X159853740Y-69105000D01*
X160146260Y-69105000D01*
X160433158Y-69047932D01*
X160703411Y-68935990D01*
X160946632Y-68773475D01*
X161153475Y-68566632D01*
X161270000Y-68392240D01*
X161386525Y-68566632D01*
X161593368Y-68773475D01*
X161767760Y-68890000D01*
X161593368Y-69006525D01*
X161386525Y-69213368D01*
X161224010Y-69456589D01*
X161112068Y-69726842D01*
X161055000Y-70013740D01*
X161055000Y-70306260D01*
X161112068Y-70593158D01*
X161224010Y-70863411D01*
X161386525Y-71106632D01*
X161593368Y-71313475D01*
X161767760Y-71430000D01*
X161593368Y-71546525D01*
X161386525Y-71753368D01*
X161270000Y-71927760D01*
X161153475Y-71753368D01*
X160946632Y-71546525D01*
X160703411Y-71384010D01*
X160433158Y-71272068D01*
X160146260Y-71215000D01*
X159853740Y-71215000D01*
X159566842Y-71272068D01*
X159296589Y-71384010D01*
X159053368Y-71546525D01*
X158846525Y-71753368D01*
X158684010Y-71996589D01*
X158572068Y-72266842D01*
X158515000Y-72553740D01*
X158515000Y-72846260D01*
X158572068Y-73133158D01*
X158684010Y-73403411D01*
X158846525Y-73646632D01*
X159053368Y-73853475D01*
X159227760Y-73970000D01*
X159053368Y-74086525D01*
X158846525Y-74293368D01*
X158684010Y-74536589D01*
X158572068Y-74806842D01*
X158515000Y-75093740D01*
X158515000Y-75386260D01*
X158572068Y-75673158D01*
X158684010Y-75943411D01*
X158846525Y-76186632D01*
X159053368Y-76393475D01*
X159227760Y-76510000D01*
X159053368Y-76626525D01*
X158846525Y-76833368D01*
X158684010Y-77076589D01*
X158572068Y-77346842D01*
X158515000Y-77633740D01*
X158515000Y-77926260D01*
X158572068Y-78213158D01*
X158684010Y-78483411D01*
X158846525Y-78726632D01*
X159053368Y-78933475D01*
X159227760Y-79050000D01*
X159053368Y-79166525D01*
X158846525Y-79373368D01*
X158684010Y-79616589D01*
X158572068Y-79886842D01*
X158515000Y-80173740D01*
X158515000Y-80466260D01*
X158572068Y-80753158D01*
X158684010Y-81023411D01*
X158846525Y-81266632D01*
X159053368Y-81473475D01*
X159227760Y-81590000D01*
X159053368Y-81706525D01*
X158846525Y-81913368D01*
X158684010Y-82156589D01*
X158572068Y-82426842D01*
X158515000Y-82713740D01*
X158515000Y-83006260D01*
X158572068Y-83293158D01*
X158684010Y-83563411D01*
X158846525Y-83806632D01*
X159053368Y-84013475D01*
X159227760Y-84130000D01*
X159053368Y-84246525D01*
X158846525Y-84453368D01*
X158684010Y-84696589D01*
X158572068Y-84966842D01*
X158515000Y-85253740D01*
X158515000Y-85546260D01*
X158572068Y-85833158D01*
X158684010Y-86103411D01*
X158846525Y-86346632D01*
X159053368Y-86553475D01*
X159227760Y-86670000D01*
X159053368Y-86786525D01*
X158846525Y-86993368D01*
X158684010Y-87236589D01*
X158572068Y-87506842D01*
X158515000Y-87793740D01*
X158515000Y-88086260D01*
X158572068Y-88373158D01*
X158684010Y-88643411D01*
X158846525Y-88886632D01*
X159053368Y-89093475D01*
X159296589Y-89255990D01*
X159566842Y-89367932D01*
X159853740Y-89425000D01*
X160146260Y-89425000D01*
X160433158Y-89367932D01*
X160703411Y-89255990D01*
X160946632Y-89093475D01*
X161153475Y-88886632D01*
X161270000Y-88712240D01*
X161386525Y-88886632D01*
X161593368Y-89093475D01*
X161767760Y-89210000D01*
X161593368Y-89326525D01*
X161386525Y-89533368D01*
X161224010Y-89776589D01*
X161112068Y-90046842D01*
X161055000Y-90333740D01*
X161055000Y-90626260D01*
X161112068Y-90913158D01*
X161224010Y-91183411D01*
X161386525Y-91426632D01*
X161593368Y-91633475D01*
X161767760Y-91750000D01*
X161593368Y-91866525D01*
X161386525Y-92073368D01*
X161270000Y-92247760D01*
X161153475Y-92073368D01*
X160946632Y-91866525D01*
X160703411Y-91704010D01*
X160433158Y-91592068D01*
X160146260Y-91535000D01*
X159853740Y-91535000D01*
X159566842Y-91592068D01*
X159296589Y-91704010D01*
X159053368Y-91866525D01*
X158846525Y-92073368D01*
X158684010Y-92316589D01*
X158572068Y-92586842D01*
X158515000Y-92873740D01*
X158515000Y-93166260D01*
X158572068Y-93453158D01*
X158684010Y-93723411D01*
X158846525Y-93966632D01*
X159053368Y-94173475D01*
X159227760Y-94290000D01*
X159053368Y-94406525D01*
X158846525Y-94613368D01*
X158684010Y-94856589D01*
X158572068Y-95126842D01*
X158515000Y-95413740D01*
X158515000Y-95706260D01*
X158572068Y-95993158D01*
X158684010Y-96263411D01*
X158846525Y-96506632D01*
X159053368Y-96713475D01*
X159227760Y-96830000D01*
X159053368Y-96946525D01*
X158846525Y-97153368D01*
X158684010Y-97396589D01*
X158572068Y-97666842D01*
X158515000Y-97953740D01*
X158515000Y-98246260D01*
X158572068Y-98533158D01*
X158684010Y-98803411D01*
X158846525Y-99046632D01*
X159053368Y-99253475D01*
X159227760Y-99370000D01*
X159053368Y-99486525D01*
X158846525Y-99693368D01*
X158684010Y-99936589D01*
X158589973Y-100163616D01*
X158453623Y-100051716D01*
X158256447Y-99946324D01*
X158042499Y-99881423D01*
X157875752Y-99865000D01*
X157875751Y-99865000D01*
X157820000Y-99859509D01*
X157764249Y-99865000D01*
X155944248Y-99865000D01*
X155777501Y-99881423D01*
X155563553Y-99946324D01*
X155366377Y-100051716D01*
X155193551Y-100193551D01*
X155135000Y-100264895D01*
X155135000Y-81539750D01*
X155140491Y-81483998D01*
X155118577Y-81261499D01*
X155053676Y-81047551D01*
X154948284Y-80850375D01*
X154806449Y-80677549D01*
X154763141Y-80642007D01*
X150379922Y-76258789D01*
X150524463Y-76198918D01*
X150792252Y-76019987D01*
X151019987Y-75792252D01*
X151198918Y-75524463D01*
X151322168Y-75226912D01*
X151385000Y-74911033D01*
X151385000Y-74588967D01*
X151322168Y-74273088D01*
X151198918Y-73975537D01*
X151019987Y-73707748D01*
X150792252Y-73480013D01*
X150524463Y-73301082D01*
X150226912Y-73177832D01*
X149911033Y-73115000D01*
X149588967Y-73115000D01*
X149273088Y-73177832D01*
X148975537Y-73301082D01*
X148707748Y-73480013D01*
X148572761Y-73615000D01*
X136927239Y-73615000D01*
X136792252Y-73480013D01*
X136524463Y-73301082D01*
X136226912Y-73177832D01*
X135911033Y-73115000D01*
X135588967Y-73115000D01*
X135273088Y-73177832D01*
X134975537Y-73301082D01*
X134707748Y-73480013D01*
X134572761Y-73615000D01*
X122927239Y-73615000D01*
X122792252Y-73480013D01*
X122524463Y-73301082D01*
X122357292Y-73231837D01*
X124020131Y-71568999D01*
X124994248Y-71568999D01*
X125049999Y-71574490D01*
X125105750Y-71568999D01*
X125105751Y-71568999D01*
X125145640Y-71565070D01*
X125177832Y-71726912D01*
X125301082Y-72024463D01*
X125480013Y-72292252D01*
X125707748Y-72519987D01*
X125975537Y-72698918D01*
X126273088Y-72822168D01*
X126588967Y-72885000D01*
X126911033Y-72885000D01*
X127226912Y-72822168D01*
X127524463Y-72698918D01*
X127792252Y-72519987D01*
X127927239Y-72385000D01*
X139572761Y-72385000D01*
X139707748Y-72519987D01*
X139975537Y-72698918D01*
X140273088Y-72822168D01*
X140588967Y-72885000D01*
X140911033Y-72885000D01*
X141226912Y-72822168D01*
X141524463Y-72698918D01*
X141792252Y-72519987D01*
X141927239Y-72385000D01*
X153572761Y-72385000D01*
X153707748Y-72519987D01*
X153975537Y-72698918D01*
X154273088Y-72822168D01*
X154588967Y-72885000D01*
X154911033Y-72885000D01*
X155226912Y-72822168D01*
X155524463Y-72698918D01*
X155792252Y-72519987D01*
X155865001Y-72447238D01*
X155865001Y-75944238D01*
X155859509Y-76000000D01*
X155881423Y-76222499D01*
X155946324Y-76436447D01*
X156051716Y-76633623D01*
X156193551Y-76806449D01*
X156366377Y-76948284D01*
X156563553Y-77053676D01*
X156777501Y-77118577D01*
X156944248Y-77135000D01*
X156944249Y-77135000D01*
X157000000Y-77140491D01*
X157222499Y-77118577D01*
X157436447Y-77053676D01*
X157633623Y-76948284D01*
X157806449Y-76806449D01*
X157948284Y-76633623D01*
X158053676Y-76436447D01*
X158118577Y-76222499D01*
X158135000Y-76055752D01*
X158140491Y-76000000D01*
X158135000Y-75944248D01*
X158135000Y-65969965D01*
X158140491Y-65914213D01*
X158118577Y-65691714D01*
X158053676Y-65477766D01*
X157948284Y-65280590D01*
X157841989Y-65151069D01*
X157841987Y-65151067D01*
X157806449Y-65107764D01*
X157763146Y-65072226D01*
X156001579Y-63310660D01*
X156019987Y-63292252D01*
X156198918Y-63024463D01*
X156322168Y-62726912D01*
X156385000Y-62411033D01*
X156385000Y-62088967D01*
X156322168Y-61773088D01*
X156198918Y-61475537D01*
X156019987Y-61207748D01*
X155792252Y-60980013D01*
X155524463Y-60801082D01*
X155226912Y-60677832D01*
X154911033Y-60615000D01*
X154588967Y-60615000D01*
X154273088Y-60677832D01*
X153975537Y-60801082D01*
X153707748Y-60980013D01*
X153572761Y-61115000D01*
X141927239Y-61115000D01*
X141792252Y-60980013D01*
X141524463Y-60801082D01*
X141226912Y-60677832D01*
X140911033Y-60615000D01*
X140588967Y-60615000D01*
X140273088Y-60677832D01*
X139975537Y-60801082D01*
X139707748Y-60980013D01*
X139572761Y-61115000D01*
X127927239Y-61115000D01*
X127792252Y-60980013D01*
X127524463Y-60801082D01*
X127357292Y-60731837D01*
X128504131Y-59584999D01*
X158511928Y-59584999D01*
X158511928Y-60850000D01*
G36*
X161386525Y-93966632D02*
G01*
X161593368Y-94173475D01*
X161836589Y-94335990D01*
X162106842Y-94447932D01*
X162393740Y-94505000D01*
X162419869Y-94505000D01*
X162955002Y-95040134D01*
X162955002Y-96668456D01*
X162686260Y-96615000D01*
X162393740Y-96615000D01*
X162106842Y-96672068D01*
X161836589Y-96784010D01*
X161593368Y-96946525D01*
X161386525Y-97153368D01*
X161270000Y-97327760D01*
X161153475Y-97153368D01*
X160946632Y-96946525D01*
X160772240Y-96830000D01*
X160946632Y-96713475D01*
X161153475Y-96506632D01*
X161315990Y-96263411D01*
X161427932Y-95993158D01*
X161485000Y-95706260D01*
X161485000Y-95413740D01*
X161427932Y-95126842D01*
X161315990Y-94856589D01*
X161153475Y-94613368D01*
X160946632Y-94406525D01*
X160772240Y-94290000D01*
X160946632Y-94173475D01*
X161153475Y-93966632D01*
X161270000Y-93792240D01*
X161386525Y-93966632D01*
G37*
X161386525Y-93966632D02*
X161593368Y-94173475D01*
X161836589Y-94335990D01*
X162106842Y-94447932D01*
X162393740Y-94505000D01*
X162419869Y-94505000D01*
X162955002Y-95040134D01*
X162955002Y-96668456D01*
X162686260Y-96615000D01*
X162393740Y-96615000D01*
X162106842Y-96672068D01*
X161836589Y-96784010D01*
X161593368Y-96946525D01*
X161386525Y-97153368D01*
X161270000Y-97327760D01*
X161153475Y-97153368D01*
X160946632Y-96946525D01*
X160772240Y-96830000D01*
X160946632Y-96713475D01*
X161153475Y-96506632D01*
X161315990Y-96263411D01*
X161427932Y-95993158D01*
X161485000Y-95706260D01*
X161485000Y-95413740D01*
X161427932Y-95126842D01*
X161315990Y-94856589D01*
X161153475Y-94613368D01*
X160946632Y-94406525D01*
X160772240Y-94290000D01*
X160946632Y-94173475D01*
X161153475Y-93966632D01*
X161270000Y-93792240D01*
X161386525Y-93966632D01*
G36*
X163259659Y-57688625D02*
G01*
X163509429Y-57764035D01*
X163739792Y-57886522D01*
X163941980Y-58051422D01*
X164108286Y-58252450D01*
X164232378Y-58481954D01*
X164309531Y-58731195D01*
X164324311Y-58871819D01*
X164315000Y-58966354D01*
X164315001Y-93189869D01*
X164025000Y-92899869D01*
X164025000Y-92873740D01*
X163967932Y-92586842D01*
X163855990Y-92316589D01*
X163693475Y-92073368D01*
X163486632Y-91866525D01*
X163312240Y-91750000D01*
X163486632Y-91633475D01*
X163693475Y-91426632D01*
X163855990Y-91183411D01*
X163967932Y-90913158D01*
X164025000Y-90626260D01*
X164025000Y-90333740D01*
X163967932Y-90046842D01*
X163855990Y-89776589D01*
X163693475Y-89533368D01*
X163486632Y-89326525D01*
X163312240Y-89210000D01*
X163486632Y-89093475D01*
X163693475Y-88886632D01*
X163855990Y-88643411D01*
X163967932Y-88373158D01*
X164025000Y-88086260D01*
X164025000Y-87793740D01*
X163967932Y-87506842D01*
X163855990Y-87236589D01*
X163693475Y-86993368D01*
X163486632Y-86786525D01*
X163312240Y-86670000D01*
X163486632Y-86553475D01*
X163693475Y-86346632D01*
X163855990Y-86103411D01*
X163967932Y-85833158D01*
X164025000Y-85546260D01*
X164025000Y-85253740D01*
X163967932Y-84966842D01*
X163855990Y-84696589D01*
X163693475Y-84453368D01*
X163486632Y-84246525D01*
X163243411Y-84084010D01*
X162973158Y-83972068D01*
X162686260Y-83915000D01*
X162393740Y-83915000D01*
X162106842Y-83972068D01*
X161836589Y-84084010D01*
X161593368Y-84246525D01*
X161386525Y-84453368D01*
X161270000Y-84627760D01*
X161153475Y-84453368D01*
X160946632Y-84246525D01*
X160772240Y-84130000D01*
X160946632Y-84013475D01*
X161153475Y-83806632D01*
X161315990Y-83563411D01*
X161427932Y-83293158D01*
X161485000Y-83006260D01*
X161485000Y-82713740D01*
X161427932Y-82426842D01*
X161315990Y-82156589D01*
X161153475Y-81913368D01*
X160946632Y-81706525D01*
X160772240Y-81590000D01*
X160946632Y-81473475D01*
X161153475Y-81266632D01*
X161270000Y-81092240D01*
X161386525Y-81266632D01*
X161593368Y-81473475D01*
X161836589Y-81635990D01*
X162106842Y-81747932D01*
X162393740Y-81805000D01*
X162686260Y-81805000D01*
X162973158Y-81747932D01*
X163243411Y-81635990D01*
X163486632Y-81473475D01*
X163693475Y-81266632D01*
X163855990Y-81023411D01*
X163967932Y-80753158D01*
X164025000Y-80466260D01*
X164025000Y-80173740D01*
X163967932Y-79886842D01*
X163855990Y-79616589D01*
X163693475Y-79373368D01*
X163486632Y-79166525D01*
X163312240Y-79050000D01*
X163486632Y-78933475D01*
X163693475Y-78726632D01*
X163855990Y-78483411D01*
X163967932Y-78213158D01*
X164025000Y-77926260D01*
X164025000Y-77633740D01*
X163967932Y-77346842D01*
X163855990Y-77076589D01*
X163693475Y-76833368D01*
X163486632Y-76626525D01*
X163243411Y-76464010D01*
X162973158Y-76352068D01*
X162686260Y-76295000D01*
X162393740Y-76295000D01*
X162106842Y-76352068D01*
X161836589Y-76464010D01*
X161593368Y-76626525D01*
X161386525Y-76833368D01*
X161270000Y-77007760D01*
X161153475Y-76833368D01*
X160946632Y-76626525D01*
X160772240Y-76510000D01*
X160946632Y-76393475D01*
X161153475Y-76186632D01*
X161315990Y-75943411D01*
X161427932Y-75673158D01*
X161485000Y-75386260D01*
X161485000Y-75093740D01*
X161427932Y-74806842D01*
X161315990Y-74536589D01*
X161153475Y-74293368D01*
X160946632Y-74086525D01*
X160772240Y-73970000D01*
X160946632Y-73853475D01*
X161153475Y-73646632D01*
X161270000Y-73472240D01*
X161386525Y-73646632D01*
X161593368Y-73853475D01*
X161836589Y-74015990D01*
X162106842Y-74127932D01*
X162393740Y-74185000D01*
X162686260Y-74185000D01*
X162973158Y-74127932D01*
X163243411Y-74015990D01*
X163486632Y-73853475D01*
X163693475Y-73646632D01*
X163855990Y-73403411D01*
X163967932Y-73133158D01*
X164025000Y-72846260D01*
X164025000Y-72553740D01*
X163967932Y-72266842D01*
X163855990Y-71996589D01*
X163693475Y-71753368D01*
X163486632Y-71546525D01*
X163312240Y-71430000D01*
X163486632Y-71313475D01*
X163693475Y-71106632D01*
X163855990Y-70863411D01*
X163967932Y-70593158D01*
X164025000Y-70306260D01*
X164025000Y-70013740D01*
X163967932Y-69726842D01*
X163855990Y-69456589D01*
X163693475Y-69213368D01*
X163486632Y-69006525D01*
X163312240Y-68890000D01*
X163486632Y-68773475D01*
X163693475Y-68566632D01*
X163855990Y-68323411D01*
X163967932Y-68053158D01*
X164025000Y-67766260D01*
X164025000Y-67473740D01*
X163967932Y-67186842D01*
X163855990Y-66916589D01*
X163693475Y-66673368D01*
X163486632Y-66466525D01*
X163243411Y-66304010D01*
X162973158Y-66192068D01*
X162686260Y-66135000D01*
X162393740Y-66135000D01*
X162106842Y-66192068D01*
X161836589Y-66304010D01*
X161593368Y-66466525D01*
X161386525Y-66673368D01*
X161270000Y-66847760D01*
X161153475Y-66673368D01*
X160946632Y-66466525D01*
X160772240Y-66350000D01*
X160946632Y-66233475D01*
X161153475Y-66026632D01*
X161315990Y-65783411D01*
X161427932Y-65513158D01*
X161485000Y-65226260D01*
X161485000Y-64933740D01*
X161427932Y-64646842D01*
X161315990Y-64376589D01*
X161153475Y-64133368D01*
X160946632Y-63926525D01*
X160772240Y-63810000D01*
X160946632Y-63693475D01*
X161153475Y-63486632D01*
X161270000Y-63312240D01*
X161386525Y-63486632D01*
X161593368Y-63693475D01*
X161836589Y-63855990D01*
X162106842Y-63967932D01*
X162393740Y-64025000D01*
X162686260Y-64025000D01*
X162973158Y-63967932D01*
X163243411Y-63855990D01*
X163486632Y-63693475D01*
X163693475Y-63486632D01*
X163855990Y-63243411D01*
X163967932Y-62973158D01*
X164025000Y-62686260D01*
X164025000Y-62393740D01*
X163967932Y-62106842D01*
X163855990Y-61836589D01*
X163693475Y-61593368D01*
X163675000Y-61574893D01*
X163675000Y-60965107D01*
X163693475Y-60946632D01*
X163855990Y-60703411D01*
X163967932Y-60433158D01*
X164025000Y-60146260D01*
X164025000Y-59853740D01*
X163967932Y-59566842D01*
X163855990Y-59296589D01*
X163693475Y-59053368D01*
X163675000Y-59034893D01*
X163675000Y-58853662D01*
X163680490Y-58797918D01*
X163675000Y-58742174D01*
X163675000Y-58742167D01*
X163658577Y-58575420D01*
X163654051Y-58560498D01*
X163644976Y-58530585D01*
X163593676Y-58361472D01*
X163488284Y-58164296D01*
X163346449Y-57991470D01*
X163303135Y-57955923D01*
X163034076Y-57686864D01*
X163032546Y-57685000D01*
X163033647Y-57685000D01*
X163127955Y-57675711D01*
X163259659Y-57688625D01*
G37*
X163259659Y-57688625D02*
X163509429Y-57764035D01*
X163739792Y-57886522D01*
X163941980Y-58051422D01*
X164108286Y-58252450D01*
X164232378Y-58481954D01*
X164309531Y-58731195D01*
X164324311Y-58871819D01*
X164315000Y-58966354D01*
X164315001Y-93189869D01*
X164025000Y-92899869D01*
X164025000Y-92873740D01*
X163967932Y-92586842D01*
X163855990Y-92316589D01*
X163693475Y-92073368D01*
X163486632Y-91866525D01*
X163312240Y-91750000D01*
X163486632Y-91633475D01*
X163693475Y-91426632D01*
X163855990Y-91183411D01*
X163967932Y-90913158D01*
X164025000Y-90626260D01*
X164025000Y-90333740D01*
X163967932Y-90046842D01*
X163855990Y-89776589D01*
X163693475Y-89533368D01*
X163486632Y-89326525D01*
X163312240Y-89210000D01*
X163486632Y-89093475D01*
X163693475Y-88886632D01*
X163855990Y-88643411D01*
X163967932Y-88373158D01*
X164025000Y-88086260D01*
X164025000Y-87793740D01*
X163967932Y-87506842D01*
X163855990Y-87236589D01*
X163693475Y-86993368D01*
X163486632Y-86786525D01*
X163312240Y-86670000D01*
X163486632Y-86553475D01*
X163693475Y-86346632D01*
X163855990Y-86103411D01*
X163967932Y-85833158D01*
X164025000Y-85546260D01*
X164025000Y-85253740D01*
X163967932Y-84966842D01*
X163855990Y-84696589D01*
X163693475Y-84453368D01*
X163486632Y-84246525D01*
X163243411Y-84084010D01*
X162973158Y-83972068D01*
X162686260Y-83915000D01*
X162393740Y-83915000D01*
X162106842Y-83972068D01*
X161836589Y-84084010D01*
X161593368Y-84246525D01*
X161386525Y-84453368D01*
X161270000Y-84627760D01*
X161153475Y-84453368D01*
X160946632Y-84246525D01*
X160772240Y-84130000D01*
X160946632Y-84013475D01*
X161153475Y-83806632D01*
X161315990Y-83563411D01*
X161427932Y-83293158D01*
X161485000Y-83006260D01*
X161485000Y-82713740D01*
X161427932Y-82426842D01*
X161315990Y-82156589D01*
X161153475Y-81913368D01*
X160946632Y-81706525D01*
X160772240Y-81590000D01*
X160946632Y-81473475D01*
X161153475Y-81266632D01*
X161270000Y-81092240D01*
X161386525Y-81266632D01*
X161593368Y-81473475D01*
X161836589Y-81635990D01*
X162106842Y-81747932D01*
X162393740Y-81805000D01*
X162686260Y-81805000D01*
X162973158Y-81747932D01*
X163243411Y-81635990D01*
X163486632Y-81473475D01*
X163693475Y-81266632D01*
X163855990Y-81023411D01*
X163967932Y-80753158D01*
X164025000Y-80466260D01*
X164025000Y-80173740D01*
X163967932Y-79886842D01*
X163855990Y-79616589D01*
X163693475Y-79373368D01*
X163486632Y-79166525D01*
X163312240Y-79050000D01*
X163486632Y-78933475D01*
X163693475Y-78726632D01*
X163855990Y-78483411D01*
X163967932Y-78213158D01*
X164025000Y-77926260D01*
X164025000Y-77633740D01*
X163967932Y-77346842D01*
X163855990Y-77076589D01*
X163693475Y-76833368D01*
X163486632Y-76626525D01*
X163243411Y-76464010D01*
X162973158Y-76352068D01*
X162686260Y-76295000D01*
X162393740Y-76295000D01*
X162106842Y-76352068D01*
X161836589Y-76464010D01*
X161593368Y-76626525D01*
X161386525Y-76833368D01*
X161270000Y-77007760D01*
X161153475Y-76833368D01*
X160946632Y-76626525D01*
X160772240Y-76510000D01*
X160946632Y-76393475D01*
X161153475Y-76186632D01*
X161315990Y-75943411D01*
X161427932Y-75673158D01*
X161485000Y-75386260D01*
X161485000Y-75093740D01*
X161427932Y-74806842D01*
X161315990Y-74536589D01*
X161153475Y-74293368D01*
X160946632Y-74086525D01*
X160772240Y-73970000D01*
X160946632Y-73853475D01*
X161153475Y-73646632D01*
X161270000Y-73472240D01*
X161386525Y-73646632D01*
X161593368Y-73853475D01*
X161836589Y-74015990D01*
X162106842Y-74127932D01*
X162393740Y-74185000D01*
X162686260Y-74185000D01*
X162973158Y-74127932D01*
X163243411Y-74015990D01*
X163486632Y-73853475D01*
X163693475Y-73646632D01*
X163855990Y-73403411D01*
X163967932Y-73133158D01*
X164025000Y-72846260D01*
X164025000Y-72553740D01*
X163967932Y-72266842D01*
X163855990Y-71996589D01*
X163693475Y-71753368D01*
X163486632Y-71546525D01*
X163312240Y-71430000D01*
X163486632Y-71313475D01*
X163693475Y-71106632D01*
X163855990Y-70863411D01*
X163967932Y-70593158D01*
X164025000Y-70306260D01*
X164025000Y-70013740D01*
X163967932Y-69726842D01*
X163855990Y-69456589D01*
X163693475Y-69213368D01*
X163486632Y-69006525D01*
X163312240Y-68890000D01*
X163486632Y-68773475D01*
X163693475Y-68566632D01*
X163855990Y-68323411D01*
X163967932Y-68053158D01*
X164025000Y-67766260D01*
X164025000Y-67473740D01*
X163967932Y-67186842D01*
X163855990Y-66916589D01*
X163693475Y-66673368D01*
X163486632Y-66466525D01*
X163243411Y-66304010D01*
X162973158Y-66192068D01*
X162686260Y-66135000D01*
X162393740Y-66135000D01*
X162106842Y-66192068D01*
X161836589Y-66304010D01*
X161593368Y-66466525D01*
X161386525Y-66673368D01*
X161270000Y-66847760D01*
X161153475Y-66673368D01*
X160946632Y-66466525D01*
X160772240Y-66350000D01*
X160946632Y-66233475D01*
X161153475Y-66026632D01*
X161315990Y-65783411D01*
X161427932Y-65513158D01*
X161485000Y-65226260D01*
X161485000Y-64933740D01*
X161427932Y-64646842D01*
X161315990Y-64376589D01*
X161153475Y-64133368D01*
X160946632Y-63926525D01*
X160772240Y-63810000D01*
X160946632Y-63693475D01*
X161153475Y-63486632D01*
X161270000Y-63312240D01*
X161386525Y-63486632D01*
X161593368Y-63693475D01*
X161836589Y-63855990D01*
X162106842Y-63967932D01*
X162393740Y-64025000D01*
X162686260Y-64025000D01*
X162973158Y-63967932D01*
X163243411Y-63855990D01*
X163486632Y-63693475D01*
X163693475Y-63486632D01*
X163855990Y-63243411D01*
X163967932Y-62973158D01*
X164025000Y-62686260D01*
X164025000Y-62393740D01*
X163967932Y-62106842D01*
X163855990Y-61836589D01*
X163693475Y-61593368D01*
X163675000Y-61574893D01*
X163675000Y-60965107D01*
X163693475Y-60946632D01*
X163855990Y-60703411D01*
X163967932Y-60433158D01*
X164025000Y-60146260D01*
X164025000Y-59853740D01*
X163967932Y-59566842D01*
X163855990Y-59296589D01*
X163693475Y-59053368D01*
X163675000Y-59034893D01*
X163675000Y-58853662D01*
X163680490Y-58797918D01*
X163675000Y-58742174D01*
X163675000Y-58742167D01*
X163658577Y-58575420D01*
X163654051Y-58560498D01*
X163644976Y-58530585D01*
X163593676Y-58361472D01*
X163488284Y-58164296D01*
X163346449Y-57991470D01*
X163303135Y-57955923D01*
X163034076Y-57686864D01*
X163032546Y-57685000D01*
X163033647Y-57685000D01*
X163127955Y-57675711D01*
X163259659Y-57688625D01*
%TD*%
M02*
