%TF.GenerationSoftware,KiCad,Pcbnew,(5.1.6)-1*%
%TF.CreationDate,2022-01-17T21:19:15-08:00*%
%TF.ProjectId,PCB,5043422e-6b69-4636-9164-5f7063625858,rev?*%
%TF.SameCoordinates,Original*%
%TF.FileFunction,Copper,L2,Bot*%
%TF.FilePolarity,Positive*%
%FSLAX46Y46*%
G04 Gerber Fmt 4.6, Leading zero omitted, Abs format (unit mm)*
G04 Created by KiCad (PCBNEW (5.1.6)-1) date 2022-01-17 21:19:15*
%MOMM*%
%LPD*%
G01*
G04 APERTURE LIST*
%TA.AperFunction,ComponentPad*%
%ADD10O,1.700000X1.700000*%
%TD*%
%TA.AperFunction,ComponentPad*%
%ADD11R,1.700000X1.700000*%
%TD*%
%TA.AperFunction,ComponentPad*%
%ADD12C,2.000000*%
%TD*%
%TA.AperFunction,ViaPad*%
%ADD13C,0.800000*%
%TD*%
%TA.AperFunction,Conductor*%
%ADD14C,1.000000*%
%TD*%
%TA.AperFunction,Conductor*%
%ADD15C,0.250000*%
%TD*%
%TA.AperFunction,NonConductor*%
%ADD16C,0.254000*%
%TD*%
G04 APERTURE END LIST*
D10*
%TO.P,J7,40*%
%TO.N,N/C*%
X162540000Y-108260000D03*
%TO.P,J7,39*%
%TO.N,Net-(J4-Pad1)*%
X160000000Y-108260000D03*
%TO.P,J7,38*%
%TO.N,N/C*%
X162540000Y-105720000D03*
%TO.P,J7,37*%
X160000000Y-105720000D03*
%TO.P,J7,36*%
X162540000Y-103180000D03*
%TO.P,J7,35*%
%TO.N,Net-(J1-Pad1)*%
X160000000Y-103180000D03*
%TO.P,J7,34*%
%TO.N,Net-(J4-Pad1)*%
X162540000Y-100640000D03*
%TO.P,J7,33*%
%TO.N,Net-(J13-Pad2)*%
X160000000Y-100640000D03*
%TO.P,J7,32*%
%TO.N,Net-(J13-Pad1)*%
X162540000Y-98100000D03*
%TO.P,J7,31*%
%TO.N,N/C*%
X160000000Y-98100000D03*
%TO.P,J7,30*%
%TO.N,Net-(J4-Pad1)*%
X162540000Y-95560000D03*
%TO.P,J7,29*%
%TO.N,N/C*%
X160000000Y-95560000D03*
%TO.P,J7,28*%
%TO.N,Net-(J11-Pad2)*%
X162540000Y-93020000D03*
%TO.P,J7,27*%
%TO.N,Net-(J11-Pad1)*%
X160000000Y-93020000D03*
%TO.P,J7,26*%
%TO.N,N/C*%
X162540000Y-90480000D03*
%TO.P,J7,25*%
%TO.N,Net-(J4-Pad1)*%
X160000000Y-90480000D03*
%TO.P,J7,24*%
%TO.N,N/C*%
X162540000Y-87940000D03*
%TO.P,J7,23*%
X160000000Y-87940000D03*
%TO.P,J7,22*%
X162540000Y-85400000D03*
%TO.P,J7,21*%
X160000000Y-85400000D03*
%TO.P,J7,20*%
%TO.N,Net-(J4-Pad1)*%
X162540000Y-82860000D03*
%TO.P,J7,19*%
%TO.N,N/C*%
X160000000Y-82860000D03*
%TO.P,J7,18*%
X162540000Y-80320000D03*
%TO.P,J7,17*%
%TO.N,Net-(J10-Pad1)*%
X160000000Y-80320000D03*
%TO.P,J7,16*%
%TO.N,N/C*%
X162540000Y-77780000D03*
%TO.P,J7,15*%
X160000000Y-77780000D03*
%TO.P,J7,14*%
%TO.N,Net-(J4-Pad1)*%
X162540000Y-75240000D03*
%TO.P,J7,13*%
%TO.N,N/C*%
X160000000Y-75240000D03*
%TO.P,J7,12*%
%TO.N,Net-(J1-Pad2)*%
X162540000Y-72700000D03*
%TO.P,J7,11*%
%TO.N,N/C*%
X160000000Y-72700000D03*
%TO.P,J7,10*%
X162540000Y-70160000D03*
%TO.P,J7,9*%
%TO.N,Net-(J4-Pad1)*%
X160000000Y-70160000D03*
%TO.P,J7,8*%
%TO.N,N/C*%
X162540000Y-67620000D03*
%TO.P,J7,7*%
X160000000Y-67620000D03*
%TO.P,J7,6*%
%TO.N,Net-(J4-Pad1)*%
X162540000Y-65080000D03*
%TO.P,J7,5*%
%TO.N,Net-(J12-Pad2)*%
X160000000Y-65080000D03*
%TO.P,J7,4*%
%TO.N,Net-(J2-Pad1)*%
X162540000Y-62540000D03*
%TO.P,J7,3*%
%TO.N,Net-(J12-Pad1)*%
X160000000Y-62540000D03*
%TO.P,J7,2*%
%TO.N,Net-(J2-Pad1)*%
X162540000Y-60000000D03*
D11*
%TO.P,J7,1*%
%TO.N,Net-(J10-Pad1)*%
X160000000Y-60000000D03*
%TD*%
D12*
%TO.P,J17,2*%
%TO.N,Net-(J12-Pad2)*%
X149750000Y-74750000D03*
%TO.P,J17,1*%
%TO.N,Net-(J12-Pad1)*%
X154750000Y-71250000D03*
%TD*%
%TO.P,J16,2*%
%TO.N,Net-(J11-Pad2)*%
X149750000Y-65750000D03*
%TO.P,J16,1*%
%TO.N,Net-(J11-Pad1)*%
X154750000Y-62250000D03*
%TD*%
%TO.P,J15,2*%
%TO.N,Net-(J12-Pad2)*%
X135750000Y-74750000D03*
%TO.P,J15,1*%
%TO.N,Net-(J12-Pad1)*%
X140750000Y-71250000D03*
%TD*%
%TO.P,J14,2*%
%TO.N,Net-(J11-Pad2)*%
X135750000Y-65750000D03*
%TO.P,J14,1*%
%TO.N,Net-(J11-Pad1)*%
X140750000Y-62250000D03*
%TD*%
%TO.P,J13,2*%
%TO.N,Net-(J13-Pad2)*%
X149750000Y-109750000D03*
%TO.P,J13,1*%
%TO.N,Net-(J13-Pad1)*%
X154750000Y-106250000D03*
%TD*%
%TO.P,J12,2*%
%TO.N,Net-(J12-Pad2)*%
X121750000Y-74750000D03*
%TO.P,J12,1*%
%TO.N,Net-(J12-Pad1)*%
X126750000Y-71250000D03*
%TD*%
%TO.P,J11,2*%
%TO.N,Net-(J11-Pad2)*%
X121750000Y-65750000D03*
%TO.P,J11,1*%
%TO.N,Net-(J11-Pad1)*%
X126750000Y-62250000D03*
%TD*%
%TO.P,J10,3*%
%TO.N,Net-(J10-Pad1)*%
X140750000Y-87250000D03*
%TO.P,J10,2*%
X135750000Y-83750000D03*
%TO.P,J10,1*%
X140750000Y-80250000D03*
%TD*%
%TO.P,J9,3*%
%TO.N,Net-(J10-Pad1)*%
X140750000Y-100250000D03*
%TO.P,J9,2*%
X135750000Y-96750000D03*
%TO.P,J9,1*%
X140750000Y-93250000D03*
%TD*%
%TO.P,J8,3*%
%TO.N,Net-(J4-Pad1)*%
X141250000Y-114250000D03*
%TO.P,J8,2*%
X137750000Y-119250000D03*
%TO.P,J8,1*%
X134250000Y-114250000D03*
%TD*%
%TO.P,J6,3*%
%TO.N,Net-(J4-Pad1)*%
X147250000Y-91750000D03*
%TO.P,J6,2*%
X152250000Y-95250000D03*
%TO.P,J6,1*%
X147250000Y-98750000D03*
%TD*%
%TO.P,J5,3*%
%TO.N,Net-(J4-Pad1)*%
X155250000Y-114250000D03*
%TO.P,J5,2*%
X151750000Y-119250000D03*
%TO.P,J5,1*%
X148250000Y-114250000D03*
%TD*%
%TO.P,J4,3*%
%TO.N,Net-(J4-Pad1)*%
X147250000Y-78750000D03*
%TO.P,J4,2*%
X152250000Y-82250000D03*
%TO.P,J4,1*%
X147250000Y-85750000D03*
%TD*%
%TO.P,J3,3*%
%TO.N,Net-(J2-Pad1)*%
X126750000Y-100250000D03*
%TO.P,J3,2*%
X121750000Y-96750000D03*
%TO.P,J3,1*%
X126750000Y-93250000D03*
%TD*%
%TO.P,J2,3*%
%TO.N,Net-(J2-Pad1)*%
X126750000Y-87250000D03*
%TO.P,J2,2*%
X121750000Y-83750000D03*
%TO.P,J2,1*%
X126750000Y-80250000D03*
%TD*%
%TO.P,J1,2*%
%TO.N,Net-(J1-Pad2)*%
X135750000Y-109750000D03*
%TO.P,J1,1*%
%TO.N,Net-(J1-Pad1)*%
X140750000Y-106250000D03*
%TD*%
D13*
%TO.N,Net-(J1-Pad2)*%
X153000000Y-112000000D03*
%TO.N,Net-(J1-Pad1)*%
X156000000Y-101000000D03*
%TO.N,Net-(J4-Pad1)*%
X157000000Y-93000000D03*
%TO.N,Net-(J11-Pad1)*%
X157000000Y-76000000D03*
%TO.N,Net-(J13-Pad2)*%
X149000000Y-104000000D03*
%TD*%
D14*
%TO.N,Net-(J1-Pad2)*%
X164090001Y-59255999D02*
X164090001Y-71149999D01*
X158589999Y-58449999D02*
X163284001Y-58449999D01*
X163284001Y-58449999D02*
X164090001Y-59255999D01*
X158449999Y-58589999D02*
X158589999Y-58449999D01*
X158449999Y-61410001D02*
X158449999Y-58589999D01*
X141310001Y-78549999D02*
X158449999Y-61410001D01*
X164090001Y-71149999D02*
X162540000Y-72700000D01*
X139933999Y-78549999D02*
X141310001Y-78549999D01*
X139049999Y-79433999D02*
X139933999Y-78549999D01*
X143983998Y-112000000D02*
X139049999Y-107066001D01*
X139049999Y-107066001D02*
X139049999Y-79433999D01*
X153000000Y-112000000D02*
X143983998Y-112000000D01*
%TO.N,Net-(J1-Pad1)*%
X140750000Y-106250000D02*
X150750000Y-106250000D01*
X150750000Y-106250000D02*
X154000000Y-103000000D01*
X154000000Y-103000000D02*
X156000000Y-101000000D01*
X156000000Y-101000000D02*
X156000000Y-101000000D01*
%TO.N,Net-(J4-Pad1)*%
X152250000Y-95250000D02*
X154750000Y-95250000D01*
X154750000Y-95250000D02*
X157000000Y-93000000D01*
X157000000Y-93000000D02*
X157000000Y-93000000D01*
D15*
X161364999Y-101815001D02*
X161364999Y-106895001D01*
X161364999Y-106895001D02*
X160000000Y-108260000D01*
X162540000Y-100640000D02*
X161364999Y-101815001D01*
X160000000Y-109500000D02*
X155250000Y-114250000D01*
X160000000Y-108260000D02*
X160000000Y-109500000D01*
D14*
X155250000Y-115750000D02*
X151750000Y-119250000D01*
X155250000Y-114250000D02*
X155250000Y-115750000D01*
X151750000Y-117750000D02*
X148250000Y-114250000D01*
X151750000Y-119250000D02*
X151750000Y-117750000D01*
X148250000Y-114250000D02*
X141250000Y-114250000D01*
X141250000Y-115750000D02*
X137750000Y-119250000D01*
X141250000Y-114250000D02*
X141250000Y-115750000D01*
X137750000Y-117750000D02*
X134250000Y-114250000D01*
X137750000Y-119250000D02*
X137750000Y-117750000D01*
%TO.N,Net-(J10-Pad1)*%
X158449999Y-78769999D02*
X160000000Y-80320000D01*
X158449999Y-75752929D02*
X158449999Y-78769999D01*
X157497060Y-74799990D02*
X158449999Y-75752929D01*
X156502940Y-74799990D02*
X157497060Y-74799990D01*
X150752931Y-80549999D02*
X156502940Y-74799990D01*
X141049999Y-80549999D02*
X150752931Y-80549999D01*
X140750000Y-80250000D02*
X141049999Y-80549999D01*
D15*
X161175001Y-79144999D02*
X160000000Y-80320000D01*
X161175001Y-61175001D02*
X161175001Y-79144999D01*
X160000000Y-60000000D02*
X161175001Y-61175001D01*
D14*
%TO.N,Net-(J11-Pad1)*%
X157000000Y-90020000D02*
X160000000Y-93020000D01*
X157000000Y-76000000D02*
X157000000Y-90020000D01*
%TO.N,Net-(J12-Pad2)*%
X158449999Y-66630001D02*
X160000000Y-65080000D01*
X158449999Y-70066003D02*
X158449999Y-66630001D01*
X153766002Y-74750000D02*
X158449999Y-70066003D01*
X149750000Y-74750000D02*
X153766002Y-74750000D01*
%TO.N,Net-(J12-Pad1)*%
X154750000Y-68035998D02*
X160000000Y-62785998D01*
X160000000Y-62785998D02*
X160000000Y-62540000D01*
X154750000Y-71250000D02*
X154750000Y-68035998D01*
%TO.N,Net-(J13-Pad2)*%
X160000000Y-100640000D02*
X158360000Y-100640000D01*
X157519991Y-99799991D02*
X153200009Y-99799991D01*
X158360000Y-100640000D02*
X157519991Y-99799991D01*
X153200009Y-99799991D02*
X149000000Y-104000000D01*
X149000000Y-104000000D02*
X149000000Y-104000000D01*
D15*
%TO.N,Net-(J13-Pad1)*%
X161364999Y-99275001D02*
X162540000Y-98100000D01*
X161364999Y-101014003D02*
X161364999Y-99275001D01*
X160564001Y-101815001D02*
X161364999Y-101014003D01*
X159184999Y-101815001D02*
X160564001Y-101815001D01*
X154750000Y-106250000D02*
X159184999Y-101815001D01*
%TD*%
D16*
G36*
X117966353Y-57685000D02*
G01*
X157749533Y-57685000D01*
X157748003Y-57686864D01*
X157686859Y-57748008D01*
X157643551Y-57783550D01*
X157501716Y-57956376D01*
X157466710Y-58021868D01*
X157396323Y-58153553D01*
X157331422Y-58367501D01*
X157309508Y-58589999D01*
X157315000Y-58645760D01*
X157314999Y-60939868D01*
X156348649Y-61906218D01*
X156322168Y-61773088D01*
X156198918Y-61475537D01*
X156019987Y-61207748D01*
X155792252Y-60980013D01*
X155524463Y-60801082D01*
X155226912Y-60677832D01*
X154911033Y-60615000D01*
X154588967Y-60615000D01*
X154273088Y-60677832D01*
X153975537Y-60801082D01*
X153707748Y-60980013D01*
X153480013Y-61207748D01*
X153301082Y-61475537D01*
X153177832Y-61773088D01*
X153115000Y-62088967D01*
X153115000Y-62411033D01*
X153177832Y-62726912D01*
X153301082Y-63024463D01*
X153480013Y-63292252D01*
X153707748Y-63519987D01*
X153975537Y-63698918D01*
X154273088Y-63822168D01*
X154406218Y-63848649D01*
X140839870Y-77414999D01*
X139989751Y-77414999D01*
X139933999Y-77409508D01*
X139878247Y-77414999D01*
X139711500Y-77431422D01*
X139497552Y-77496323D01*
X139300376Y-77601715D01*
X139127550Y-77743550D01*
X139092010Y-77786856D01*
X138286859Y-78592008D01*
X138243551Y-78627550D01*
X138101716Y-78800376D01*
X138073720Y-78852753D01*
X137996323Y-78997553D01*
X137931422Y-79211501D01*
X137909508Y-79433999D01*
X137915000Y-79489761D01*
X137914999Y-107010250D01*
X137909508Y-107066001D01*
X137914999Y-107121752D01*
X137931422Y-107288499D01*
X137996323Y-107502447D01*
X138101715Y-107699624D01*
X138243550Y-107872450D01*
X138286864Y-107907997D01*
X143142007Y-112763141D01*
X143177549Y-112806449D01*
X143350375Y-112948284D01*
X143547551Y-113053676D01*
X143749707Y-113115000D01*
X142427239Y-113115000D01*
X142292252Y-112980013D01*
X142024463Y-112801082D01*
X141726912Y-112677832D01*
X141411033Y-112615000D01*
X141088967Y-112615000D01*
X140773088Y-112677832D01*
X140475537Y-112801082D01*
X140207748Y-112980013D01*
X139980013Y-113207748D01*
X139801082Y-113475537D01*
X139677832Y-113773088D01*
X139615000Y-114088967D01*
X139615000Y-114411033D01*
X139677832Y-114726912D01*
X139801082Y-115024463D01*
X139980013Y-115292252D01*
X140041315Y-115353554D01*
X138500000Y-116894868D01*
X135885000Y-114279869D01*
X135885000Y-114088967D01*
X135822168Y-113773088D01*
X135698918Y-113475537D01*
X135519987Y-113207748D01*
X135292252Y-112980013D01*
X135024463Y-112801082D01*
X134726912Y-112677832D01*
X134411033Y-112615000D01*
X134088967Y-112615000D01*
X133773088Y-112677832D01*
X133475537Y-112801082D01*
X133207748Y-112980013D01*
X132980013Y-113207748D01*
X132801082Y-113475537D01*
X132677832Y-113773088D01*
X132615000Y-114088967D01*
X132615000Y-114411033D01*
X132677832Y-114726912D01*
X132801082Y-115024463D01*
X132980013Y-115292252D01*
X133207748Y-115519987D01*
X133475537Y-115698918D01*
X133773088Y-115822168D01*
X134088967Y-115885000D01*
X134279869Y-115885000D01*
X136541315Y-118146446D01*
X136480013Y-118207748D01*
X136301082Y-118475537D01*
X136177832Y-118773088D01*
X136115000Y-119088967D01*
X136115000Y-119411033D01*
X136177832Y-119726912D01*
X136301082Y-120024463D01*
X136480013Y-120292252D01*
X136707748Y-120519987D01*
X136975537Y-120698918D01*
X137273088Y-120822168D01*
X137588967Y-120885000D01*
X137911033Y-120885000D01*
X138226912Y-120822168D01*
X138524463Y-120698918D01*
X138792252Y-120519987D01*
X139019987Y-120292252D01*
X139198918Y-120024463D01*
X139322168Y-119726912D01*
X139385000Y-119411033D01*
X139385000Y-119220131D01*
X142013141Y-116591991D01*
X142056449Y-116556449D01*
X142198284Y-116383623D01*
X142303676Y-116186447D01*
X142368577Y-115972499D01*
X142385000Y-115805752D01*
X142385000Y-115805743D01*
X142390490Y-115750001D01*
X142385000Y-115694259D01*
X142385000Y-115427239D01*
X142427239Y-115385000D01*
X147072761Y-115385000D01*
X147207748Y-115519987D01*
X147475537Y-115698918D01*
X147773088Y-115822168D01*
X148088967Y-115885000D01*
X148279869Y-115885000D01*
X150541315Y-118146446D01*
X150480013Y-118207748D01*
X150301082Y-118475537D01*
X150177832Y-118773088D01*
X150115000Y-119088967D01*
X150115000Y-119411033D01*
X150177832Y-119726912D01*
X150301082Y-120024463D01*
X150480013Y-120292252D01*
X150707748Y-120519987D01*
X150975537Y-120698918D01*
X151273088Y-120822168D01*
X151588967Y-120885000D01*
X151911033Y-120885000D01*
X152226912Y-120822168D01*
X152524463Y-120698918D01*
X152792252Y-120519987D01*
X153019987Y-120292252D01*
X153198918Y-120024463D01*
X153322168Y-119726912D01*
X153385000Y-119411033D01*
X153385000Y-119220131D01*
X156013141Y-116591991D01*
X156056449Y-116556449D01*
X156198284Y-116383623D01*
X156303676Y-116186447D01*
X156368577Y-115972499D01*
X156385000Y-115805752D01*
X156385000Y-115805743D01*
X156390490Y-115750001D01*
X156385000Y-115694259D01*
X156385000Y-115427239D01*
X156519987Y-115292252D01*
X156698918Y-115024463D01*
X156822168Y-114726912D01*
X156885000Y-114411033D01*
X156885000Y-114088967D01*
X156822168Y-113773088D01*
X156816177Y-113758624D01*
X160511008Y-110063795D01*
X160540001Y-110040001D01*
X160563795Y-110011008D01*
X160563799Y-110011004D01*
X160634973Y-109924277D01*
X160634974Y-109924276D01*
X160705546Y-109792247D01*
X160749003Y-109648986D01*
X160759911Y-109538238D01*
X160946632Y-109413475D01*
X161153475Y-109206632D01*
X161270000Y-109032240D01*
X161386525Y-109206632D01*
X161593368Y-109413475D01*
X161836589Y-109575990D01*
X162106842Y-109687932D01*
X162393740Y-109745000D01*
X162686260Y-109745000D01*
X162973158Y-109687932D01*
X163243411Y-109575990D01*
X163486632Y-109413475D01*
X163693475Y-109206632D01*
X163855990Y-108963411D01*
X163967932Y-108693158D01*
X164025000Y-108406260D01*
X164025000Y-108113740D01*
X163967932Y-107826842D01*
X163855990Y-107556589D01*
X163693475Y-107313368D01*
X163486632Y-107106525D01*
X163312240Y-106990000D01*
X163486632Y-106873475D01*
X163693475Y-106666632D01*
X163855990Y-106423411D01*
X163967932Y-106153158D01*
X164025000Y-105866260D01*
X164025000Y-105573740D01*
X163967932Y-105286842D01*
X163855990Y-105016589D01*
X163693475Y-104773368D01*
X163486632Y-104566525D01*
X163312240Y-104450000D01*
X163486632Y-104333475D01*
X163693475Y-104126632D01*
X163855990Y-103883411D01*
X163967932Y-103613158D01*
X164025000Y-103326260D01*
X164025000Y-103033740D01*
X163967932Y-102746842D01*
X163855990Y-102476589D01*
X163693475Y-102233368D01*
X163486632Y-102026525D01*
X163312240Y-101910000D01*
X163486632Y-101793475D01*
X163693475Y-101586632D01*
X163855990Y-101343411D01*
X163967932Y-101073158D01*
X164025000Y-100786260D01*
X164025000Y-100493740D01*
X163967932Y-100206842D01*
X163855990Y-99936589D01*
X163693475Y-99693368D01*
X163486632Y-99486525D01*
X163312240Y-99370000D01*
X163486632Y-99253475D01*
X163693475Y-99046632D01*
X163855990Y-98803411D01*
X163967932Y-98533158D01*
X164025000Y-98246260D01*
X164025000Y-97953740D01*
X163967932Y-97666842D01*
X163855990Y-97396589D01*
X163693475Y-97153368D01*
X163486632Y-96946525D01*
X163312240Y-96830000D01*
X163486632Y-96713475D01*
X163693475Y-96506632D01*
X163855990Y-96263411D01*
X163967932Y-95993158D01*
X164025000Y-95706260D01*
X164025000Y-95413740D01*
X163967932Y-95126842D01*
X163855990Y-94856589D01*
X163693475Y-94613368D01*
X163486632Y-94406525D01*
X163312240Y-94290000D01*
X163486632Y-94173475D01*
X163693475Y-93966632D01*
X163855990Y-93723411D01*
X163967932Y-93453158D01*
X164025000Y-93166260D01*
X164025000Y-92873740D01*
X163967932Y-92586842D01*
X163855990Y-92316589D01*
X163693475Y-92073368D01*
X163486632Y-91866525D01*
X163312240Y-91750000D01*
X163486632Y-91633475D01*
X163693475Y-91426632D01*
X163855990Y-91183411D01*
X163967932Y-90913158D01*
X164025000Y-90626260D01*
X164025000Y-90333740D01*
X163967932Y-90046842D01*
X163855990Y-89776589D01*
X163693475Y-89533368D01*
X163486632Y-89326525D01*
X163312240Y-89210000D01*
X163486632Y-89093475D01*
X163693475Y-88886632D01*
X163855990Y-88643411D01*
X163967932Y-88373158D01*
X164025000Y-88086260D01*
X164025000Y-87793740D01*
X163967932Y-87506842D01*
X163855990Y-87236589D01*
X163693475Y-86993368D01*
X163486632Y-86786525D01*
X163312240Y-86670000D01*
X163486632Y-86553475D01*
X163693475Y-86346632D01*
X163855990Y-86103411D01*
X163967932Y-85833158D01*
X164025000Y-85546260D01*
X164025000Y-85253740D01*
X163967932Y-84966842D01*
X163855990Y-84696589D01*
X163693475Y-84453368D01*
X163486632Y-84246525D01*
X163312240Y-84130000D01*
X163486632Y-84013475D01*
X163693475Y-83806632D01*
X163855990Y-83563411D01*
X163967932Y-83293158D01*
X164025000Y-83006260D01*
X164025000Y-82713740D01*
X163967932Y-82426842D01*
X163855990Y-82156589D01*
X163693475Y-81913368D01*
X163486632Y-81706525D01*
X163312240Y-81590000D01*
X163486632Y-81473475D01*
X163693475Y-81266632D01*
X163855990Y-81023411D01*
X163967932Y-80753158D01*
X164025000Y-80466260D01*
X164025000Y-80173740D01*
X163967932Y-79886842D01*
X163855990Y-79616589D01*
X163693475Y-79373368D01*
X163486632Y-79166525D01*
X163312240Y-79050000D01*
X163486632Y-78933475D01*
X163693475Y-78726632D01*
X163855990Y-78483411D01*
X163967932Y-78213158D01*
X164025000Y-77926260D01*
X164025000Y-77633740D01*
X163967932Y-77346842D01*
X163855990Y-77076589D01*
X163693475Y-76833368D01*
X163486632Y-76626525D01*
X163312240Y-76510000D01*
X163486632Y-76393475D01*
X163693475Y-76186632D01*
X163855990Y-75943411D01*
X163967932Y-75673158D01*
X164025000Y-75386260D01*
X164025000Y-75093740D01*
X163967932Y-74806842D01*
X163855990Y-74536589D01*
X163693475Y-74293368D01*
X163486632Y-74086525D01*
X163312240Y-73970000D01*
X163486632Y-73853475D01*
X163693475Y-73646632D01*
X163855990Y-73403411D01*
X163967932Y-73133158D01*
X164025000Y-72846260D01*
X164025000Y-72820131D01*
X164315000Y-72530131D01*
X164315001Y-123033647D01*
X164324289Y-123127950D01*
X164311375Y-123259660D01*
X164235965Y-123509429D01*
X164113477Y-123739794D01*
X163948579Y-123941979D01*
X163747546Y-124108288D01*
X163518046Y-124232378D01*
X163268805Y-124309531D01*
X163128181Y-124324311D01*
X163033647Y-124315000D01*
X116966353Y-124315000D01*
X116872045Y-124324289D01*
X116740340Y-124311375D01*
X116490571Y-124235965D01*
X116260206Y-124113477D01*
X116058021Y-123948579D01*
X115891712Y-123747546D01*
X115767622Y-123518046D01*
X115690469Y-123268805D01*
X115660000Y-122978911D01*
X115660000Y-109588967D01*
X134115000Y-109588967D01*
X134115000Y-109911033D01*
X134177832Y-110226912D01*
X134301082Y-110524463D01*
X134480013Y-110792252D01*
X134707748Y-111019987D01*
X134975537Y-111198918D01*
X135273088Y-111322168D01*
X135588967Y-111385000D01*
X135911033Y-111385000D01*
X136226912Y-111322168D01*
X136524463Y-111198918D01*
X136792252Y-111019987D01*
X137019987Y-110792252D01*
X137198918Y-110524463D01*
X137322168Y-110226912D01*
X137385000Y-109911033D01*
X137385000Y-109588967D01*
X137322168Y-109273088D01*
X137198918Y-108975537D01*
X137019987Y-108707748D01*
X136792252Y-108480013D01*
X136524463Y-108301082D01*
X136226912Y-108177832D01*
X135911033Y-108115000D01*
X135588967Y-108115000D01*
X135273088Y-108177832D01*
X134975537Y-108301082D01*
X134707748Y-108480013D01*
X134480013Y-108707748D01*
X134301082Y-108975537D01*
X134177832Y-109273088D01*
X134115000Y-109588967D01*
X115660000Y-109588967D01*
X115660000Y-100088967D01*
X125115000Y-100088967D01*
X125115000Y-100411033D01*
X125177832Y-100726912D01*
X125301082Y-101024463D01*
X125480013Y-101292252D01*
X125707748Y-101519987D01*
X125975537Y-101698918D01*
X126273088Y-101822168D01*
X126588967Y-101885000D01*
X126911033Y-101885000D01*
X127226912Y-101822168D01*
X127524463Y-101698918D01*
X127792252Y-101519987D01*
X128019987Y-101292252D01*
X128198918Y-101024463D01*
X128322168Y-100726912D01*
X128385000Y-100411033D01*
X128385000Y-100088967D01*
X128322168Y-99773088D01*
X128198918Y-99475537D01*
X128019987Y-99207748D01*
X127792252Y-98980013D01*
X127524463Y-98801082D01*
X127226912Y-98677832D01*
X126911033Y-98615000D01*
X126588967Y-98615000D01*
X126273088Y-98677832D01*
X125975537Y-98801082D01*
X125707748Y-98980013D01*
X125480013Y-99207748D01*
X125301082Y-99475537D01*
X125177832Y-99773088D01*
X125115000Y-100088967D01*
X115660000Y-100088967D01*
X115660000Y-96588967D01*
X120115000Y-96588967D01*
X120115000Y-96911033D01*
X120177832Y-97226912D01*
X120301082Y-97524463D01*
X120480013Y-97792252D01*
X120707748Y-98019987D01*
X120975537Y-98198918D01*
X121273088Y-98322168D01*
X121588967Y-98385000D01*
X121911033Y-98385000D01*
X122226912Y-98322168D01*
X122524463Y-98198918D01*
X122792252Y-98019987D01*
X123019987Y-97792252D01*
X123198918Y-97524463D01*
X123322168Y-97226912D01*
X123385000Y-96911033D01*
X123385000Y-96588967D01*
X134115000Y-96588967D01*
X134115000Y-96911033D01*
X134177832Y-97226912D01*
X134301082Y-97524463D01*
X134480013Y-97792252D01*
X134707748Y-98019987D01*
X134975537Y-98198918D01*
X135273088Y-98322168D01*
X135588967Y-98385000D01*
X135911033Y-98385000D01*
X136226912Y-98322168D01*
X136524463Y-98198918D01*
X136792252Y-98019987D01*
X137019987Y-97792252D01*
X137198918Y-97524463D01*
X137322168Y-97226912D01*
X137385000Y-96911033D01*
X137385000Y-96588967D01*
X137322168Y-96273088D01*
X137198918Y-95975537D01*
X137019987Y-95707748D01*
X136792252Y-95480013D01*
X136524463Y-95301082D01*
X136226912Y-95177832D01*
X135911033Y-95115000D01*
X135588967Y-95115000D01*
X135273088Y-95177832D01*
X134975537Y-95301082D01*
X134707748Y-95480013D01*
X134480013Y-95707748D01*
X134301082Y-95975537D01*
X134177832Y-96273088D01*
X134115000Y-96588967D01*
X123385000Y-96588967D01*
X123322168Y-96273088D01*
X123198918Y-95975537D01*
X123019987Y-95707748D01*
X122792252Y-95480013D01*
X122524463Y-95301082D01*
X122226912Y-95177832D01*
X121911033Y-95115000D01*
X121588967Y-95115000D01*
X121273088Y-95177832D01*
X120975537Y-95301082D01*
X120707748Y-95480013D01*
X120480013Y-95707748D01*
X120301082Y-95975537D01*
X120177832Y-96273088D01*
X120115000Y-96588967D01*
X115660000Y-96588967D01*
X115660000Y-93088967D01*
X125115000Y-93088967D01*
X125115000Y-93411033D01*
X125177832Y-93726912D01*
X125301082Y-94024463D01*
X125480013Y-94292252D01*
X125707748Y-94519987D01*
X125975537Y-94698918D01*
X126273088Y-94822168D01*
X126588967Y-94885000D01*
X126911033Y-94885000D01*
X127226912Y-94822168D01*
X127524463Y-94698918D01*
X127792252Y-94519987D01*
X128019987Y-94292252D01*
X128198918Y-94024463D01*
X128322168Y-93726912D01*
X128385000Y-93411033D01*
X128385000Y-93088967D01*
X128322168Y-92773088D01*
X128198918Y-92475537D01*
X128019987Y-92207748D01*
X127792252Y-91980013D01*
X127524463Y-91801082D01*
X127226912Y-91677832D01*
X126911033Y-91615000D01*
X126588967Y-91615000D01*
X126273088Y-91677832D01*
X125975537Y-91801082D01*
X125707748Y-91980013D01*
X125480013Y-92207748D01*
X125301082Y-92475537D01*
X125177832Y-92773088D01*
X125115000Y-93088967D01*
X115660000Y-93088967D01*
X115660000Y-87088967D01*
X125115000Y-87088967D01*
X125115000Y-87411033D01*
X125177832Y-87726912D01*
X125301082Y-88024463D01*
X125480013Y-88292252D01*
X125707748Y-88519987D01*
X125975537Y-88698918D01*
X126273088Y-88822168D01*
X126588967Y-88885000D01*
X126911033Y-88885000D01*
X127226912Y-88822168D01*
X127524463Y-88698918D01*
X127792252Y-88519987D01*
X128019987Y-88292252D01*
X128198918Y-88024463D01*
X128322168Y-87726912D01*
X128385000Y-87411033D01*
X128385000Y-87088967D01*
X128322168Y-86773088D01*
X128198918Y-86475537D01*
X128019987Y-86207748D01*
X127792252Y-85980013D01*
X127524463Y-85801082D01*
X127226912Y-85677832D01*
X126911033Y-85615000D01*
X126588967Y-85615000D01*
X126273088Y-85677832D01*
X125975537Y-85801082D01*
X125707748Y-85980013D01*
X125480013Y-86207748D01*
X125301082Y-86475537D01*
X125177832Y-86773088D01*
X125115000Y-87088967D01*
X115660000Y-87088967D01*
X115660000Y-83588967D01*
X120115000Y-83588967D01*
X120115000Y-83911033D01*
X120177832Y-84226912D01*
X120301082Y-84524463D01*
X120480013Y-84792252D01*
X120707748Y-85019987D01*
X120975537Y-85198918D01*
X121273088Y-85322168D01*
X121588967Y-85385000D01*
X121911033Y-85385000D01*
X122226912Y-85322168D01*
X122524463Y-85198918D01*
X122792252Y-85019987D01*
X123019987Y-84792252D01*
X123198918Y-84524463D01*
X123322168Y-84226912D01*
X123385000Y-83911033D01*
X123385000Y-83588967D01*
X134115000Y-83588967D01*
X134115000Y-83911033D01*
X134177832Y-84226912D01*
X134301082Y-84524463D01*
X134480013Y-84792252D01*
X134707748Y-85019987D01*
X134975537Y-85198918D01*
X135273088Y-85322168D01*
X135588967Y-85385000D01*
X135911033Y-85385000D01*
X136226912Y-85322168D01*
X136524463Y-85198918D01*
X136792252Y-85019987D01*
X137019987Y-84792252D01*
X137198918Y-84524463D01*
X137322168Y-84226912D01*
X137385000Y-83911033D01*
X137385000Y-83588967D01*
X137322168Y-83273088D01*
X137198918Y-82975537D01*
X137019987Y-82707748D01*
X136792252Y-82480013D01*
X136524463Y-82301082D01*
X136226912Y-82177832D01*
X135911033Y-82115000D01*
X135588967Y-82115000D01*
X135273088Y-82177832D01*
X134975537Y-82301082D01*
X134707748Y-82480013D01*
X134480013Y-82707748D01*
X134301082Y-82975537D01*
X134177832Y-83273088D01*
X134115000Y-83588967D01*
X123385000Y-83588967D01*
X123322168Y-83273088D01*
X123198918Y-82975537D01*
X123019987Y-82707748D01*
X122792252Y-82480013D01*
X122524463Y-82301082D01*
X122226912Y-82177832D01*
X121911033Y-82115000D01*
X121588967Y-82115000D01*
X121273088Y-82177832D01*
X120975537Y-82301082D01*
X120707748Y-82480013D01*
X120480013Y-82707748D01*
X120301082Y-82975537D01*
X120177832Y-83273088D01*
X120115000Y-83588967D01*
X115660000Y-83588967D01*
X115660000Y-80088967D01*
X125115000Y-80088967D01*
X125115000Y-80411033D01*
X125177832Y-80726912D01*
X125301082Y-81024463D01*
X125480013Y-81292252D01*
X125707748Y-81519987D01*
X125975537Y-81698918D01*
X126273088Y-81822168D01*
X126588967Y-81885000D01*
X126911033Y-81885000D01*
X127226912Y-81822168D01*
X127524463Y-81698918D01*
X127792252Y-81519987D01*
X128019987Y-81292252D01*
X128198918Y-81024463D01*
X128322168Y-80726912D01*
X128385000Y-80411033D01*
X128385000Y-80088967D01*
X128322168Y-79773088D01*
X128198918Y-79475537D01*
X128019987Y-79207748D01*
X127792252Y-78980013D01*
X127524463Y-78801082D01*
X127226912Y-78677832D01*
X126911033Y-78615000D01*
X126588967Y-78615000D01*
X126273088Y-78677832D01*
X125975537Y-78801082D01*
X125707748Y-78980013D01*
X125480013Y-79207748D01*
X125301082Y-79475537D01*
X125177832Y-79773088D01*
X125115000Y-80088967D01*
X115660000Y-80088967D01*
X115660000Y-74588967D01*
X120115000Y-74588967D01*
X120115000Y-74911033D01*
X120177832Y-75226912D01*
X120301082Y-75524463D01*
X120480013Y-75792252D01*
X120707748Y-76019987D01*
X120975537Y-76198918D01*
X121273088Y-76322168D01*
X121588967Y-76385000D01*
X121911033Y-76385000D01*
X122226912Y-76322168D01*
X122524463Y-76198918D01*
X122792252Y-76019987D01*
X123019987Y-75792252D01*
X123198918Y-75524463D01*
X123322168Y-75226912D01*
X123385000Y-74911033D01*
X123385000Y-74588967D01*
X134115000Y-74588967D01*
X134115000Y-74911033D01*
X134177832Y-75226912D01*
X134301082Y-75524463D01*
X134480013Y-75792252D01*
X134707748Y-76019987D01*
X134975537Y-76198918D01*
X135273088Y-76322168D01*
X135588967Y-76385000D01*
X135911033Y-76385000D01*
X136226912Y-76322168D01*
X136524463Y-76198918D01*
X136792252Y-76019987D01*
X137019987Y-75792252D01*
X137198918Y-75524463D01*
X137322168Y-75226912D01*
X137385000Y-74911033D01*
X137385000Y-74588967D01*
X137322168Y-74273088D01*
X137198918Y-73975537D01*
X137019987Y-73707748D01*
X136792252Y-73480013D01*
X136524463Y-73301082D01*
X136226912Y-73177832D01*
X135911033Y-73115000D01*
X135588967Y-73115000D01*
X135273088Y-73177832D01*
X134975537Y-73301082D01*
X134707748Y-73480013D01*
X134480013Y-73707748D01*
X134301082Y-73975537D01*
X134177832Y-74273088D01*
X134115000Y-74588967D01*
X123385000Y-74588967D01*
X123322168Y-74273088D01*
X123198918Y-73975537D01*
X123019987Y-73707748D01*
X122792252Y-73480013D01*
X122524463Y-73301082D01*
X122226912Y-73177832D01*
X121911033Y-73115000D01*
X121588967Y-73115000D01*
X121273088Y-73177832D01*
X120975537Y-73301082D01*
X120707748Y-73480013D01*
X120480013Y-73707748D01*
X120301082Y-73975537D01*
X120177832Y-74273088D01*
X120115000Y-74588967D01*
X115660000Y-74588967D01*
X115660000Y-71088967D01*
X125115000Y-71088967D01*
X125115000Y-71411033D01*
X125177832Y-71726912D01*
X125301082Y-72024463D01*
X125480013Y-72292252D01*
X125707748Y-72519987D01*
X125975537Y-72698918D01*
X126273088Y-72822168D01*
X126588967Y-72885000D01*
X126911033Y-72885000D01*
X127226912Y-72822168D01*
X127524463Y-72698918D01*
X127792252Y-72519987D01*
X128019987Y-72292252D01*
X128198918Y-72024463D01*
X128322168Y-71726912D01*
X128385000Y-71411033D01*
X128385000Y-71088967D01*
X139115000Y-71088967D01*
X139115000Y-71411033D01*
X139177832Y-71726912D01*
X139301082Y-72024463D01*
X139480013Y-72292252D01*
X139707748Y-72519987D01*
X139975537Y-72698918D01*
X140273088Y-72822168D01*
X140588967Y-72885000D01*
X140911033Y-72885000D01*
X141226912Y-72822168D01*
X141524463Y-72698918D01*
X141792252Y-72519987D01*
X142019987Y-72292252D01*
X142198918Y-72024463D01*
X142322168Y-71726912D01*
X142385000Y-71411033D01*
X142385000Y-71088967D01*
X142322168Y-70773088D01*
X142198918Y-70475537D01*
X142019987Y-70207748D01*
X141792252Y-69980013D01*
X141524463Y-69801082D01*
X141226912Y-69677832D01*
X140911033Y-69615000D01*
X140588967Y-69615000D01*
X140273088Y-69677832D01*
X139975537Y-69801082D01*
X139707748Y-69980013D01*
X139480013Y-70207748D01*
X139301082Y-70475537D01*
X139177832Y-70773088D01*
X139115000Y-71088967D01*
X128385000Y-71088967D01*
X128322168Y-70773088D01*
X128198918Y-70475537D01*
X128019987Y-70207748D01*
X127792252Y-69980013D01*
X127524463Y-69801082D01*
X127226912Y-69677832D01*
X126911033Y-69615000D01*
X126588967Y-69615000D01*
X126273088Y-69677832D01*
X125975537Y-69801082D01*
X125707748Y-69980013D01*
X125480013Y-70207748D01*
X125301082Y-70475537D01*
X125177832Y-70773088D01*
X125115000Y-71088967D01*
X115660000Y-71088967D01*
X115660000Y-65588967D01*
X120115000Y-65588967D01*
X120115000Y-65911033D01*
X120177832Y-66226912D01*
X120301082Y-66524463D01*
X120480013Y-66792252D01*
X120707748Y-67019987D01*
X120975537Y-67198918D01*
X121273088Y-67322168D01*
X121588967Y-67385000D01*
X121911033Y-67385000D01*
X122226912Y-67322168D01*
X122524463Y-67198918D01*
X122792252Y-67019987D01*
X123019987Y-66792252D01*
X123198918Y-66524463D01*
X123322168Y-66226912D01*
X123385000Y-65911033D01*
X123385000Y-65588967D01*
X134115000Y-65588967D01*
X134115000Y-65911033D01*
X134177832Y-66226912D01*
X134301082Y-66524463D01*
X134480013Y-66792252D01*
X134707748Y-67019987D01*
X134975537Y-67198918D01*
X135273088Y-67322168D01*
X135588967Y-67385000D01*
X135911033Y-67385000D01*
X136226912Y-67322168D01*
X136524463Y-67198918D01*
X136792252Y-67019987D01*
X137019987Y-66792252D01*
X137198918Y-66524463D01*
X137322168Y-66226912D01*
X137385000Y-65911033D01*
X137385000Y-65588967D01*
X148115000Y-65588967D01*
X148115000Y-65911033D01*
X148177832Y-66226912D01*
X148301082Y-66524463D01*
X148480013Y-66792252D01*
X148707748Y-67019987D01*
X148975537Y-67198918D01*
X149273088Y-67322168D01*
X149588967Y-67385000D01*
X149911033Y-67385000D01*
X150226912Y-67322168D01*
X150524463Y-67198918D01*
X150792252Y-67019987D01*
X151019987Y-66792252D01*
X151198918Y-66524463D01*
X151322168Y-66226912D01*
X151385000Y-65911033D01*
X151385000Y-65588967D01*
X151322168Y-65273088D01*
X151198918Y-64975537D01*
X151019987Y-64707748D01*
X150792252Y-64480013D01*
X150524463Y-64301082D01*
X150226912Y-64177832D01*
X149911033Y-64115000D01*
X149588967Y-64115000D01*
X149273088Y-64177832D01*
X148975537Y-64301082D01*
X148707748Y-64480013D01*
X148480013Y-64707748D01*
X148301082Y-64975537D01*
X148177832Y-65273088D01*
X148115000Y-65588967D01*
X137385000Y-65588967D01*
X137322168Y-65273088D01*
X137198918Y-64975537D01*
X137019987Y-64707748D01*
X136792252Y-64480013D01*
X136524463Y-64301082D01*
X136226912Y-64177832D01*
X135911033Y-64115000D01*
X135588967Y-64115000D01*
X135273088Y-64177832D01*
X134975537Y-64301082D01*
X134707748Y-64480013D01*
X134480013Y-64707748D01*
X134301082Y-64975537D01*
X134177832Y-65273088D01*
X134115000Y-65588967D01*
X123385000Y-65588967D01*
X123322168Y-65273088D01*
X123198918Y-64975537D01*
X123019987Y-64707748D01*
X122792252Y-64480013D01*
X122524463Y-64301082D01*
X122226912Y-64177832D01*
X121911033Y-64115000D01*
X121588967Y-64115000D01*
X121273088Y-64177832D01*
X120975537Y-64301082D01*
X120707748Y-64480013D01*
X120480013Y-64707748D01*
X120301082Y-64975537D01*
X120177832Y-65273088D01*
X120115000Y-65588967D01*
X115660000Y-65588967D01*
X115660000Y-62088967D01*
X125115000Y-62088967D01*
X125115000Y-62411033D01*
X125177832Y-62726912D01*
X125301082Y-63024463D01*
X125480013Y-63292252D01*
X125707748Y-63519987D01*
X125975537Y-63698918D01*
X126273088Y-63822168D01*
X126588967Y-63885000D01*
X126911033Y-63885000D01*
X127226912Y-63822168D01*
X127524463Y-63698918D01*
X127792252Y-63519987D01*
X128019987Y-63292252D01*
X128198918Y-63024463D01*
X128322168Y-62726912D01*
X128385000Y-62411033D01*
X128385000Y-62088967D01*
X139115000Y-62088967D01*
X139115000Y-62411033D01*
X139177832Y-62726912D01*
X139301082Y-63024463D01*
X139480013Y-63292252D01*
X139707748Y-63519987D01*
X139975537Y-63698918D01*
X140273088Y-63822168D01*
X140588967Y-63885000D01*
X140911033Y-63885000D01*
X141226912Y-63822168D01*
X141524463Y-63698918D01*
X141792252Y-63519987D01*
X142019987Y-63292252D01*
X142198918Y-63024463D01*
X142322168Y-62726912D01*
X142385000Y-62411033D01*
X142385000Y-62088967D01*
X142322168Y-61773088D01*
X142198918Y-61475537D01*
X142019987Y-61207748D01*
X141792252Y-60980013D01*
X141524463Y-60801082D01*
X141226912Y-60677832D01*
X140911033Y-60615000D01*
X140588967Y-60615000D01*
X140273088Y-60677832D01*
X139975537Y-60801082D01*
X139707748Y-60980013D01*
X139480013Y-61207748D01*
X139301082Y-61475537D01*
X139177832Y-61773088D01*
X139115000Y-62088967D01*
X128385000Y-62088967D01*
X128322168Y-61773088D01*
X128198918Y-61475537D01*
X128019987Y-61207748D01*
X127792252Y-60980013D01*
X127524463Y-60801082D01*
X127226912Y-60677832D01*
X126911033Y-60615000D01*
X126588967Y-60615000D01*
X126273088Y-60677832D01*
X125975537Y-60801082D01*
X125707748Y-60980013D01*
X125480013Y-61207748D01*
X125301082Y-61475537D01*
X125177832Y-61773088D01*
X125115000Y-62088967D01*
X115660000Y-62088967D01*
X115660000Y-60032279D01*
X115707670Y-59546107D01*
X115839489Y-59109502D01*
X116053600Y-58706815D01*
X116341848Y-58353388D01*
X116693261Y-58062673D01*
X117094439Y-57845758D01*
X117530113Y-57710894D01*
X117868335Y-57675346D01*
X117966353Y-57685000D01*
G37*
X117966353Y-57685000D02*
X157749533Y-57685000D01*
X157748003Y-57686864D01*
X157686859Y-57748008D01*
X157643551Y-57783550D01*
X157501716Y-57956376D01*
X157466710Y-58021868D01*
X157396323Y-58153553D01*
X157331422Y-58367501D01*
X157309508Y-58589999D01*
X157315000Y-58645760D01*
X157314999Y-60939868D01*
X156348649Y-61906218D01*
X156322168Y-61773088D01*
X156198918Y-61475537D01*
X156019987Y-61207748D01*
X155792252Y-60980013D01*
X155524463Y-60801082D01*
X155226912Y-60677832D01*
X154911033Y-60615000D01*
X154588967Y-60615000D01*
X154273088Y-60677832D01*
X153975537Y-60801082D01*
X153707748Y-60980013D01*
X153480013Y-61207748D01*
X153301082Y-61475537D01*
X153177832Y-61773088D01*
X153115000Y-62088967D01*
X153115000Y-62411033D01*
X153177832Y-62726912D01*
X153301082Y-63024463D01*
X153480013Y-63292252D01*
X153707748Y-63519987D01*
X153975537Y-63698918D01*
X154273088Y-63822168D01*
X154406218Y-63848649D01*
X140839870Y-77414999D01*
X139989751Y-77414999D01*
X139933999Y-77409508D01*
X139878247Y-77414999D01*
X139711500Y-77431422D01*
X139497552Y-77496323D01*
X139300376Y-77601715D01*
X139127550Y-77743550D01*
X139092010Y-77786856D01*
X138286859Y-78592008D01*
X138243551Y-78627550D01*
X138101716Y-78800376D01*
X138073720Y-78852753D01*
X137996323Y-78997553D01*
X137931422Y-79211501D01*
X137909508Y-79433999D01*
X137915000Y-79489761D01*
X137914999Y-107010250D01*
X137909508Y-107066001D01*
X137914999Y-107121752D01*
X137931422Y-107288499D01*
X137996323Y-107502447D01*
X138101715Y-107699624D01*
X138243550Y-107872450D01*
X138286864Y-107907997D01*
X143142007Y-112763141D01*
X143177549Y-112806449D01*
X143350375Y-112948284D01*
X143547551Y-113053676D01*
X143749707Y-113115000D01*
X142427239Y-113115000D01*
X142292252Y-112980013D01*
X142024463Y-112801082D01*
X141726912Y-112677832D01*
X141411033Y-112615000D01*
X141088967Y-112615000D01*
X140773088Y-112677832D01*
X140475537Y-112801082D01*
X140207748Y-112980013D01*
X139980013Y-113207748D01*
X139801082Y-113475537D01*
X139677832Y-113773088D01*
X139615000Y-114088967D01*
X139615000Y-114411033D01*
X139677832Y-114726912D01*
X139801082Y-115024463D01*
X139980013Y-115292252D01*
X140041315Y-115353554D01*
X138500000Y-116894868D01*
X135885000Y-114279869D01*
X135885000Y-114088967D01*
X135822168Y-113773088D01*
X135698918Y-113475537D01*
X135519987Y-113207748D01*
X135292252Y-112980013D01*
X135024463Y-112801082D01*
X134726912Y-112677832D01*
X134411033Y-112615000D01*
X134088967Y-112615000D01*
X133773088Y-112677832D01*
X133475537Y-112801082D01*
X133207748Y-112980013D01*
X132980013Y-113207748D01*
X132801082Y-113475537D01*
X132677832Y-113773088D01*
X132615000Y-114088967D01*
X132615000Y-114411033D01*
X132677832Y-114726912D01*
X132801082Y-115024463D01*
X132980013Y-115292252D01*
X133207748Y-115519987D01*
X133475537Y-115698918D01*
X133773088Y-115822168D01*
X134088967Y-115885000D01*
X134279869Y-115885000D01*
X136541315Y-118146446D01*
X136480013Y-118207748D01*
X136301082Y-118475537D01*
X136177832Y-118773088D01*
X136115000Y-119088967D01*
X136115000Y-119411033D01*
X136177832Y-119726912D01*
X136301082Y-120024463D01*
X136480013Y-120292252D01*
X136707748Y-120519987D01*
X136975537Y-120698918D01*
X137273088Y-120822168D01*
X137588967Y-120885000D01*
X137911033Y-120885000D01*
X138226912Y-120822168D01*
X138524463Y-120698918D01*
X138792252Y-120519987D01*
X139019987Y-120292252D01*
X139198918Y-120024463D01*
X139322168Y-119726912D01*
X139385000Y-119411033D01*
X139385000Y-119220131D01*
X142013141Y-116591991D01*
X142056449Y-116556449D01*
X142198284Y-116383623D01*
X142303676Y-116186447D01*
X142368577Y-115972499D01*
X142385000Y-115805752D01*
X142385000Y-115805743D01*
X142390490Y-115750001D01*
X142385000Y-115694259D01*
X142385000Y-115427239D01*
X142427239Y-115385000D01*
X147072761Y-115385000D01*
X147207748Y-115519987D01*
X147475537Y-115698918D01*
X147773088Y-115822168D01*
X148088967Y-115885000D01*
X148279869Y-115885000D01*
X150541315Y-118146446D01*
X150480013Y-118207748D01*
X150301082Y-118475537D01*
X150177832Y-118773088D01*
X150115000Y-119088967D01*
X150115000Y-119411033D01*
X150177832Y-119726912D01*
X150301082Y-120024463D01*
X150480013Y-120292252D01*
X150707748Y-120519987D01*
X150975537Y-120698918D01*
X151273088Y-120822168D01*
X151588967Y-120885000D01*
X151911033Y-120885000D01*
X152226912Y-120822168D01*
X152524463Y-120698918D01*
X152792252Y-120519987D01*
X153019987Y-120292252D01*
X153198918Y-120024463D01*
X153322168Y-119726912D01*
X153385000Y-119411033D01*
X153385000Y-119220131D01*
X156013141Y-116591991D01*
X156056449Y-116556449D01*
X156198284Y-116383623D01*
X156303676Y-116186447D01*
X156368577Y-115972499D01*
X156385000Y-115805752D01*
X156385000Y-115805743D01*
X156390490Y-115750001D01*
X156385000Y-115694259D01*
X156385000Y-115427239D01*
X156519987Y-115292252D01*
X156698918Y-115024463D01*
X156822168Y-114726912D01*
X156885000Y-114411033D01*
X156885000Y-114088967D01*
X156822168Y-113773088D01*
X156816177Y-113758624D01*
X160511008Y-110063795D01*
X160540001Y-110040001D01*
X160563795Y-110011008D01*
X160563799Y-110011004D01*
X160634973Y-109924277D01*
X160634974Y-109924276D01*
X160705546Y-109792247D01*
X160749003Y-109648986D01*
X160759911Y-109538238D01*
X160946632Y-109413475D01*
X161153475Y-109206632D01*
X161270000Y-109032240D01*
X161386525Y-109206632D01*
X161593368Y-109413475D01*
X161836589Y-109575990D01*
X162106842Y-109687932D01*
X162393740Y-109745000D01*
X162686260Y-109745000D01*
X162973158Y-109687932D01*
X163243411Y-109575990D01*
X163486632Y-109413475D01*
X163693475Y-109206632D01*
X163855990Y-108963411D01*
X163967932Y-108693158D01*
X164025000Y-108406260D01*
X164025000Y-108113740D01*
X163967932Y-107826842D01*
X163855990Y-107556589D01*
X163693475Y-107313368D01*
X163486632Y-107106525D01*
X163312240Y-106990000D01*
X163486632Y-106873475D01*
X163693475Y-106666632D01*
X163855990Y-106423411D01*
X163967932Y-106153158D01*
X164025000Y-105866260D01*
X164025000Y-105573740D01*
X163967932Y-105286842D01*
X163855990Y-105016589D01*
X163693475Y-104773368D01*
X163486632Y-104566525D01*
X163312240Y-104450000D01*
X163486632Y-104333475D01*
X163693475Y-104126632D01*
X163855990Y-103883411D01*
X163967932Y-103613158D01*
X164025000Y-103326260D01*
X164025000Y-103033740D01*
X163967932Y-102746842D01*
X163855990Y-102476589D01*
X163693475Y-102233368D01*
X163486632Y-102026525D01*
X163312240Y-101910000D01*
X163486632Y-101793475D01*
X163693475Y-101586632D01*
X163855990Y-101343411D01*
X163967932Y-101073158D01*
X164025000Y-100786260D01*
X164025000Y-100493740D01*
X163967932Y-100206842D01*
X163855990Y-99936589D01*
X163693475Y-99693368D01*
X163486632Y-99486525D01*
X163312240Y-99370000D01*
X163486632Y-99253475D01*
X163693475Y-99046632D01*
X163855990Y-98803411D01*
X163967932Y-98533158D01*
X164025000Y-98246260D01*
X164025000Y-97953740D01*
X163967932Y-97666842D01*
X163855990Y-97396589D01*
X163693475Y-97153368D01*
X163486632Y-96946525D01*
X163312240Y-96830000D01*
X163486632Y-96713475D01*
X163693475Y-96506632D01*
X163855990Y-96263411D01*
X163967932Y-95993158D01*
X164025000Y-95706260D01*
X164025000Y-95413740D01*
X163967932Y-95126842D01*
X163855990Y-94856589D01*
X163693475Y-94613368D01*
X163486632Y-94406525D01*
X163312240Y-94290000D01*
X163486632Y-94173475D01*
X163693475Y-93966632D01*
X163855990Y-93723411D01*
X163967932Y-93453158D01*
X164025000Y-93166260D01*
X164025000Y-92873740D01*
X163967932Y-92586842D01*
X163855990Y-92316589D01*
X163693475Y-92073368D01*
X163486632Y-91866525D01*
X163312240Y-91750000D01*
X163486632Y-91633475D01*
X163693475Y-91426632D01*
X163855990Y-91183411D01*
X163967932Y-90913158D01*
X164025000Y-90626260D01*
X164025000Y-90333740D01*
X163967932Y-90046842D01*
X163855990Y-89776589D01*
X163693475Y-89533368D01*
X163486632Y-89326525D01*
X163312240Y-89210000D01*
X163486632Y-89093475D01*
X163693475Y-88886632D01*
X163855990Y-88643411D01*
X163967932Y-88373158D01*
X164025000Y-88086260D01*
X164025000Y-87793740D01*
X163967932Y-87506842D01*
X163855990Y-87236589D01*
X163693475Y-86993368D01*
X163486632Y-86786525D01*
X163312240Y-86670000D01*
X163486632Y-86553475D01*
X163693475Y-86346632D01*
X163855990Y-86103411D01*
X163967932Y-85833158D01*
X164025000Y-85546260D01*
X164025000Y-85253740D01*
X163967932Y-84966842D01*
X163855990Y-84696589D01*
X163693475Y-84453368D01*
X163486632Y-84246525D01*
X163312240Y-84130000D01*
X163486632Y-84013475D01*
X163693475Y-83806632D01*
X163855990Y-83563411D01*
X163967932Y-83293158D01*
X164025000Y-83006260D01*
X164025000Y-82713740D01*
X163967932Y-82426842D01*
X163855990Y-82156589D01*
X163693475Y-81913368D01*
X163486632Y-81706525D01*
X163312240Y-81590000D01*
X163486632Y-81473475D01*
X163693475Y-81266632D01*
X163855990Y-81023411D01*
X163967932Y-80753158D01*
X164025000Y-80466260D01*
X164025000Y-80173740D01*
X163967932Y-79886842D01*
X163855990Y-79616589D01*
X163693475Y-79373368D01*
X163486632Y-79166525D01*
X163312240Y-79050000D01*
X163486632Y-78933475D01*
X163693475Y-78726632D01*
X163855990Y-78483411D01*
X163967932Y-78213158D01*
X164025000Y-77926260D01*
X164025000Y-77633740D01*
X163967932Y-77346842D01*
X163855990Y-77076589D01*
X163693475Y-76833368D01*
X163486632Y-76626525D01*
X163312240Y-76510000D01*
X163486632Y-76393475D01*
X163693475Y-76186632D01*
X163855990Y-75943411D01*
X163967932Y-75673158D01*
X164025000Y-75386260D01*
X164025000Y-75093740D01*
X163967932Y-74806842D01*
X163855990Y-74536589D01*
X163693475Y-74293368D01*
X163486632Y-74086525D01*
X163312240Y-73970000D01*
X163486632Y-73853475D01*
X163693475Y-73646632D01*
X163855990Y-73403411D01*
X163967932Y-73133158D01*
X164025000Y-72846260D01*
X164025000Y-72820131D01*
X164315000Y-72530131D01*
X164315001Y-123033647D01*
X164324289Y-123127950D01*
X164311375Y-123259660D01*
X164235965Y-123509429D01*
X164113477Y-123739794D01*
X163948579Y-123941979D01*
X163747546Y-124108288D01*
X163518046Y-124232378D01*
X163268805Y-124309531D01*
X163128181Y-124324311D01*
X163033647Y-124315000D01*
X116966353Y-124315000D01*
X116872045Y-124324289D01*
X116740340Y-124311375D01*
X116490571Y-124235965D01*
X116260206Y-124113477D01*
X116058021Y-123948579D01*
X115891712Y-123747546D01*
X115767622Y-123518046D01*
X115690469Y-123268805D01*
X115660000Y-122978911D01*
X115660000Y-109588967D01*
X134115000Y-109588967D01*
X134115000Y-109911033D01*
X134177832Y-110226912D01*
X134301082Y-110524463D01*
X134480013Y-110792252D01*
X134707748Y-111019987D01*
X134975537Y-111198918D01*
X135273088Y-111322168D01*
X135588967Y-111385000D01*
X135911033Y-111385000D01*
X136226912Y-111322168D01*
X136524463Y-111198918D01*
X136792252Y-111019987D01*
X137019987Y-110792252D01*
X137198918Y-110524463D01*
X137322168Y-110226912D01*
X137385000Y-109911033D01*
X137385000Y-109588967D01*
X137322168Y-109273088D01*
X137198918Y-108975537D01*
X137019987Y-108707748D01*
X136792252Y-108480013D01*
X136524463Y-108301082D01*
X136226912Y-108177832D01*
X135911033Y-108115000D01*
X135588967Y-108115000D01*
X135273088Y-108177832D01*
X134975537Y-108301082D01*
X134707748Y-108480013D01*
X134480013Y-108707748D01*
X134301082Y-108975537D01*
X134177832Y-109273088D01*
X134115000Y-109588967D01*
X115660000Y-109588967D01*
X115660000Y-100088967D01*
X125115000Y-100088967D01*
X125115000Y-100411033D01*
X125177832Y-100726912D01*
X125301082Y-101024463D01*
X125480013Y-101292252D01*
X125707748Y-101519987D01*
X125975537Y-101698918D01*
X126273088Y-101822168D01*
X126588967Y-101885000D01*
X126911033Y-101885000D01*
X127226912Y-101822168D01*
X127524463Y-101698918D01*
X127792252Y-101519987D01*
X128019987Y-101292252D01*
X128198918Y-101024463D01*
X128322168Y-100726912D01*
X128385000Y-100411033D01*
X128385000Y-100088967D01*
X128322168Y-99773088D01*
X128198918Y-99475537D01*
X128019987Y-99207748D01*
X127792252Y-98980013D01*
X127524463Y-98801082D01*
X127226912Y-98677832D01*
X126911033Y-98615000D01*
X126588967Y-98615000D01*
X126273088Y-98677832D01*
X125975537Y-98801082D01*
X125707748Y-98980013D01*
X125480013Y-99207748D01*
X125301082Y-99475537D01*
X125177832Y-99773088D01*
X125115000Y-100088967D01*
X115660000Y-100088967D01*
X115660000Y-96588967D01*
X120115000Y-96588967D01*
X120115000Y-96911033D01*
X120177832Y-97226912D01*
X120301082Y-97524463D01*
X120480013Y-97792252D01*
X120707748Y-98019987D01*
X120975537Y-98198918D01*
X121273088Y-98322168D01*
X121588967Y-98385000D01*
X121911033Y-98385000D01*
X122226912Y-98322168D01*
X122524463Y-98198918D01*
X122792252Y-98019987D01*
X123019987Y-97792252D01*
X123198918Y-97524463D01*
X123322168Y-97226912D01*
X123385000Y-96911033D01*
X123385000Y-96588967D01*
X134115000Y-96588967D01*
X134115000Y-96911033D01*
X134177832Y-97226912D01*
X134301082Y-97524463D01*
X134480013Y-97792252D01*
X134707748Y-98019987D01*
X134975537Y-98198918D01*
X135273088Y-98322168D01*
X135588967Y-98385000D01*
X135911033Y-98385000D01*
X136226912Y-98322168D01*
X136524463Y-98198918D01*
X136792252Y-98019987D01*
X137019987Y-97792252D01*
X137198918Y-97524463D01*
X137322168Y-97226912D01*
X137385000Y-96911033D01*
X137385000Y-96588967D01*
X137322168Y-96273088D01*
X137198918Y-95975537D01*
X137019987Y-95707748D01*
X136792252Y-95480013D01*
X136524463Y-95301082D01*
X136226912Y-95177832D01*
X135911033Y-95115000D01*
X135588967Y-95115000D01*
X135273088Y-95177832D01*
X134975537Y-95301082D01*
X134707748Y-95480013D01*
X134480013Y-95707748D01*
X134301082Y-95975537D01*
X134177832Y-96273088D01*
X134115000Y-96588967D01*
X123385000Y-96588967D01*
X123322168Y-96273088D01*
X123198918Y-95975537D01*
X123019987Y-95707748D01*
X122792252Y-95480013D01*
X122524463Y-95301082D01*
X122226912Y-95177832D01*
X121911033Y-95115000D01*
X121588967Y-95115000D01*
X121273088Y-95177832D01*
X120975537Y-95301082D01*
X120707748Y-95480013D01*
X120480013Y-95707748D01*
X120301082Y-95975537D01*
X120177832Y-96273088D01*
X120115000Y-96588967D01*
X115660000Y-96588967D01*
X115660000Y-93088967D01*
X125115000Y-93088967D01*
X125115000Y-93411033D01*
X125177832Y-93726912D01*
X125301082Y-94024463D01*
X125480013Y-94292252D01*
X125707748Y-94519987D01*
X125975537Y-94698918D01*
X126273088Y-94822168D01*
X126588967Y-94885000D01*
X126911033Y-94885000D01*
X127226912Y-94822168D01*
X127524463Y-94698918D01*
X127792252Y-94519987D01*
X128019987Y-94292252D01*
X128198918Y-94024463D01*
X128322168Y-93726912D01*
X128385000Y-93411033D01*
X128385000Y-93088967D01*
X128322168Y-92773088D01*
X128198918Y-92475537D01*
X128019987Y-92207748D01*
X127792252Y-91980013D01*
X127524463Y-91801082D01*
X127226912Y-91677832D01*
X126911033Y-91615000D01*
X126588967Y-91615000D01*
X126273088Y-91677832D01*
X125975537Y-91801082D01*
X125707748Y-91980013D01*
X125480013Y-92207748D01*
X125301082Y-92475537D01*
X125177832Y-92773088D01*
X125115000Y-93088967D01*
X115660000Y-93088967D01*
X115660000Y-87088967D01*
X125115000Y-87088967D01*
X125115000Y-87411033D01*
X125177832Y-87726912D01*
X125301082Y-88024463D01*
X125480013Y-88292252D01*
X125707748Y-88519987D01*
X125975537Y-88698918D01*
X126273088Y-88822168D01*
X126588967Y-88885000D01*
X126911033Y-88885000D01*
X127226912Y-88822168D01*
X127524463Y-88698918D01*
X127792252Y-88519987D01*
X128019987Y-88292252D01*
X128198918Y-88024463D01*
X128322168Y-87726912D01*
X128385000Y-87411033D01*
X128385000Y-87088967D01*
X128322168Y-86773088D01*
X128198918Y-86475537D01*
X128019987Y-86207748D01*
X127792252Y-85980013D01*
X127524463Y-85801082D01*
X127226912Y-85677832D01*
X126911033Y-85615000D01*
X126588967Y-85615000D01*
X126273088Y-85677832D01*
X125975537Y-85801082D01*
X125707748Y-85980013D01*
X125480013Y-86207748D01*
X125301082Y-86475537D01*
X125177832Y-86773088D01*
X125115000Y-87088967D01*
X115660000Y-87088967D01*
X115660000Y-83588967D01*
X120115000Y-83588967D01*
X120115000Y-83911033D01*
X120177832Y-84226912D01*
X120301082Y-84524463D01*
X120480013Y-84792252D01*
X120707748Y-85019987D01*
X120975537Y-85198918D01*
X121273088Y-85322168D01*
X121588967Y-85385000D01*
X121911033Y-85385000D01*
X122226912Y-85322168D01*
X122524463Y-85198918D01*
X122792252Y-85019987D01*
X123019987Y-84792252D01*
X123198918Y-84524463D01*
X123322168Y-84226912D01*
X123385000Y-83911033D01*
X123385000Y-83588967D01*
X134115000Y-83588967D01*
X134115000Y-83911033D01*
X134177832Y-84226912D01*
X134301082Y-84524463D01*
X134480013Y-84792252D01*
X134707748Y-85019987D01*
X134975537Y-85198918D01*
X135273088Y-85322168D01*
X135588967Y-85385000D01*
X135911033Y-85385000D01*
X136226912Y-85322168D01*
X136524463Y-85198918D01*
X136792252Y-85019987D01*
X137019987Y-84792252D01*
X137198918Y-84524463D01*
X137322168Y-84226912D01*
X137385000Y-83911033D01*
X137385000Y-83588967D01*
X137322168Y-83273088D01*
X137198918Y-82975537D01*
X137019987Y-82707748D01*
X136792252Y-82480013D01*
X136524463Y-82301082D01*
X136226912Y-82177832D01*
X135911033Y-82115000D01*
X135588967Y-82115000D01*
X135273088Y-82177832D01*
X134975537Y-82301082D01*
X134707748Y-82480013D01*
X134480013Y-82707748D01*
X134301082Y-82975537D01*
X134177832Y-83273088D01*
X134115000Y-83588967D01*
X123385000Y-83588967D01*
X123322168Y-83273088D01*
X123198918Y-82975537D01*
X123019987Y-82707748D01*
X122792252Y-82480013D01*
X122524463Y-82301082D01*
X122226912Y-82177832D01*
X121911033Y-82115000D01*
X121588967Y-82115000D01*
X121273088Y-82177832D01*
X120975537Y-82301082D01*
X120707748Y-82480013D01*
X120480013Y-82707748D01*
X120301082Y-82975537D01*
X120177832Y-83273088D01*
X120115000Y-83588967D01*
X115660000Y-83588967D01*
X115660000Y-80088967D01*
X125115000Y-80088967D01*
X125115000Y-80411033D01*
X125177832Y-80726912D01*
X125301082Y-81024463D01*
X125480013Y-81292252D01*
X125707748Y-81519987D01*
X125975537Y-81698918D01*
X126273088Y-81822168D01*
X126588967Y-81885000D01*
X126911033Y-81885000D01*
X127226912Y-81822168D01*
X127524463Y-81698918D01*
X127792252Y-81519987D01*
X128019987Y-81292252D01*
X128198918Y-81024463D01*
X128322168Y-80726912D01*
X128385000Y-80411033D01*
X128385000Y-80088967D01*
X128322168Y-79773088D01*
X128198918Y-79475537D01*
X128019987Y-79207748D01*
X127792252Y-78980013D01*
X127524463Y-78801082D01*
X127226912Y-78677832D01*
X126911033Y-78615000D01*
X126588967Y-78615000D01*
X126273088Y-78677832D01*
X125975537Y-78801082D01*
X125707748Y-78980013D01*
X125480013Y-79207748D01*
X125301082Y-79475537D01*
X125177832Y-79773088D01*
X125115000Y-80088967D01*
X115660000Y-80088967D01*
X115660000Y-74588967D01*
X120115000Y-74588967D01*
X120115000Y-74911033D01*
X120177832Y-75226912D01*
X120301082Y-75524463D01*
X120480013Y-75792252D01*
X120707748Y-76019987D01*
X120975537Y-76198918D01*
X121273088Y-76322168D01*
X121588967Y-76385000D01*
X121911033Y-76385000D01*
X122226912Y-76322168D01*
X122524463Y-76198918D01*
X122792252Y-76019987D01*
X123019987Y-75792252D01*
X123198918Y-75524463D01*
X123322168Y-75226912D01*
X123385000Y-74911033D01*
X123385000Y-74588967D01*
X134115000Y-74588967D01*
X134115000Y-74911033D01*
X134177832Y-75226912D01*
X134301082Y-75524463D01*
X134480013Y-75792252D01*
X134707748Y-76019987D01*
X134975537Y-76198918D01*
X135273088Y-76322168D01*
X135588967Y-76385000D01*
X135911033Y-76385000D01*
X136226912Y-76322168D01*
X136524463Y-76198918D01*
X136792252Y-76019987D01*
X137019987Y-75792252D01*
X137198918Y-75524463D01*
X137322168Y-75226912D01*
X137385000Y-74911033D01*
X137385000Y-74588967D01*
X137322168Y-74273088D01*
X137198918Y-73975537D01*
X137019987Y-73707748D01*
X136792252Y-73480013D01*
X136524463Y-73301082D01*
X136226912Y-73177832D01*
X135911033Y-73115000D01*
X135588967Y-73115000D01*
X135273088Y-73177832D01*
X134975537Y-73301082D01*
X134707748Y-73480013D01*
X134480013Y-73707748D01*
X134301082Y-73975537D01*
X134177832Y-74273088D01*
X134115000Y-74588967D01*
X123385000Y-74588967D01*
X123322168Y-74273088D01*
X123198918Y-73975537D01*
X123019987Y-73707748D01*
X122792252Y-73480013D01*
X122524463Y-73301082D01*
X122226912Y-73177832D01*
X121911033Y-73115000D01*
X121588967Y-73115000D01*
X121273088Y-73177832D01*
X120975537Y-73301082D01*
X120707748Y-73480013D01*
X120480013Y-73707748D01*
X120301082Y-73975537D01*
X120177832Y-74273088D01*
X120115000Y-74588967D01*
X115660000Y-74588967D01*
X115660000Y-71088967D01*
X125115000Y-71088967D01*
X125115000Y-71411033D01*
X125177832Y-71726912D01*
X125301082Y-72024463D01*
X125480013Y-72292252D01*
X125707748Y-72519987D01*
X125975537Y-72698918D01*
X126273088Y-72822168D01*
X126588967Y-72885000D01*
X126911033Y-72885000D01*
X127226912Y-72822168D01*
X127524463Y-72698918D01*
X127792252Y-72519987D01*
X128019987Y-72292252D01*
X128198918Y-72024463D01*
X128322168Y-71726912D01*
X128385000Y-71411033D01*
X128385000Y-71088967D01*
X139115000Y-71088967D01*
X139115000Y-71411033D01*
X139177832Y-71726912D01*
X139301082Y-72024463D01*
X139480013Y-72292252D01*
X139707748Y-72519987D01*
X139975537Y-72698918D01*
X140273088Y-72822168D01*
X140588967Y-72885000D01*
X140911033Y-72885000D01*
X141226912Y-72822168D01*
X141524463Y-72698918D01*
X141792252Y-72519987D01*
X142019987Y-72292252D01*
X142198918Y-72024463D01*
X142322168Y-71726912D01*
X142385000Y-71411033D01*
X142385000Y-71088967D01*
X142322168Y-70773088D01*
X142198918Y-70475537D01*
X142019987Y-70207748D01*
X141792252Y-69980013D01*
X141524463Y-69801082D01*
X141226912Y-69677832D01*
X140911033Y-69615000D01*
X140588967Y-69615000D01*
X140273088Y-69677832D01*
X139975537Y-69801082D01*
X139707748Y-69980013D01*
X139480013Y-70207748D01*
X139301082Y-70475537D01*
X139177832Y-70773088D01*
X139115000Y-71088967D01*
X128385000Y-71088967D01*
X128322168Y-70773088D01*
X128198918Y-70475537D01*
X128019987Y-70207748D01*
X127792252Y-69980013D01*
X127524463Y-69801082D01*
X127226912Y-69677832D01*
X126911033Y-69615000D01*
X126588967Y-69615000D01*
X126273088Y-69677832D01*
X125975537Y-69801082D01*
X125707748Y-69980013D01*
X125480013Y-70207748D01*
X125301082Y-70475537D01*
X125177832Y-70773088D01*
X125115000Y-71088967D01*
X115660000Y-71088967D01*
X115660000Y-65588967D01*
X120115000Y-65588967D01*
X120115000Y-65911033D01*
X120177832Y-66226912D01*
X120301082Y-66524463D01*
X120480013Y-66792252D01*
X120707748Y-67019987D01*
X120975537Y-67198918D01*
X121273088Y-67322168D01*
X121588967Y-67385000D01*
X121911033Y-67385000D01*
X122226912Y-67322168D01*
X122524463Y-67198918D01*
X122792252Y-67019987D01*
X123019987Y-66792252D01*
X123198918Y-66524463D01*
X123322168Y-66226912D01*
X123385000Y-65911033D01*
X123385000Y-65588967D01*
X134115000Y-65588967D01*
X134115000Y-65911033D01*
X134177832Y-66226912D01*
X134301082Y-66524463D01*
X134480013Y-66792252D01*
X134707748Y-67019987D01*
X134975537Y-67198918D01*
X135273088Y-67322168D01*
X135588967Y-67385000D01*
X135911033Y-67385000D01*
X136226912Y-67322168D01*
X136524463Y-67198918D01*
X136792252Y-67019987D01*
X137019987Y-66792252D01*
X137198918Y-66524463D01*
X137322168Y-66226912D01*
X137385000Y-65911033D01*
X137385000Y-65588967D01*
X148115000Y-65588967D01*
X148115000Y-65911033D01*
X148177832Y-66226912D01*
X148301082Y-66524463D01*
X148480013Y-66792252D01*
X148707748Y-67019987D01*
X148975537Y-67198918D01*
X149273088Y-67322168D01*
X149588967Y-67385000D01*
X149911033Y-67385000D01*
X150226912Y-67322168D01*
X150524463Y-67198918D01*
X150792252Y-67019987D01*
X151019987Y-66792252D01*
X151198918Y-66524463D01*
X151322168Y-66226912D01*
X151385000Y-65911033D01*
X151385000Y-65588967D01*
X151322168Y-65273088D01*
X151198918Y-64975537D01*
X151019987Y-64707748D01*
X150792252Y-64480013D01*
X150524463Y-64301082D01*
X150226912Y-64177832D01*
X149911033Y-64115000D01*
X149588967Y-64115000D01*
X149273088Y-64177832D01*
X148975537Y-64301082D01*
X148707748Y-64480013D01*
X148480013Y-64707748D01*
X148301082Y-64975537D01*
X148177832Y-65273088D01*
X148115000Y-65588967D01*
X137385000Y-65588967D01*
X137322168Y-65273088D01*
X137198918Y-64975537D01*
X137019987Y-64707748D01*
X136792252Y-64480013D01*
X136524463Y-64301082D01*
X136226912Y-64177832D01*
X135911033Y-64115000D01*
X135588967Y-64115000D01*
X135273088Y-64177832D01*
X134975537Y-64301082D01*
X134707748Y-64480013D01*
X134480013Y-64707748D01*
X134301082Y-64975537D01*
X134177832Y-65273088D01*
X134115000Y-65588967D01*
X123385000Y-65588967D01*
X123322168Y-65273088D01*
X123198918Y-64975537D01*
X123019987Y-64707748D01*
X122792252Y-64480013D01*
X122524463Y-64301082D01*
X122226912Y-64177832D01*
X121911033Y-64115000D01*
X121588967Y-64115000D01*
X121273088Y-64177832D01*
X120975537Y-64301082D01*
X120707748Y-64480013D01*
X120480013Y-64707748D01*
X120301082Y-64975537D01*
X120177832Y-65273088D01*
X120115000Y-65588967D01*
X115660000Y-65588967D01*
X115660000Y-62088967D01*
X125115000Y-62088967D01*
X125115000Y-62411033D01*
X125177832Y-62726912D01*
X125301082Y-63024463D01*
X125480013Y-63292252D01*
X125707748Y-63519987D01*
X125975537Y-63698918D01*
X126273088Y-63822168D01*
X126588967Y-63885000D01*
X126911033Y-63885000D01*
X127226912Y-63822168D01*
X127524463Y-63698918D01*
X127792252Y-63519987D01*
X128019987Y-63292252D01*
X128198918Y-63024463D01*
X128322168Y-62726912D01*
X128385000Y-62411033D01*
X128385000Y-62088967D01*
X139115000Y-62088967D01*
X139115000Y-62411033D01*
X139177832Y-62726912D01*
X139301082Y-63024463D01*
X139480013Y-63292252D01*
X139707748Y-63519987D01*
X139975537Y-63698918D01*
X140273088Y-63822168D01*
X140588967Y-63885000D01*
X140911033Y-63885000D01*
X141226912Y-63822168D01*
X141524463Y-63698918D01*
X141792252Y-63519987D01*
X142019987Y-63292252D01*
X142198918Y-63024463D01*
X142322168Y-62726912D01*
X142385000Y-62411033D01*
X142385000Y-62088967D01*
X142322168Y-61773088D01*
X142198918Y-61475537D01*
X142019987Y-61207748D01*
X141792252Y-60980013D01*
X141524463Y-60801082D01*
X141226912Y-60677832D01*
X140911033Y-60615000D01*
X140588967Y-60615000D01*
X140273088Y-60677832D01*
X139975537Y-60801082D01*
X139707748Y-60980013D01*
X139480013Y-61207748D01*
X139301082Y-61475537D01*
X139177832Y-61773088D01*
X139115000Y-62088967D01*
X128385000Y-62088967D01*
X128322168Y-61773088D01*
X128198918Y-61475537D01*
X128019987Y-61207748D01*
X127792252Y-60980013D01*
X127524463Y-60801082D01*
X127226912Y-60677832D01*
X126911033Y-60615000D01*
X126588967Y-60615000D01*
X126273088Y-60677832D01*
X125975537Y-60801082D01*
X125707748Y-60980013D01*
X125480013Y-61207748D01*
X125301082Y-61475537D01*
X125177832Y-61773088D01*
X125115000Y-62088967D01*
X115660000Y-62088967D01*
X115660000Y-60032279D01*
X115707670Y-59546107D01*
X115839489Y-59109502D01*
X116053600Y-58706815D01*
X116341848Y-58353388D01*
X116693261Y-58062673D01*
X117094439Y-57845758D01*
X117530113Y-57710894D01*
X117868335Y-57675346D01*
X117966353Y-57685000D01*
G36*
X157518008Y-101403140D02*
G01*
X157553551Y-101446449D01*
X157726377Y-101588284D01*
X157923553Y-101693676D01*
X158087705Y-101743471D01*
X158137500Y-101758577D01*
X158164010Y-101761188D01*
X155241376Y-104683823D01*
X155226912Y-104677832D01*
X154911033Y-104615000D01*
X154588967Y-104615000D01*
X154273088Y-104677832D01*
X153975537Y-104801082D01*
X153707748Y-104980013D01*
X153480013Y-105207748D01*
X153301082Y-105475537D01*
X153177832Y-105773088D01*
X153115000Y-106088967D01*
X153115000Y-106411033D01*
X153177832Y-106726912D01*
X153301082Y-107024463D01*
X153480013Y-107292252D01*
X153707748Y-107519987D01*
X153975537Y-107698918D01*
X154273088Y-107822168D01*
X154588967Y-107885000D01*
X154911033Y-107885000D01*
X155226912Y-107822168D01*
X155524463Y-107698918D01*
X155792252Y-107519987D01*
X156019987Y-107292252D01*
X156198918Y-107024463D01*
X156322168Y-106726912D01*
X156385000Y-106411033D01*
X156385000Y-106088967D01*
X156322168Y-105773088D01*
X156316177Y-105758624D01*
X158553747Y-103521054D01*
X158572068Y-103613158D01*
X158684010Y-103883411D01*
X158846525Y-104126632D01*
X159053368Y-104333475D01*
X159227760Y-104450000D01*
X159053368Y-104566525D01*
X158846525Y-104773368D01*
X158684010Y-105016589D01*
X158572068Y-105286842D01*
X158515000Y-105573740D01*
X158515000Y-105866260D01*
X158572068Y-106153158D01*
X158684010Y-106423411D01*
X158846525Y-106666632D01*
X159053368Y-106873475D01*
X159227760Y-106990000D01*
X159053368Y-107106525D01*
X158846525Y-107313368D01*
X158684010Y-107556589D01*
X158572068Y-107826842D01*
X158515000Y-108113740D01*
X158515000Y-108406260D01*
X158572068Y-108693158D01*
X158684010Y-108963411D01*
X158846525Y-109206632D01*
X159032545Y-109392652D01*
X155741376Y-112683823D01*
X155726912Y-112677832D01*
X155411033Y-112615000D01*
X155088967Y-112615000D01*
X154773088Y-112677832D01*
X154475537Y-112801082D01*
X154207748Y-112980013D01*
X153980013Y-113207748D01*
X153801082Y-113475537D01*
X153677832Y-113773088D01*
X153615000Y-114088967D01*
X153615000Y-114411033D01*
X153677832Y-114726912D01*
X153801082Y-115024463D01*
X153980013Y-115292252D01*
X154041315Y-115353554D01*
X152500000Y-116894868D01*
X149885000Y-114279869D01*
X149885000Y-114088967D01*
X149822168Y-113773088D01*
X149698918Y-113475537D01*
X149519987Y-113207748D01*
X149447239Y-113135000D01*
X153055752Y-113135000D01*
X153222499Y-113118577D01*
X153436447Y-113053676D01*
X153633623Y-112948284D01*
X153806449Y-112806449D01*
X153948284Y-112633623D01*
X154053676Y-112436447D01*
X154118577Y-112222499D01*
X154140491Y-112000000D01*
X154118577Y-111777501D01*
X154053676Y-111563553D01*
X153948284Y-111366377D01*
X153806449Y-111193551D01*
X153633623Y-111051716D01*
X153436447Y-110946324D01*
X153222499Y-110881423D01*
X153055752Y-110865000D01*
X150947239Y-110865000D01*
X151019987Y-110792252D01*
X151198918Y-110524463D01*
X151322168Y-110226912D01*
X151385000Y-109911033D01*
X151385000Y-109588967D01*
X151322168Y-109273088D01*
X151198918Y-108975537D01*
X151019987Y-108707748D01*
X150792252Y-108480013D01*
X150524463Y-108301082D01*
X150226912Y-108177832D01*
X149911033Y-108115000D01*
X149588967Y-108115000D01*
X149273088Y-108177832D01*
X148975537Y-108301082D01*
X148707748Y-108480013D01*
X148480013Y-108707748D01*
X148301082Y-108975537D01*
X148177832Y-109273088D01*
X148115000Y-109588967D01*
X148115000Y-109911033D01*
X148177832Y-110226912D01*
X148301082Y-110524463D01*
X148480013Y-110792252D01*
X148552761Y-110865000D01*
X144454130Y-110865000D01*
X141357292Y-107768163D01*
X141524463Y-107698918D01*
X141792252Y-107519987D01*
X141927239Y-107385000D01*
X150694249Y-107385000D01*
X150750000Y-107390491D01*
X150805751Y-107385000D01*
X150805752Y-107385000D01*
X150972499Y-107368577D01*
X151186447Y-107303676D01*
X151383623Y-107198284D01*
X151556449Y-107056449D01*
X151591996Y-107013135D01*
X154841988Y-103763144D01*
X154841992Y-103763139D01*
X156763141Y-101841991D01*
X156806449Y-101806449D01*
X156948284Y-101633623D01*
X157053676Y-101436447D01*
X157118577Y-101222499D01*
X157138194Y-101023325D01*
X157518008Y-101403140D01*
G37*
X157518008Y-101403140D02*
X157553551Y-101446449D01*
X157726377Y-101588284D01*
X157923553Y-101693676D01*
X158087705Y-101743471D01*
X158137500Y-101758577D01*
X158164010Y-101761188D01*
X155241376Y-104683823D01*
X155226912Y-104677832D01*
X154911033Y-104615000D01*
X154588967Y-104615000D01*
X154273088Y-104677832D01*
X153975537Y-104801082D01*
X153707748Y-104980013D01*
X153480013Y-105207748D01*
X153301082Y-105475537D01*
X153177832Y-105773088D01*
X153115000Y-106088967D01*
X153115000Y-106411033D01*
X153177832Y-106726912D01*
X153301082Y-107024463D01*
X153480013Y-107292252D01*
X153707748Y-107519987D01*
X153975537Y-107698918D01*
X154273088Y-107822168D01*
X154588967Y-107885000D01*
X154911033Y-107885000D01*
X155226912Y-107822168D01*
X155524463Y-107698918D01*
X155792252Y-107519987D01*
X156019987Y-107292252D01*
X156198918Y-107024463D01*
X156322168Y-106726912D01*
X156385000Y-106411033D01*
X156385000Y-106088967D01*
X156322168Y-105773088D01*
X156316177Y-105758624D01*
X158553747Y-103521054D01*
X158572068Y-103613158D01*
X158684010Y-103883411D01*
X158846525Y-104126632D01*
X159053368Y-104333475D01*
X159227760Y-104450000D01*
X159053368Y-104566525D01*
X158846525Y-104773368D01*
X158684010Y-105016589D01*
X158572068Y-105286842D01*
X158515000Y-105573740D01*
X158515000Y-105866260D01*
X158572068Y-106153158D01*
X158684010Y-106423411D01*
X158846525Y-106666632D01*
X159053368Y-106873475D01*
X159227760Y-106990000D01*
X159053368Y-107106525D01*
X158846525Y-107313368D01*
X158684010Y-107556589D01*
X158572068Y-107826842D01*
X158515000Y-108113740D01*
X158515000Y-108406260D01*
X158572068Y-108693158D01*
X158684010Y-108963411D01*
X158846525Y-109206632D01*
X159032545Y-109392652D01*
X155741376Y-112683823D01*
X155726912Y-112677832D01*
X155411033Y-112615000D01*
X155088967Y-112615000D01*
X154773088Y-112677832D01*
X154475537Y-112801082D01*
X154207748Y-112980013D01*
X153980013Y-113207748D01*
X153801082Y-113475537D01*
X153677832Y-113773088D01*
X153615000Y-114088967D01*
X153615000Y-114411033D01*
X153677832Y-114726912D01*
X153801082Y-115024463D01*
X153980013Y-115292252D01*
X154041315Y-115353554D01*
X152500000Y-116894868D01*
X149885000Y-114279869D01*
X149885000Y-114088967D01*
X149822168Y-113773088D01*
X149698918Y-113475537D01*
X149519987Y-113207748D01*
X149447239Y-113135000D01*
X153055752Y-113135000D01*
X153222499Y-113118577D01*
X153436447Y-113053676D01*
X153633623Y-112948284D01*
X153806449Y-112806449D01*
X153948284Y-112633623D01*
X154053676Y-112436447D01*
X154118577Y-112222499D01*
X154140491Y-112000000D01*
X154118577Y-111777501D01*
X154053676Y-111563553D01*
X153948284Y-111366377D01*
X153806449Y-111193551D01*
X153633623Y-111051716D01*
X153436447Y-110946324D01*
X153222499Y-110881423D01*
X153055752Y-110865000D01*
X150947239Y-110865000D01*
X151019987Y-110792252D01*
X151198918Y-110524463D01*
X151322168Y-110226912D01*
X151385000Y-109911033D01*
X151385000Y-109588967D01*
X151322168Y-109273088D01*
X151198918Y-108975537D01*
X151019987Y-108707748D01*
X150792252Y-108480013D01*
X150524463Y-108301082D01*
X150226912Y-108177832D01*
X149911033Y-108115000D01*
X149588967Y-108115000D01*
X149273088Y-108177832D01*
X148975537Y-108301082D01*
X148707748Y-108480013D01*
X148480013Y-108707748D01*
X148301082Y-108975537D01*
X148177832Y-109273088D01*
X148115000Y-109588967D01*
X148115000Y-109911033D01*
X148177832Y-110226912D01*
X148301082Y-110524463D01*
X148480013Y-110792252D01*
X148552761Y-110865000D01*
X144454130Y-110865000D01*
X141357292Y-107768163D01*
X141524463Y-107698918D01*
X141792252Y-107519987D01*
X141927239Y-107385000D01*
X150694249Y-107385000D01*
X150750000Y-107390491D01*
X150805751Y-107385000D01*
X150805752Y-107385000D01*
X150972499Y-107368577D01*
X151186447Y-107303676D01*
X151383623Y-107198284D01*
X151556449Y-107056449D01*
X151591996Y-107013135D01*
X154841988Y-103763144D01*
X154841992Y-103763139D01*
X156763141Y-101841991D01*
X156806449Y-101806449D01*
X156948284Y-101633623D01*
X157053676Y-101436447D01*
X157118577Y-101222499D01*
X157138194Y-101023325D01*
X157518008Y-101403140D01*
G36*
X153236861Y-102158008D02*
G01*
X153236856Y-102158012D01*
X150279869Y-105115000D01*
X149234291Y-105115000D01*
X149436447Y-105053676D01*
X149633623Y-104948284D01*
X149806449Y-104806449D01*
X149841996Y-104763135D01*
X153670142Y-100934991D01*
X154459877Y-100934991D01*
X153236861Y-102158008D01*
G37*
X153236861Y-102158008D02*
X153236856Y-102158012D01*
X150279869Y-105115000D01*
X149234291Y-105115000D01*
X149436447Y-105053676D01*
X149633623Y-104948284D01*
X149806449Y-104806449D01*
X149841996Y-104763135D01*
X153670142Y-100934991D01*
X154459877Y-100934991D01*
X153236861Y-102158008D01*
G36*
X155865001Y-89964239D02*
G01*
X155859509Y-90020000D01*
X155881423Y-90242498D01*
X155946324Y-90456446D01*
X155946325Y-90456447D01*
X156051717Y-90653623D01*
X156193552Y-90826449D01*
X156236860Y-90861991D01*
X157271006Y-91896138D01*
X157222499Y-91881423D01*
X157055752Y-91865000D01*
X157000000Y-91859509D01*
X156944248Y-91865000D01*
X156777501Y-91881423D01*
X156563553Y-91946324D01*
X156366377Y-92051716D01*
X156236856Y-92158011D01*
X156236854Y-92158013D01*
X156193551Y-92193551D01*
X156158013Y-92236854D01*
X154279869Y-94115000D01*
X153427239Y-94115000D01*
X153292252Y-93980013D01*
X153024463Y-93801082D01*
X152726912Y-93677832D01*
X152411033Y-93615000D01*
X152088967Y-93615000D01*
X151773088Y-93677832D01*
X151475537Y-93801082D01*
X151207748Y-93980013D01*
X150980013Y-94207748D01*
X150801082Y-94475537D01*
X150677832Y-94773088D01*
X150615000Y-95088967D01*
X150615000Y-95411033D01*
X150677832Y-95726912D01*
X150801082Y-96024463D01*
X150980013Y-96292252D01*
X151207748Y-96519987D01*
X151475537Y-96698918D01*
X151773088Y-96822168D01*
X152088967Y-96885000D01*
X152411033Y-96885000D01*
X152726912Y-96822168D01*
X153024463Y-96698918D01*
X153292252Y-96519987D01*
X153427239Y-96385000D01*
X154694249Y-96385000D01*
X154750000Y-96390491D01*
X154805751Y-96385000D01*
X154805752Y-96385000D01*
X154972499Y-96368577D01*
X155186447Y-96303676D01*
X155383623Y-96198284D01*
X155556449Y-96056449D01*
X155591996Y-96013136D01*
X157763146Y-93841987D01*
X157806449Y-93806449D01*
X157871724Y-93726912D01*
X157948284Y-93633623D01*
X158053676Y-93436447D01*
X158118577Y-93222499D01*
X158140491Y-93000000D01*
X158118577Y-92777501D01*
X158103863Y-92728995D01*
X158515000Y-93140133D01*
X158515000Y-93166260D01*
X158572068Y-93453158D01*
X158684010Y-93723411D01*
X158846525Y-93966632D01*
X159053368Y-94173475D01*
X159227760Y-94290000D01*
X159053368Y-94406525D01*
X158846525Y-94613368D01*
X158684010Y-94856589D01*
X158572068Y-95126842D01*
X158515000Y-95413740D01*
X158515000Y-95706260D01*
X158572068Y-95993158D01*
X158684010Y-96263411D01*
X158846525Y-96506632D01*
X159053368Y-96713475D01*
X159227760Y-96830000D01*
X159053368Y-96946525D01*
X158846525Y-97153368D01*
X158684010Y-97396589D01*
X158572068Y-97666842D01*
X158515000Y-97953740D01*
X158515000Y-98246260D01*
X158572068Y-98533158D01*
X158684010Y-98803411D01*
X158846525Y-99046632D01*
X159053368Y-99253475D01*
X159227760Y-99370000D01*
X159053368Y-99486525D01*
X159034893Y-99505000D01*
X158830132Y-99505000D01*
X158361986Y-99036855D01*
X158326440Y-98993542D01*
X158153614Y-98851707D01*
X157956438Y-98746315D01*
X157742490Y-98681414D01*
X157575743Y-98664991D01*
X157575742Y-98664991D01*
X157519991Y-98659500D01*
X157464240Y-98664991D01*
X153255761Y-98664991D01*
X153200009Y-98659500D01*
X152977510Y-98681414D01*
X152763562Y-98746315D01*
X152566386Y-98851707D01*
X152436865Y-98958002D01*
X152436864Y-98958003D01*
X152393560Y-98993542D01*
X152358022Y-99036845D01*
X148236865Y-103158004D01*
X148193551Y-103193551D01*
X148051716Y-103366377D01*
X147946324Y-103563553D01*
X147881423Y-103777501D01*
X147859509Y-104000000D01*
X147881423Y-104222499D01*
X147946324Y-104436447D01*
X148051716Y-104633623D01*
X148193551Y-104806449D01*
X148366377Y-104948284D01*
X148563553Y-105053676D01*
X148765709Y-105115000D01*
X141927239Y-105115000D01*
X141792252Y-104980013D01*
X141524463Y-104801082D01*
X141226912Y-104677832D01*
X140911033Y-104615000D01*
X140588967Y-104615000D01*
X140273088Y-104677832D01*
X140184999Y-104714320D01*
X140184999Y-101785680D01*
X140273088Y-101822168D01*
X140588967Y-101885000D01*
X140911033Y-101885000D01*
X141226912Y-101822168D01*
X141524463Y-101698918D01*
X141792252Y-101519987D01*
X142019987Y-101292252D01*
X142198918Y-101024463D01*
X142322168Y-100726912D01*
X142385000Y-100411033D01*
X142385000Y-100088967D01*
X142322168Y-99773088D01*
X142198918Y-99475537D01*
X142019987Y-99207748D01*
X141792252Y-98980013D01*
X141524463Y-98801082D01*
X141226912Y-98677832D01*
X140911033Y-98615000D01*
X140588967Y-98615000D01*
X140273088Y-98677832D01*
X140184999Y-98714320D01*
X140184999Y-98588967D01*
X145615000Y-98588967D01*
X145615000Y-98911033D01*
X145677832Y-99226912D01*
X145801082Y-99524463D01*
X145980013Y-99792252D01*
X146207748Y-100019987D01*
X146475537Y-100198918D01*
X146773088Y-100322168D01*
X147088967Y-100385000D01*
X147411033Y-100385000D01*
X147726912Y-100322168D01*
X148024463Y-100198918D01*
X148292252Y-100019987D01*
X148519987Y-99792252D01*
X148698918Y-99524463D01*
X148822168Y-99226912D01*
X148885000Y-98911033D01*
X148885000Y-98588967D01*
X148822168Y-98273088D01*
X148698918Y-97975537D01*
X148519987Y-97707748D01*
X148292252Y-97480013D01*
X148024463Y-97301082D01*
X147726912Y-97177832D01*
X147411033Y-97115000D01*
X147088967Y-97115000D01*
X146773088Y-97177832D01*
X146475537Y-97301082D01*
X146207748Y-97480013D01*
X145980013Y-97707748D01*
X145801082Y-97975537D01*
X145677832Y-98273088D01*
X145615000Y-98588967D01*
X140184999Y-98588967D01*
X140184999Y-94785680D01*
X140273088Y-94822168D01*
X140588967Y-94885000D01*
X140911033Y-94885000D01*
X141226912Y-94822168D01*
X141524463Y-94698918D01*
X141792252Y-94519987D01*
X142019987Y-94292252D01*
X142198918Y-94024463D01*
X142322168Y-93726912D01*
X142385000Y-93411033D01*
X142385000Y-93088967D01*
X142322168Y-92773088D01*
X142198918Y-92475537D01*
X142019987Y-92207748D01*
X141792252Y-91980013D01*
X141524463Y-91801082D01*
X141226912Y-91677832D01*
X140911033Y-91615000D01*
X140588967Y-91615000D01*
X140273088Y-91677832D01*
X140184999Y-91714320D01*
X140184999Y-91588967D01*
X145615000Y-91588967D01*
X145615000Y-91911033D01*
X145677832Y-92226912D01*
X145801082Y-92524463D01*
X145980013Y-92792252D01*
X146207748Y-93019987D01*
X146475537Y-93198918D01*
X146773088Y-93322168D01*
X147088967Y-93385000D01*
X147411033Y-93385000D01*
X147726912Y-93322168D01*
X148024463Y-93198918D01*
X148292252Y-93019987D01*
X148519987Y-92792252D01*
X148698918Y-92524463D01*
X148822168Y-92226912D01*
X148885000Y-91911033D01*
X148885000Y-91588967D01*
X148822168Y-91273088D01*
X148698918Y-90975537D01*
X148519987Y-90707748D01*
X148292252Y-90480013D01*
X148024463Y-90301082D01*
X147726912Y-90177832D01*
X147411033Y-90115000D01*
X147088967Y-90115000D01*
X146773088Y-90177832D01*
X146475537Y-90301082D01*
X146207748Y-90480013D01*
X145980013Y-90707748D01*
X145801082Y-90975537D01*
X145677832Y-91273088D01*
X145615000Y-91588967D01*
X140184999Y-91588967D01*
X140184999Y-88785680D01*
X140273088Y-88822168D01*
X140588967Y-88885000D01*
X140911033Y-88885000D01*
X141226912Y-88822168D01*
X141524463Y-88698918D01*
X141792252Y-88519987D01*
X142019987Y-88292252D01*
X142198918Y-88024463D01*
X142322168Y-87726912D01*
X142385000Y-87411033D01*
X142385000Y-87088967D01*
X142322168Y-86773088D01*
X142198918Y-86475537D01*
X142019987Y-86207748D01*
X141792252Y-85980013D01*
X141524463Y-85801082D01*
X141226912Y-85677832D01*
X140911033Y-85615000D01*
X140588967Y-85615000D01*
X140273088Y-85677832D01*
X140184999Y-85714320D01*
X140184999Y-85588967D01*
X145615000Y-85588967D01*
X145615000Y-85911033D01*
X145677832Y-86226912D01*
X145801082Y-86524463D01*
X145980013Y-86792252D01*
X146207748Y-87019987D01*
X146475537Y-87198918D01*
X146773088Y-87322168D01*
X147088967Y-87385000D01*
X147411033Y-87385000D01*
X147726912Y-87322168D01*
X148024463Y-87198918D01*
X148292252Y-87019987D01*
X148519987Y-86792252D01*
X148698918Y-86524463D01*
X148822168Y-86226912D01*
X148885000Y-85911033D01*
X148885000Y-85588967D01*
X148822168Y-85273088D01*
X148698918Y-84975537D01*
X148519987Y-84707748D01*
X148292252Y-84480013D01*
X148024463Y-84301082D01*
X147726912Y-84177832D01*
X147411033Y-84115000D01*
X147088967Y-84115000D01*
X146773088Y-84177832D01*
X146475537Y-84301082D01*
X146207748Y-84480013D01*
X145980013Y-84707748D01*
X145801082Y-84975537D01*
X145677832Y-85273088D01*
X145615000Y-85588967D01*
X140184999Y-85588967D01*
X140184999Y-81785680D01*
X140273088Y-81822168D01*
X140588967Y-81885000D01*
X140911033Y-81885000D01*
X141226912Y-81822168D01*
X141524463Y-81698918D01*
X141545294Y-81684999D01*
X150697180Y-81684999D01*
X150713648Y-81686621D01*
X150677832Y-81773088D01*
X150615000Y-82088967D01*
X150615000Y-82411033D01*
X150677832Y-82726912D01*
X150801082Y-83024463D01*
X150980013Y-83292252D01*
X151207748Y-83519987D01*
X151475537Y-83698918D01*
X151773088Y-83822168D01*
X152088967Y-83885000D01*
X152411033Y-83885000D01*
X152726912Y-83822168D01*
X153024463Y-83698918D01*
X153292252Y-83519987D01*
X153519987Y-83292252D01*
X153698918Y-83024463D01*
X153822168Y-82726912D01*
X153885000Y-82411033D01*
X153885000Y-82088967D01*
X153822168Y-81773088D01*
X153698918Y-81475537D01*
X153519987Y-81207748D01*
X153292252Y-80980013D01*
X153024463Y-80801082D01*
X152726912Y-80677832D01*
X152411033Y-80615000D01*
X152293061Y-80615000D01*
X155865000Y-77043062D01*
X155865001Y-89964239D01*
G37*
X155865001Y-89964239D02*
X155859509Y-90020000D01*
X155881423Y-90242498D01*
X155946324Y-90456446D01*
X155946325Y-90456447D01*
X156051717Y-90653623D01*
X156193552Y-90826449D01*
X156236860Y-90861991D01*
X157271006Y-91896138D01*
X157222499Y-91881423D01*
X157055752Y-91865000D01*
X157000000Y-91859509D01*
X156944248Y-91865000D01*
X156777501Y-91881423D01*
X156563553Y-91946324D01*
X156366377Y-92051716D01*
X156236856Y-92158011D01*
X156236854Y-92158013D01*
X156193551Y-92193551D01*
X156158013Y-92236854D01*
X154279869Y-94115000D01*
X153427239Y-94115000D01*
X153292252Y-93980013D01*
X153024463Y-93801082D01*
X152726912Y-93677832D01*
X152411033Y-93615000D01*
X152088967Y-93615000D01*
X151773088Y-93677832D01*
X151475537Y-93801082D01*
X151207748Y-93980013D01*
X150980013Y-94207748D01*
X150801082Y-94475537D01*
X150677832Y-94773088D01*
X150615000Y-95088967D01*
X150615000Y-95411033D01*
X150677832Y-95726912D01*
X150801082Y-96024463D01*
X150980013Y-96292252D01*
X151207748Y-96519987D01*
X151475537Y-96698918D01*
X151773088Y-96822168D01*
X152088967Y-96885000D01*
X152411033Y-96885000D01*
X152726912Y-96822168D01*
X153024463Y-96698918D01*
X153292252Y-96519987D01*
X153427239Y-96385000D01*
X154694249Y-96385000D01*
X154750000Y-96390491D01*
X154805751Y-96385000D01*
X154805752Y-96385000D01*
X154972499Y-96368577D01*
X155186447Y-96303676D01*
X155383623Y-96198284D01*
X155556449Y-96056449D01*
X155591996Y-96013136D01*
X157763146Y-93841987D01*
X157806449Y-93806449D01*
X157871724Y-93726912D01*
X157948284Y-93633623D01*
X158053676Y-93436447D01*
X158118577Y-93222499D01*
X158140491Y-93000000D01*
X158118577Y-92777501D01*
X158103863Y-92728995D01*
X158515000Y-93140133D01*
X158515000Y-93166260D01*
X158572068Y-93453158D01*
X158684010Y-93723411D01*
X158846525Y-93966632D01*
X159053368Y-94173475D01*
X159227760Y-94290000D01*
X159053368Y-94406525D01*
X158846525Y-94613368D01*
X158684010Y-94856589D01*
X158572068Y-95126842D01*
X158515000Y-95413740D01*
X158515000Y-95706260D01*
X158572068Y-95993158D01*
X158684010Y-96263411D01*
X158846525Y-96506632D01*
X159053368Y-96713475D01*
X159227760Y-96830000D01*
X159053368Y-96946525D01*
X158846525Y-97153368D01*
X158684010Y-97396589D01*
X158572068Y-97666842D01*
X158515000Y-97953740D01*
X158515000Y-98246260D01*
X158572068Y-98533158D01*
X158684010Y-98803411D01*
X158846525Y-99046632D01*
X159053368Y-99253475D01*
X159227760Y-99370000D01*
X159053368Y-99486525D01*
X159034893Y-99505000D01*
X158830132Y-99505000D01*
X158361986Y-99036855D01*
X158326440Y-98993542D01*
X158153614Y-98851707D01*
X157956438Y-98746315D01*
X157742490Y-98681414D01*
X157575743Y-98664991D01*
X157575742Y-98664991D01*
X157519991Y-98659500D01*
X157464240Y-98664991D01*
X153255761Y-98664991D01*
X153200009Y-98659500D01*
X152977510Y-98681414D01*
X152763562Y-98746315D01*
X152566386Y-98851707D01*
X152436865Y-98958002D01*
X152436864Y-98958003D01*
X152393560Y-98993542D01*
X152358022Y-99036845D01*
X148236865Y-103158004D01*
X148193551Y-103193551D01*
X148051716Y-103366377D01*
X147946324Y-103563553D01*
X147881423Y-103777501D01*
X147859509Y-104000000D01*
X147881423Y-104222499D01*
X147946324Y-104436447D01*
X148051716Y-104633623D01*
X148193551Y-104806449D01*
X148366377Y-104948284D01*
X148563553Y-105053676D01*
X148765709Y-105115000D01*
X141927239Y-105115000D01*
X141792252Y-104980013D01*
X141524463Y-104801082D01*
X141226912Y-104677832D01*
X140911033Y-104615000D01*
X140588967Y-104615000D01*
X140273088Y-104677832D01*
X140184999Y-104714320D01*
X140184999Y-101785680D01*
X140273088Y-101822168D01*
X140588967Y-101885000D01*
X140911033Y-101885000D01*
X141226912Y-101822168D01*
X141524463Y-101698918D01*
X141792252Y-101519987D01*
X142019987Y-101292252D01*
X142198918Y-101024463D01*
X142322168Y-100726912D01*
X142385000Y-100411033D01*
X142385000Y-100088967D01*
X142322168Y-99773088D01*
X142198918Y-99475537D01*
X142019987Y-99207748D01*
X141792252Y-98980013D01*
X141524463Y-98801082D01*
X141226912Y-98677832D01*
X140911033Y-98615000D01*
X140588967Y-98615000D01*
X140273088Y-98677832D01*
X140184999Y-98714320D01*
X140184999Y-98588967D01*
X145615000Y-98588967D01*
X145615000Y-98911033D01*
X145677832Y-99226912D01*
X145801082Y-99524463D01*
X145980013Y-99792252D01*
X146207748Y-100019987D01*
X146475537Y-100198918D01*
X146773088Y-100322168D01*
X147088967Y-100385000D01*
X147411033Y-100385000D01*
X147726912Y-100322168D01*
X148024463Y-100198918D01*
X148292252Y-100019987D01*
X148519987Y-99792252D01*
X148698918Y-99524463D01*
X148822168Y-99226912D01*
X148885000Y-98911033D01*
X148885000Y-98588967D01*
X148822168Y-98273088D01*
X148698918Y-97975537D01*
X148519987Y-97707748D01*
X148292252Y-97480013D01*
X148024463Y-97301082D01*
X147726912Y-97177832D01*
X147411033Y-97115000D01*
X147088967Y-97115000D01*
X146773088Y-97177832D01*
X146475537Y-97301082D01*
X146207748Y-97480013D01*
X145980013Y-97707748D01*
X145801082Y-97975537D01*
X145677832Y-98273088D01*
X145615000Y-98588967D01*
X140184999Y-98588967D01*
X140184999Y-94785680D01*
X140273088Y-94822168D01*
X140588967Y-94885000D01*
X140911033Y-94885000D01*
X141226912Y-94822168D01*
X141524463Y-94698918D01*
X141792252Y-94519987D01*
X142019987Y-94292252D01*
X142198918Y-94024463D01*
X142322168Y-93726912D01*
X142385000Y-93411033D01*
X142385000Y-93088967D01*
X142322168Y-92773088D01*
X142198918Y-92475537D01*
X142019987Y-92207748D01*
X141792252Y-91980013D01*
X141524463Y-91801082D01*
X141226912Y-91677832D01*
X140911033Y-91615000D01*
X140588967Y-91615000D01*
X140273088Y-91677832D01*
X140184999Y-91714320D01*
X140184999Y-91588967D01*
X145615000Y-91588967D01*
X145615000Y-91911033D01*
X145677832Y-92226912D01*
X145801082Y-92524463D01*
X145980013Y-92792252D01*
X146207748Y-93019987D01*
X146475537Y-93198918D01*
X146773088Y-93322168D01*
X147088967Y-93385000D01*
X147411033Y-93385000D01*
X147726912Y-93322168D01*
X148024463Y-93198918D01*
X148292252Y-93019987D01*
X148519987Y-92792252D01*
X148698918Y-92524463D01*
X148822168Y-92226912D01*
X148885000Y-91911033D01*
X148885000Y-91588967D01*
X148822168Y-91273088D01*
X148698918Y-90975537D01*
X148519987Y-90707748D01*
X148292252Y-90480013D01*
X148024463Y-90301082D01*
X147726912Y-90177832D01*
X147411033Y-90115000D01*
X147088967Y-90115000D01*
X146773088Y-90177832D01*
X146475537Y-90301082D01*
X146207748Y-90480013D01*
X145980013Y-90707748D01*
X145801082Y-90975537D01*
X145677832Y-91273088D01*
X145615000Y-91588967D01*
X140184999Y-91588967D01*
X140184999Y-88785680D01*
X140273088Y-88822168D01*
X140588967Y-88885000D01*
X140911033Y-88885000D01*
X141226912Y-88822168D01*
X141524463Y-88698918D01*
X141792252Y-88519987D01*
X142019987Y-88292252D01*
X142198918Y-88024463D01*
X142322168Y-87726912D01*
X142385000Y-87411033D01*
X142385000Y-87088967D01*
X142322168Y-86773088D01*
X142198918Y-86475537D01*
X142019987Y-86207748D01*
X141792252Y-85980013D01*
X141524463Y-85801082D01*
X141226912Y-85677832D01*
X140911033Y-85615000D01*
X140588967Y-85615000D01*
X140273088Y-85677832D01*
X140184999Y-85714320D01*
X140184999Y-85588967D01*
X145615000Y-85588967D01*
X145615000Y-85911033D01*
X145677832Y-86226912D01*
X145801082Y-86524463D01*
X145980013Y-86792252D01*
X146207748Y-87019987D01*
X146475537Y-87198918D01*
X146773088Y-87322168D01*
X147088967Y-87385000D01*
X147411033Y-87385000D01*
X147726912Y-87322168D01*
X148024463Y-87198918D01*
X148292252Y-87019987D01*
X148519987Y-86792252D01*
X148698918Y-86524463D01*
X148822168Y-86226912D01*
X148885000Y-85911033D01*
X148885000Y-85588967D01*
X148822168Y-85273088D01*
X148698918Y-84975537D01*
X148519987Y-84707748D01*
X148292252Y-84480013D01*
X148024463Y-84301082D01*
X147726912Y-84177832D01*
X147411033Y-84115000D01*
X147088967Y-84115000D01*
X146773088Y-84177832D01*
X146475537Y-84301082D01*
X146207748Y-84480013D01*
X145980013Y-84707748D01*
X145801082Y-84975537D01*
X145677832Y-85273088D01*
X145615000Y-85588967D01*
X140184999Y-85588967D01*
X140184999Y-81785680D01*
X140273088Y-81822168D01*
X140588967Y-81885000D01*
X140911033Y-81885000D01*
X141226912Y-81822168D01*
X141524463Y-81698918D01*
X141545294Y-81684999D01*
X150697180Y-81684999D01*
X150713648Y-81686621D01*
X150677832Y-81773088D01*
X150615000Y-82088967D01*
X150615000Y-82411033D01*
X150677832Y-82726912D01*
X150801082Y-83024463D01*
X150980013Y-83292252D01*
X151207748Y-83519987D01*
X151475537Y-83698918D01*
X151773088Y-83822168D01*
X152088967Y-83885000D01*
X152411033Y-83885000D01*
X152726912Y-83822168D01*
X153024463Y-83698918D01*
X153292252Y-83519987D01*
X153519987Y-83292252D01*
X153698918Y-83024463D01*
X153822168Y-82726912D01*
X153885000Y-82411033D01*
X153885000Y-82088967D01*
X153822168Y-81773088D01*
X153698918Y-81475537D01*
X153519987Y-81207748D01*
X153292252Y-80980013D01*
X153024463Y-80801082D01*
X152726912Y-80677832D01*
X152411033Y-80615000D01*
X152293061Y-80615000D01*
X155865000Y-77043062D01*
X155865001Y-89964239D01*
G36*
X161386525Y-96506632D02*
G01*
X161593368Y-96713475D01*
X161767760Y-96830000D01*
X161593368Y-96946525D01*
X161386525Y-97153368D01*
X161270000Y-97327760D01*
X161153475Y-97153368D01*
X160946632Y-96946525D01*
X160772240Y-96830000D01*
X160946632Y-96713475D01*
X161153475Y-96506632D01*
X161270000Y-96332240D01*
X161386525Y-96506632D01*
G37*
X161386525Y-96506632D02*
X161593368Y-96713475D01*
X161767760Y-96830000D01*
X161593368Y-96946525D01*
X161386525Y-97153368D01*
X161270000Y-97327760D01*
X161153475Y-97153368D01*
X160946632Y-96946525D01*
X160772240Y-96830000D01*
X160946632Y-96713475D01*
X161153475Y-96506632D01*
X161270000Y-96332240D01*
X161386525Y-96506632D01*
G36*
X161386525Y-93966632D02*
G01*
X161593368Y-94173475D01*
X161767760Y-94290000D01*
X161593368Y-94406525D01*
X161386525Y-94613368D01*
X161270000Y-94787760D01*
X161153475Y-94613368D01*
X160946632Y-94406525D01*
X160772240Y-94290000D01*
X160946632Y-94173475D01*
X161153475Y-93966632D01*
X161270000Y-93792240D01*
X161386525Y-93966632D01*
G37*
X161386525Y-93966632D02*
X161593368Y-94173475D01*
X161767760Y-94290000D01*
X161593368Y-94406525D01*
X161386525Y-94613368D01*
X161270000Y-94787760D01*
X161153475Y-94613368D01*
X160946632Y-94406525D01*
X160772240Y-94290000D01*
X160946632Y-94173475D01*
X161153475Y-93966632D01*
X161270000Y-93792240D01*
X161386525Y-93966632D01*
G36*
X161386525Y-91426632D02*
G01*
X161593368Y-91633475D01*
X161767760Y-91750000D01*
X161593368Y-91866525D01*
X161386525Y-92073368D01*
X161270000Y-92247760D01*
X161153475Y-92073368D01*
X160946632Y-91866525D01*
X160772240Y-91750000D01*
X160946632Y-91633475D01*
X161153475Y-91426632D01*
X161270000Y-91252240D01*
X161386525Y-91426632D01*
G37*
X161386525Y-91426632D02*
X161593368Y-91633475D01*
X161767760Y-91750000D01*
X161593368Y-91866525D01*
X161386525Y-92073368D01*
X161270000Y-92247760D01*
X161153475Y-92073368D01*
X160946632Y-91866525D01*
X160772240Y-91750000D01*
X160946632Y-91633475D01*
X161153475Y-91426632D01*
X161270000Y-91252240D01*
X161386525Y-91426632D01*
G36*
X158515000Y-80440132D02*
G01*
X158515000Y-80466260D01*
X158572068Y-80753158D01*
X158684010Y-81023411D01*
X158846525Y-81266632D01*
X159053368Y-81473475D01*
X159227760Y-81590000D01*
X159053368Y-81706525D01*
X158846525Y-81913368D01*
X158684010Y-82156589D01*
X158572068Y-82426842D01*
X158515000Y-82713740D01*
X158515000Y-83006260D01*
X158572068Y-83293158D01*
X158684010Y-83563411D01*
X158846525Y-83806632D01*
X159053368Y-84013475D01*
X159227760Y-84130000D01*
X159053368Y-84246525D01*
X158846525Y-84453368D01*
X158684010Y-84696589D01*
X158572068Y-84966842D01*
X158515000Y-85253740D01*
X158515000Y-85546260D01*
X158572068Y-85833158D01*
X158684010Y-86103411D01*
X158846525Y-86346632D01*
X159053368Y-86553475D01*
X159227760Y-86670000D01*
X159053368Y-86786525D01*
X158846525Y-86993368D01*
X158684010Y-87236589D01*
X158572068Y-87506842D01*
X158515000Y-87793740D01*
X158515000Y-88086260D01*
X158572068Y-88373158D01*
X158684010Y-88643411D01*
X158846525Y-88886632D01*
X159053368Y-89093475D01*
X159227760Y-89210000D01*
X159053368Y-89326525D01*
X158846525Y-89533368D01*
X158684010Y-89776589D01*
X158589614Y-90004482D01*
X158135000Y-89549869D01*
X158135000Y-80060131D01*
X158515000Y-80440132D01*
G37*
X158515000Y-80440132D02*
X158515000Y-80466260D01*
X158572068Y-80753158D01*
X158684010Y-81023411D01*
X158846525Y-81266632D01*
X159053368Y-81473475D01*
X159227760Y-81590000D01*
X159053368Y-81706525D01*
X158846525Y-81913368D01*
X158684010Y-82156589D01*
X158572068Y-82426842D01*
X158515000Y-82713740D01*
X158515000Y-83006260D01*
X158572068Y-83293158D01*
X158684010Y-83563411D01*
X158846525Y-83806632D01*
X159053368Y-84013475D01*
X159227760Y-84130000D01*
X159053368Y-84246525D01*
X158846525Y-84453368D01*
X158684010Y-84696589D01*
X158572068Y-84966842D01*
X158515000Y-85253740D01*
X158515000Y-85546260D01*
X158572068Y-85833158D01*
X158684010Y-86103411D01*
X158846525Y-86346632D01*
X159053368Y-86553475D01*
X159227760Y-86670000D01*
X159053368Y-86786525D01*
X158846525Y-86993368D01*
X158684010Y-87236589D01*
X158572068Y-87506842D01*
X158515000Y-87793740D01*
X158515000Y-88086260D01*
X158572068Y-88373158D01*
X158684010Y-88643411D01*
X158846525Y-88886632D01*
X159053368Y-89093475D01*
X159227760Y-89210000D01*
X159053368Y-89326525D01*
X158846525Y-89533368D01*
X158684010Y-89776589D01*
X158589614Y-90004482D01*
X158135000Y-89549869D01*
X158135000Y-80060131D01*
X158515000Y-80440132D01*
G36*
X161386525Y-88886632D02*
G01*
X161593368Y-89093475D01*
X161767760Y-89210000D01*
X161593368Y-89326525D01*
X161386525Y-89533368D01*
X161270000Y-89707760D01*
X161153475Y-89533368D01*
X160946632Y-89326525D01*
X160772240Y-89210000D01*
X160946632Y-89093475D01*
X161153475Y-88886632D01*
X161270000Y-88712240D01*
X161386525Y-88886632D01*
G37*
X161386525Y-88886632D02*
X161593368Y-89093475D01*
X161767760Y-89210000D01*
X161593368Y-89326525D01*
X161386525Y-89533368D01*
X161270000Y-89707760D01*
X161153475Y-89533368D01*
X160946632Y-89326525D01*
X160772240Y-89210000D01*
X160946632Y-89093475D01*
X161153475Y-88886632D01*
X161270000Y-88712240D01*
X161386525Y-88886632D01*
G36*
X161386525Y-86346632D02*
G01*
X161593368Y-86553475D01*
X161767760Y-86670000D01*
X161593368Y-86786525D01*
X161386525Y-86993368D01*
X161270000Y-87167760D01*
X161153475Y-86993368D01*
X160946632Y-86786525D01*
X160772240Y-86670000D01*
X160946632Y-86553475D01*
X161153475Y-86346632D01*
X161270000Y-86172240D01*
X161386525Y-86346632D01*
G37*
X161386525Y-86346632D02*
X161593368Y-86553475D01*
X161767760Y-86670000D01*
X161593368Y-86786525D01*
X161386525Y-86993368D01*
X161270000Y-87167760D01*
X161153475Y-86993368D01*
X160946632Y-86786525D01*
X160772240Y-86670000D01*
X160946632Y-86553475D01*
X161153475Y-86346632D01*
X161270000Y-86172240D01*
X161386525Y-86346632D01*
G36*
X161386525Y-83806632D02*
G01*
X161593368Y-84013475D01*
X161767760Y-84130000D01*
X161593368Y-84246525D01*
X161386525Y-84453368D01*
X161270000Y-84627760D01*
X161153475Y-84453368D01*
X160946632Y-84246525D01*
X160772240Y-84130000D01*
X160946632Y-84013475D01*
X161153475Y-83806632D01*
X161270000Y-83632240D01*
X161386525Y-83806632D01*
G37*
X161386525Y-83806632D02*
X161593368Y-84013475D01*
X161767760Y-84130000D01*
X161593368Y-84246525D01*
X161386525Y-84453368D01*
X161270000Y-84627760D01*
X161153475Y-84453368D01*
X160946632Y-84246525D01*
X160772240Y-84130000D01*
X160946632Y-84013475D01*
X161153475Y-83806632D01*
X161270000Y-83632240D01*
X161386525Y-83806632D01*
G36*
X161386525Y-81266632D02*
G01*
X161593368Y-81473475D01*
X161767760Y-81590000D01*
X161593368Y-81706525D01*
X161386525Y-81913368D01*
X161270000Y-82087760D01*
X161153475Y-81913368D01*
X160946632Y-81706525D01*
X160772240Y-81590000D01*
X160946632Y-81473475D01*
X161153475Y-81266632D01*
X161270000Y-81092240D01*
X161386525Y-81266632D01*
G37*
X161386525Y-81266632D02*
X161593368Y-81473475D01*
X161767760Y-81590000D01*
X161593368Y-81706525D01*
X161386525Y-81913368D01*
X161270000Y-82087760D01*
X161153475Y-81913368D01*
X160946632Y-81706525D01*
X160772240Y-81590000D01*
X160946632Y-81473475D01*
X161153475Y-81266632D01*
X161270000Y-81092240D01*
X161386525Y-81266632D01*
G36*
X153609509Y-68035998D02*
G01*
X153615001Y-68091759D01*
X153615000Y-70072761D01*
X153480013Y-70207748D01*
X153301082Y-70475537D01*
X153177832Y-70773088D01*
X153115000Y-71088967D01*
X153115000Y-71411033D01*
X153177832Y-71726912D01*
X153301082Y-72024463D01*
X153480013Y-72292252D01*
X153707748Y-72519987D01*
X153975537Y-72698918D01*
X154142708Y-72768163D01*
X153295871Y-73615000D01*
X150927239Y-73615000D01*
X150792252Y-73480013D01*
X150524463Y-73301082D01*
X150226912Y-73177832D01*
X149911033Y-73115000D01*
X149588967Y-73115000D01*
X149273088Y-73177832D01*
X148975537Y-73301082D01*
X148707748Y-73480013D01*
X148480013Y-73707748D01*
X148301082Y-73975537D01*
X148177832Y-74273088D01*
X148115000Y-74588967D01*
X148115000Y-74911033D01*
X148177832Y-75226912D01*
X148301082Y-75524463D01*
X148480013Y-75792252D01*
X148707748Y-76019987D01*
X148975537Y-76198918D01*
X149273088Y-76322168D01*
X149588967Y-76385000D01*
X149911033Y-76385000D01*
X150226912Y-76322168D01*
X150524463Y-76198918D01*
X150792252Y-76019987D01*
X150927239Y-75885000D01*
X153710251Y-75885000D01*
X153766002Y-75890491D01*
X153811819Y-75885978D01*
X150282800Y-79414999D01*
X148744260Y-79414999D01*
X148822168Y-79226912D01*
X148885000Y-78911033D01*
X148885000Y-78588967D01*
X148822168Y-78273088D01*
X148698918Y-77975537D01*
X148519987Y-77707748D01*
X148292252Y-77480013D01*
X148024463Y-77301082D01*
X147726912Y-77177832D01*
X147411033Y-77115000D01*
X147088967Y-77115000D01*
X146773088Y-77177832D01*
X146475537Y-77301082D01*
X146207748Y-77480013D01*
X145980013Y-77707748D01*
X145801082Y-77975537D01*
X145677832Y-78273088D01*
X145615000Y-78588967D01*
X145615000Y-78911033D01*
X145677832Y-79226912D01*
X145755740Y-79414999D01*
X142158468Y-79414999D01*
X142118046Y-79354503D01*
X142151997Y-79313134D01*
X153629215Y-67835917D01*
X153609509Y-68035998D01*
G37*
X153609509Y-68035998D02*
X153615001Y-68091759D01*
X153615000Y-70072761D01*
X153480013Y-70207748D01*
X153301082Y-70475537D01*
X153177832Y-70773088D01*
X153115000Y-71088967D01*
X153115000Y-71411033D01*
X153177832Y-71726912D01*
X153301082Y-72024463D01*
X153480013Y-72292252D01*
X153707748Y-72519987D01*
X153975537Y-72698918D01*
X154142708Y-72768163D01*
X153295871Y-73615000D01*
X150927239Y-73615000D01*
X150792252Y-73480013D01*
X150524463Y-73301082D01*
X150226912Y-73177832D01*
X149911033Y-73115000D01*
X149588967Y-73115000D01*
X149273088Y-73177832D01*
X148975537Y-73301082D01*
X148707748Y-73480013D01*
X148480013Y-73707748D01*
X148301082Y-73975537D01*
X148177832Y-74273088D01*
X148115000Y-74588967D01*
X148115000Y-74911033D01*
X148177832Y-75226912D01*
X148301082Y-75524463D01*
X148480013Y-75792252D01*
X148707748Y-76019987D01*
X148975537Y-76198918D01*
X149273088Y-76322168D01*
X149588967Y-76385000D01*
X149911033Y-76385000D01*
X150226912Y-76322168D01*
X150524463Y-76198918D01*
X150792252Y-76019987D01*
X150927239Y-75885000D01*
X153710251Y-75885000D01*
X153766002Y-75890491D01*
X153811819Y-75885978D01*
X150282800Y-79414999D01*
X148744260Y-79414999D01*
X148822168Y-79226912D01*
X148885000Y-78911033D01*
X148885000Y-78588967D01*
X148822168Y-78273088D01*
X148698918Y-77975537D01*
X148519987Y-77707748D01*
X148292252Y-77480013D01*
X148024463Y-77301082D01*
X147726912Y-77177832D01*
X147411033Y-77115000D01*
X147088967Y-77115000D01*
X146773088Y-77177832D01*
X146475537Y-77301082D01*
X146207748Y-77480013D01*
X145980013Y-77707748D01*
X145801082Y-77975537D01*
X145677832Y-78273088D01*
X145615000Y-78588967D01*
X145615000Y-78911033D01*
X145677832Y-79226912D01*
X145755740Y-79414999D01*
X142158468Y-79414999D01*
X142118046Y-79354503D01*
X142151997Y-79313134D01*
X153629215Y-67835917D01*
X153609509Y-68035998D01*
G36*
X159053368Y-71313475D02*
G01*
X159227760Y-71430000D01*
X159053368Y-71546525D01*
X158846525Y-71753368D01*
X158684010Y-71996589D01*
X158572068Y-72266842D01*
X158515000Y-72553740D01*
X158515000Y-72846260D01*
X158572068Y-73133158D01*
X158684010Y-73403411D01*
X158846525Y-73646632D01*
X159053368Y-73853475D01*
X159227760Y-73970000D01*
X159053368Y-74086525D01*
X158846525Y-74293368D01*
X158746006Y-74443805D01*
X158339056Y-74036854D01*
X158303509Y-73993541D01*
X158130683Y-73851706D01*
X157933507Y-73746314D01*
X157719559Y-73681413D01*
X157552812Y-73664990D01*
X157552811Y-73664990D01*
X157497060Y-73659499D01*
X157441309Y-73664990D01*
X156558692Y-73664990D01*
X156502940Y-73659499D01*
X156457122Y-73664012D01*
X158930513Y-71190620D01*
X159053368Y-71313475D01*
G37*
X159053368Y-71313475D02*
X159227760Y-71430000D01*
X159053368Y-71546525D01*
X158846525Y-71753368D01*
X158684010Y-71996589D01*
X158572068Y-72266842D01*
X158515000Y-72553740D01*
X158515000Y-72846260D01*
X158572068Y-73133158D01*
X158684010Y-73403411D01*
X158846525Y-73646632D01*
X159053368Y-73853475D01*
X159227760Y-73970000D01*
X159053368Y-74086525D01*
X158846525Y-74293368D01*
X158746006Y-74443805D01*
X158339056Y-74036854D01*
X158303509Y-73993541D01*
X158130683Y-73851706D01*
X157933507Y-73746314D01*
X157719559Y-73681413D01*
X157552812Y-73664990D01*
X157552811Y-73664990D01*
X157497060Y-73659499D01*
X157441309Y-73664990D01*
X156558692Y-73664990D01*
X156502940Y-73659499D01*
X156457122Y-73664012D01*
X158930513Y-71190620D01*
X159053368Y-71313475D01*
G36*
X157314999Y-69595871D02*
G01*
X156268163Y-70642708D01*
X156198918Y-70475537D01*
X156019987Y-70207748D01*
X155885000Y-70072761D01*
X155885000Y-68506129D01*
X157315000Y-67076129D01*
X157314999Y-69595871D01*
G37*
X157314999Y-69595871D02*
X156268163Y-70642708D01*
X156198918Y-70475537D01*
X156019987Y-70207748D01*
X155885000Y-70072761D01*
X155885000Y-68506129D01*
X157315000Y-67076129D01*
X157314999Y-69595871D01*
M02*
