%TF.GenerationSoftware,KiCad,Pcbnew,(5.1.6)-1*%
%TF.CreationDate,2022-01-17T21:19:15-08:00*%
%TF.ProjectId,PCB,5043422e-6b69-4636-9164-5f7063625858,rev?*%
%TF.SameCoordinates,Original*%
%TF.FileFunction,Legend,Top*%
%TF.FilePolarity,Positive*%
%FSLAX46Y46*%
G04 Gerber Fmt 4.6, Leading zero omitted, Abs format (unit mm)*
G04 Created by KiCad (PCBNEW (5.1.6)-1) date 2022-01-17 21:19:15*
%MOMM*%
%LPD*%
G01*
G04 APERTURE LIST*
%ADD10C,0.120000*%
%ADD11C,0.150000*%
G04 APERTURE END LIST*
D10*
%TO.C,J7*%
X158670000Y-58670000D02*
X160000000Y-58670000D01*
X158670000Y-60000000D02*
X158670000Y-58670000D01*
X161270000Y-58670000D02*
X163870000Y-58670000D01*
X161270000Y-61270000D02*
X161270000Y-58670000D01*
X158670000Y-61270000D02*
X161270000Y-61270000D01*
X163870000Y-58670000D02*
X163870000Y-109590000D01*
X158670000Y-61270000D02*
X158670000Y-109590000D01*
X158670000Y-109590000D02*
X163870000Y-109590000D01*
%TO.C,J17*%
X157000000Y-76500000D02*
X144900000Y-76500000D01*
X157000000Y-68000000D02*
X157000000Y-76500000D01*
X157000000Y-68000000D02*
X144900000Y-68000000D01*
X144900000Y-68000000D02*
X144900000Y-76500000D01*
%TO.C,J16*%
X157000000Y-67500000D02*
X144900000Y-67500000D01*
X157000000Y-59000000D02*
X157000000Y-67500000D01*
X157000000Y-59000000D02*
X144900000Y-59000000D01*
X144900000Y-59000000D02*
X144900000Y-67500000D01*
%TO.C,J15*%
X143000000Y-76500000D02*
X130900000Y-76500000D01*
X143000000Y-68000000D02*
X143000000Y-76500000D01*
X143000000Y-68000000D02*
X130900000Y-68000000D01*
X130900000Y-68000000D02*
X130900000Y-76500000D01*
%TO.C,J14*%
X143000000Y-67500000D02*
X130900000Y-67500000D01*
X143000000Y-59000000D02*
X143000000Y-67500000D01*
X143000000Y-59000000D02*
X130900000Y-59000000D01*
X130900000Y-59000000D02*
X130900000Y-67500000D01*
%TO.C,J13*%
X157000000Y-111500000D02*
X144900000Y-111500000D01*
X157000000Y-103000000D02*
X157000000Y-111500000D01*
X157000000Y-103000000D02*
X144900000Y-103000000D01*
X144900000Y-103000000D02*
X144900000Y-111500000D01*
%TO.C,J12*%
X129000000Y-76500000D02*
X116900000Y-76500000D01*
X129000000Y-68000000D02*
X129000000Y-76500000D01*
X129000000Y-68000000D02*
X116900000Y-68000000D01*
X116900000Y-68000000D02*
X116900000Y-76500000D01*
%TO.C,J11*%
X129000000Y-67500000D02*
X116900000Y-67500000D01*
X129000000Y-59000000D02*
X129000000Y-67500000D01*
X129000000Y-59000000D02*
X116900000Y-59000000D01*
X116900000Y-59000000D02*
X116900000Y-67500000D01*
%TO.C,J10*%
X143000000Y-89000000D02*
X130900000Y-89000000D01*
X130900000Y-77000000D02*
X130900000Y-89000000D01*
X143000000Y-77000000D02*
X143000000Y-89000000D01*
X143000000Y-77000000D02*
X130900000Y-77000000D01*
%TO.C,J9*%
X143000000Y-102000000D02*
X130900000Y-102000000D01*
X130900000Y-90000000D02*
X130900000Y-102000000D01*
X143000000Y-90000000D02*
X143000000Y-102000000D01*
X143000000Y-90000000D02*
X130900000Y-90000000D01*
%TO.C,J8*%
X143000000Y-112000000D02*
X143000000Y-124100000D01*
X131000000Y-124100000D02*
X143000000Y-124100000D01*
X131000000Y-112000000D02*
X143000000Y-112000000D01*
X131000000Y-112000000D02*
X131000000Y-124100000D01*
%TO.C,J6*%
X145000000Y-90000000D02*
X157100000Y-90000000D01*
X157100000Y-102000000D02*
X157100000Y-90000000D01*
X145000000Y-102000000D02*
X145000000Y-90000000D01*
X145000000Y-102000000D02*
X157100000Y-102000000D01*
%TO.C,J5*%
X157000000Y-112000000D02*
X157000000Y-124100000D01*
X145000000Y-124100000D02*
X157000000Y-124100000D01*
X145000000Y-112000000D02*
X157000000Y-112000000D01*
X145000000Y-112000000D02*
X145000000Y-124100000D01*
%TO.C,J4*%
X145000000Y-77000000D02*
X157100000Y-77000000D01*
X157100000Y-89000000D02*
X157100000Y-77000000D01*
X145000000Y-89000000D02*
X145000000Y-77000000D01*
X145000000Y-89000000D02*
X157100000Y-89000000D01*
%TO.C,J3*%
X129000000Y-102000000D02*
X116900000Y-102000000D01*
X116900000Y-90000000D02*
X116900000Y-102000000D01*
X129000000Y-90000000D02*
X129000000Y-102000000D01*
X129000000Y-90000000D02*
X116900000Y-90000000D01*
%TO.C,J2*%
X129000000Y-89000000D02*
X116900000Y-89000000D01*
X116900000Y-77000000D02*
X116900000Y-89000000D01*
X129000000Y-77000000D02*
X129000000Y-89000000D01*
X129000000Y-77000000D02*
X116900000Y-77000000D01*
%TO.C,J1*%
X143000000Y-111500000D02*
X130900000Y-111500000D01*
X143000000Y-103000000D02*
X143000000Y-111500000D01*
X143000000Y-103000000D02*
X130900000Y-103000000D01*
X130900000Y-103000000D02*
X130900000Y-111500000D01*
%TO.C,J7*%
D11*
X160936666Y-57452380D02*
X160936666Y-58166666D01*
X160889047Y-58309523D01*
X160793809Y-58404761D01*
X160650952Y-58452380D01*
X160555714Y-58452380D01*
X161317619Y-57452380D02*
X161984285Y-57452380D01*
X161555714Y-58452380D01*
%TO.C,J17*%
X151452380Y-73809523D02*
X152166666Y-73809523D01*
X152309523Y-73857142D01*
X152404761Y-73952380D01*
X152452380Y-74095238D01*
X152452380Y-74190476D01*
X152452380Y-72809523D02*
X152452380Y-73380952D01*
X152452380Y-73095238D02*
X151452380Y-73095238D01*
X151595238Y-73190476D01*
X151690476Y-73285714D01*
X151738095Y-73380952D01*
X151452380Y-72476190D02*
X151452380Y-71809523D01*
X152452380Y-72238095D01*
X144452380Y-74547619D02*
X143452380Y-74547619D01*
X143547619Y-74119047D02*
X143500000Y-74071428D01*
X143452380Y-73976190D01*
X143452380Y-73738095D01*
X143500000Y-73642857D01*
X143547619Y-73595238D01*
X143642857Y-73547619D01*
X143738095Y-73547619D01*
X143880952Y-73595238D01*
X144452380Y-74166666D01*
X144452380Y-73547619D01*
X144357142Y-72547619D02*
X144404761Y-72595238D01*
X144452380Y-72738095D01*
X144452380Y-72833333D01*
X144404761Y-72976190D01*
X144309523Y-73071428D01*
X144214285Y-73119047D01*
X144023809Y-73166666D01*
X143880952Y-73166666D01*
X143690476Y-73119047D01*
X143595238Y-73071428D01*
X143500000Y-72976190D01*
X143452380Y-72833333D01*
X143452380Y-72738095D01*
X143500000Y-72595238D01*
X143547619Y-72547619D01*
X143547619Y-71404761D02*
X143500000Y-71357142D01*
X143452380Y-71261904D01*
X143452380Y-71023809D01*
X143500000Y-70928571D01*
X143547619Y-70880952D01*
X143642857Y-70833333D01*
X143738095Y-70833333D01*
X143880952Y-70880952D01*
X144452380Y-71452380D01*
X144452380Y-70833333D01*
X144357142Y-70404761D02*
X144404761Y-70357142D01*
X144452380Y-70404761D01*
X144404761Y-70452380D01*
X144357142Y-70404761D01*
X144452380Y-70404761D01*
X143452380Y-70023809D02*
X143452380Y-69404761D01*
X143833333Y-69738095D01*
X143833333Y-69595238D01*
X143880952Y-69500000D01*
X143928571Y-69452380D01*
X144023809Y-69404761D01*
X144261904Y-69404761D01*
X144357142Y-69452380D01*
X144404761Y-69500000D01*
X144452380Y-69595238D01*
X144452380Y-69880952D01*
X144404761Y-69976190D01*
X144357142Y-70023809D01*
%TO.C,J16*%
X151452380Y-64809523D02*
X152166666Y-64809523D01*
X152309523Y-64857142D01*
X152404761Y-64952380D01*
X152452380Y-65095238D01*
X152452380Y-65190476D01*
X152452380Y-63809523D02*
X152452380Y-64380952D01*
X152452380Y-64095238D02*
X151452380Y-64095238D01*
X151595238Y-64190476D01*
X151690476Y-64285714D01*
X151738095Y-64380952D01*
X151452380Y-62952380D02*
X151452380Y-63142857D01*
X151500000Y-63238095D01*
X151547619Y-63285714D01*
X151690476Y-63380952D01*
X151880952Y-63428571D01*
X152261904Y-63428571D01*
X152357142Y-63380952D01*
X152404761Y-63333333D01*
X152452380Y-63238095D01*
X152452380Y-63047619D01*
X152404761Y-62952380D01*
X152357142Y-62904761D01*
X152261904Y-62857142D01*
X152023809Y-62857142D01*
X151928571Y-62904761D01*
X151880952Y-62952380D01*
X151833333Y-63047619D01*
X151833333Y-63238095D01*
X151880952Y-63333333D01*
X151928571Y-63380952D01*
X152023809Y-63428571D01*
X144452380Y-65547619D02*
X143452380Y-65547619D01*
X143547619Y-65119047D02*
X143500000Y-65071428D01*
X143452380Y-64976190D01*
X143452380Y-64738095D01*
X143500000Y-64642857D01*
X143547619Y-64595238D01*
X143642857Y-64547619D01*
X143738095Y-64547619D01*
X143880952Y-64595238D01*
X144452380Y-65166666D01*
X144452380Y-64547619D01*
X144357142Y-63547619D02*
X144404761Y-63595238D01*
X144452380Y-63738095D01*
X144452380Y-63833333D01*
X144404761Y-63976190D01*
X144309523Y-64071428D01*
X144214285Y-64119047D01*
X144023809Y-64166666D01*
X143880952Y-64166666D01*
X143690476Y-64119047D01*
X143595238Y-64071428D01*
X143500000Y-63976190D01*
X143452380Y-63833333D01*
X143452380Y-63738095D01*
X143500000Y-63595238D01*
X143547619Y-63547619D01*
X144452380Y-61833333D02*
X144452380Y-62404761D01*
X144452380Y-62119047D02*
X143452380Y-62119047D01*
X143595238Y-62214285D01*
X143690476Y-62309523D01*
X143738095Y-62404761D01*
X144357142Y-61404761D02*
X144404761Y-61357142D01*
X144452380Y-61404761D01*
X144404761Y-61452380D01*
X144357142Y-61404761D01*
X144452380Y-61404761D01*
X143452380Y-61023809D02*
X143452380Y-60404761D01*
X143833333Y-60738095D01*
X143833333Y-60595238D01*
X143880952Y-60500000D01*
X143928571Y-60452380D01*
X144023809Y-60404761D01*
X144261904Y-60404761D01*
X144357142Y-60452380D01*
X144404761Y-60500000D01*
X144452380Y-60595238D01*
X144452380Y-60880952D01*
X144404761Y-60976190D01*
X144357142Y-61023809D01*
%TO.C,J15*%
X137452380Y-73809523D02*
X138166666Y-73809523D01*
X138309523Y-73857142D01*
X138404761Y-73952380D01*
X138452380Y-74095238D01*
X138452380Y-74190476D01*
X138452380Y-72809523D02*
X138452380Y-73380952D01*
X138452380Y-73095238D02*
X137452380Y-73095238D01*
X137595238Y-73190476D01*
X137690476Y-73285714D01*
X137738095Y-73380952D01*
X137452380Y-71904761D02*
X137452380Y-72380952D01*
X137928571Y-72428571D01*
X137880952Y-72380952D01*
X137833333Y-72285714D01*
X137833333Y-72047619D01*
X137880952Y-71952380D01*
X137928571Y-71904761D01*
X138023809Y-71857142D01*
X138261904Y-71857142D01*
X138357142Y-71904761D01*
X138404761Y-71952380D01*
X138452380Y-72047619D01*
X138452380Y-72285714D01*
X138404761Y-72380952D01*
X138357142Y-72428571D01*
X130452380Y-74547619D02*
X129452380Y-74547619D01*
X129547619Y-74119047D02*
X129500000Y-74071428D01*
X129452380Y-73976190D01*
X129452380Y-73738095D01*
X129500000Y-73642857D01*
X129547619Y-73595238D01*
X129642857Y-73547619D01*
X129738095Y-73547619D01*
X129880952Y-73595238D01*
X130452380Y-74166666D01*
X130452380Y-73547619D01*
X130357142Y-72547619D02*
X130404761Y-72595238D01*
X130452380Y-72738095D01*
X130452380Y-72833333D01*
X130404761Y-72976190D01*
X130309523Y-73071428D01*
X130214285Y-73119047D01*
X130023809Y-73166666D01*
X129880952Y-73166666D01*
X129690476Y-73119047D01*
X129595238Y-73071428D01*
X129500000Y-72976190D01*
X129452380Y-72833333D01*
X129452380Y-72738095D01*
X129500000Y-72595238D01*
X129547619Y-72547619D01*
X129547619Y-71404761D02*
X129500000Y-71357142D01*
X129452380Y-71261904D01*
X129452380Y-71023809D01*
X129500000Y-70928571D01*
X129547619Y-70880952D01*
X129642857Y-70833333D01*
X129738095Y-70833333D01*
X129880952Y-70880952D01*
X130452380Y-71452380D01*
X130452380Y-70833333D01*
X130357142Y-70404761D02*
X130404761Y-70357142D01*
X130452380Y-70404761D01*
X130404761Y-70452380D01*
X130357142Y-70404761D01*
X130452380Y-70404761D01*
X129547619Y-69976190D02*
X129500000Y-69928571D01*
X129452380Y-69833333D01*
X129452380Y-69595238D01*
X129500000Y-69500000D01*
X129547619Y-69452380D01*
X129642857Y-69404761D01*
X129738095Y-69404761D01*
X129880952Y-69452380D01*
X130452380Y-70023809D01*
X130452380Y-69404761D01*
%TO.C,J14*%
X137452380Y-64809523D02*
X138166666Y-64809523D01*
X138309523Y-64857142D01*
X138404761Y-64952380D01*
X138452380Y-65095238D01*
X138452380Y-65190476D01*
X138452380Y-63809523D02*
X138452380Y-64380952D01*
X138452380Y-64095238D02*
X137452380Y-64095238D01*
X137595238Y-64190476D01*
X137690476Y-64285714D01*
X137738095Y-64380952D01*
X137785714Y-62952380D02*
X138452380Y-62952380D01*
X137404761Y-63190476D02*
X138119047Y-63428571D01*
X138119047Y-62809523D01*
X130452380Y-65547619D02*
X129452380Y-65547619D01*
X129547619Y-65119047D02*
X129500000Y-65071428D01*
X129452380Y-64976190D01*
X129452380Y-64738095D01*
X129500000Y-64642857D01*
X129547619Y-64595238D01*
X129642857Y-64547619D01*
X129738095Y-64547619D01*
X129880952Y-64595238D01*
X130452380Y-65166666D01*
X130452380Y-64547619D01*
X130357142Y-63547619D02*
X130404761Y-63595238D01*
X130452380Y-63738095D01*
X130452380Y-63833333D01*
X130404761Y-63976190D01*
X130309523Y-64071428D01*
X130214285Y-64119047D01*
X130023809Y-64166666D01*
X129880952Y-64166666D01*
X129690476Y-64119047D01*
X129595238Y-64071428D01*
X129500000Y-63976190D01*
X129452380Y-63833333D01*
X129452380Y-63738095D01*
X129500000Y-63595238D01*
X129547619Y-63547619D01*
X130452380Y-61833333D02*
X130452380Y-62404761D01*
X130452380Y-62119047D02*
X129452380Y-62119047D01*
X129595238Y-62214285D01*
X129690476Y-62309523D01*
X129738095Y-62404761D01*
X130357142Y-61404761D02*
X130404761Y-61357142D01*
X130452380Y-61404761D01*
X130404761Y-61452380D01*
X130357142Y-61404761D01*
X130452380Y-61404761D01*
X129547619Y-60976190D02*
X129500000Y-60928571D01*
X129452380Y-60833333D01*
X129452380Y-60595238D01*
X129500000Y-60500000D01*
X129547619Y-60452380D01*
X129642857Y-60404761D01*
X129738095Y-60404761D01*
X129880952Y-60452380D01*
X130452380Y-61023809D01*
X130452380Y-60404761D01*
%TO.C,J13*%
X151452380Y-108809523D02*
X152166666Y-108809523D01*
X152309523Y-108857142D01*
X152404761Y-108952380D01*
X152452380Y-109095238D01*
X152452380Y-109190476D01*
X152452380Y-107809523D02*
X152452380Y-108380952D01*
X152452380Y-108095238D02*
X151452380Y-108095238D01*
X151595238Y-108190476D01*
X151690476Y-108285714D01*
X151738095Y-108380952D01*
X151452380Y-107476190D02*
X151452380Y-106857142D01*
X151833333Y-107190476D01*
X151833333Y-107047619D01*
X151880952Y-106952380D01*
X151928571Y-106904761D01*
X152023809Y-106857142D01*
X152261904Y-106857142D01*
X152357142Y-106904761D01*
X152404761Y-106952380D01*
X152452380Y-107047619D01*
X152452380Y-107333333D01*
X152404761Y-107428571D01*
X152357142Y-107476190D01*
X144452380Y-108404761D02*
X143452380Y-108404761D01*
X143452380Y-108023809D01*
X143500000Y-107928571D01*
X143547619Y-107880952D01*
X143642857Y-107833333D01*
X143785714Y-107833333D01*
X143880952Y-107880952D01*
X143928571Y-107928571D01*
X143976190Y-108023809D01*
X143976190Y-108404761D01*
X143452380Y-107500000D02*
X144452380Y-107261904D01*
X143738095Y-107071428D01*
X144452380Y-106880952D01*
X143452380Y-106642857D01*
X144452380Y-106261904D02*
X143452380Y-106261904D01*
X144166666Y-105928571D01*
X143452380Y-105595238D01*
X144452380Y-105595238D01*
%TO.C,J12*%
X123452380Y-73809523D02*
X124166666Y-73809523D01*
X124309523Y-73857142D01*
X124404761Y-73952380D01*
X124452380Y-74095238D01*
X124452380Y-74190476D01*
X124452380Y-72809523D02*
X124452380Y-73380952D01*
X124452380Y-73095238D02*
X123452380Y-73095238D01*
X123595238Y-73190476D01*
X123690476Y-73285714D01*
X123738095Y-73380952D01*
X123547619Y-72428571D02*
X123500000Y-72380952D01*
X123452380Y-72285714D01*
X123452380Y-72047619D01*
X123500000Y-71952380D01*
X123547619Y-71904761D01*
X123642857Y-71857142D01*
X123738095Y-71857142D01*
X123880952Y-71904761D01*
X124452380Y-72476190D01*
X124452380Y-71857142D01*
X116452380Y-74547619D02*
X115452380Y-74547619D01*
X115547619Y-74119047D02*
X115500000Y-74071428D01*
X115452380Y-73976190D01*
X115452380Y-73738095D01*
X115500000Y-73642857D01*
X115547619Y-73595238D01*
X115642857Y-73547619D01*
X115738095Y-73547619D01*
X115880952Y-73595238D01*
X116452380Y-74166666D01*
X116452380Y-73547619D01*
X116357142Y-72547619D02*
X116404761Y-72595238D01*
X116452380Y-72738095D01*
X116452380Y-72833333D01*
X116404761Y-72976190D01*
X116309523Y-73071428D01*
X116214285Y-73119047D01*
X116023809Y-73166666D01*
X115880952Y-73166666D01*
X115690476Y-73119047D01*
X115595238Y-73071428D01*
X115500000Y-72976190D01*
X115452380Y-72833333D01*
X115452380Y-72738095D01*
X115500000Y-72595238D01*
X115547619Y-72547619D01*
X115547619Y-71404761D02*
X115500000Y-71357142D01*
X115452380Y-71261904D01*
X115452380Y-71023809D01*
X115500000Y-70928571D01*
X115547619Y-70880952D01*
X115642857Y-70833333D01*
X115738095Y-70833333D01*
X115880952Y-70880952D01*
X116452380Y-71452380D01*
X116452380Y-70833333D01*
X116357142Y-70404761D02*
X116404761Y-70357142D01*
X116452380Y-70404761D01*
X116404761Y-70452380D01*
X116357142Y-70404761D01*
X116452380Y-70404761D01*
X116452380Y-69404761D02*
X116452380Y-69976190D01*
X116452380Y-69690476D02*
X115452380Y-69690476D01*
X115595238Y-69785714D01*
X115690476Y-69880952D01*
X115738095Y-69976190D01*
%TO.C,J11*%
X123452380Y-64809523D02*
X124166666Y-64809523D01*
X124309523Y-64857142D01*
X124404761Y-64952380D01*
X124452380Y-65095238D01*
X124452380Y-65190476D01*
X124452380Y-63809523D02*
X124452380Y-64380952D01*
X124452380Y-64095238D02*
X123452380Y-64095238D01*
X123595238Y-64190476D01*
X123690476Y-64285714D01*
X123738095Y-64380952D01*
X124452380Y-62857142D02*
X124452380Y-63428571D01*
X124452380Y-63142857D02*
X123452380Y-63142857D01*
X123595238Y-63238095D01*
X123690476Y-63333333D01*
X123738095Y-63428571D01*
X116452380Y-65547619D02*
X115452380Y-65547619D01*
X115547619Y-65119047D02*
X115500000Y-65071428D01*
X115452380Y-64976190D01*
X115452380Y-64738095D01*
X115500000Y-64642857D01*
X115547619Y-64595238D01*
X115642857Y-64547619D01*
X115738095Y-64547619D01*
X115880952Y-64595238D01*
X116452380Y-65166666D01*
X116452380Y-64547619D01*
X116357142Y-63547619D02*
X116404761Y-63595238D01*
X116452380Y-63738095D01*
X116452380Y-63833333D01*
X116404761Y-63976190D01*
X116309523Y-64071428D01*
X116214285Y-64119047D01*
X116023809Y-64166666D01*
X115880952Y-64166666D01*
X115690476Y-64119047D01*
X115595238Y-64071428D01*
X115500000Y-63976190D01*
X115452380Y-63833333D01*
X115452380Y-63738095D01*
X115500000Y-63595238D01*
X115547619Y-63547619D01*
X116452380Y-61833333D02*
X116452380Y-62404761D01*
X116452380Y-62119047D02*
X115452380Y-62119047D01*
X115595238Y-62214285D01*
X115690476Y-62309523D01*
X115738095Y-62404761D01*
X116357142Y-61404761D02*
X116404761Y-61357142D01*
X116452380Y-61404761D01*
X116404761Y-61452380D01*
X116357142Y-61404761D01*
X116452380Y-61404761D01*
X116452380Y-60404761D02*
X116452380Y-60976190D01*
X116452380Y-60690476D02*
X115452380Y-60690476D01*
X115595238Y-60785714D01*
X115690476Y-60880952D01*
X115738095Y-60976190D01*
%TO.C,J10*%
X137452380Y-83809523D02*
X138166666Y-83809523D01*
X138309523Y-83857142D01*
X138404761Y-83952380D01*
X138452380Y-84095238D01*
X138452380Y-84190476D01*
X138452380Y-82809523D02*
X138452380Y-83380952D01*
X138452380Y-83095238D02*
X137452380Y-83095238D01*
X137595238Y-83190476D01*
X137690476Y-83285714D01*
X137738095Y-83380952D01*
X137452380Y-82190476D02*
X137452380Y-82095238D01*
X137500000Y-82000000D01*
X137547619Y-81952380D01*
X137642857Y-81904761D01*
X137833333Y-81857142D01*
X138071428Y-81857142D01*
X138261904Y-81904761D01*
X138357142Y-81952380D01*
X138404761Y-82000000D01*
X138452380Y-82095238D01*
X138452380Y-82190476D01*
X138404761Y-82285714D01*
X138357142Y-82333333D01*
X138261904Y-82380952D01*
X138071428Y-82428571D01*
X137833333Y-82428571D01*
X137642857Y-82380952D01*
X137547619Y-82333333D01*
X137500000Y-82285714D01*
X137452380Y-82190476D01*
X129452380Y-84238095D02*
X129452380Y-83619047D01*
X129833333Y-83952380D01*
X129833333Y-83809523D01*
X129880952Y-83714285D01*
X129928571Y-83666666D01*
X130023809Y-83619047D01*
X130261904Y-83619047D01*
X130357142Y-83666666D01*
X130404761Y-83714285D01*
X130452380Y-83809523D01*
X130452380Y-84095238D01*
X130404761Y-84190476D01*
X130357142Y-84238095D01*
X129452380Y-83333333D02*
X130452380Y-83000000D01*
X129452380Y-82666666D01*
X129452380Y-82428571D02*
X129452380Y-81809523D01*
X129833333Y-82142857D01*
X129833333Y-82000000D01*
X129880952Y-81904761D01*
X129928571Y-81857142D01*
X130023809Y-81809523D01*
X130261904Y-81809523D01*
X130357142Y-81857142D01*
X130404761Y-81904761D01*
X130452380Y-82000000D01*
X130452380Y-82285714D01*
X130404761Y-82380952D01*
X130357142Y-82428571D01*
%TO.C,J9*%
X137452380Y-96333333D02*
X138166666Y-96333333D01*
X138309523Y-96380952D01*
X138404761Y-96476190D01*
X138452380Y-96619047D01*
X138452380Y-96714285D01*
X138452380Y-95809523D02*
X138452380Y-95619047D01*
X138404761Y-95523809D01*
X138357142Y-95476190D01*
X138214285Y-95380952D01*
X138023809Y-95333333D01*
X137642857Y-95333333D01*
X137547619Y-95380952D01*
X137500000Y-95428571D01*
X137452380Y-95523809D01*
X137452380Y-95714285D01*
X137500000Y-95809523D01*
X137547619Y-95857142D01*
X137642857Y-95904761D01*
X137880952Y-95904761D01*
X137976190Y-95857142D01*
X138023809Y-95809523D01*
X138071428Y-95714285D01*
X138071428Y-95523809D01*
X138023809Y-95428571D01*
X137976190Y-95380952D01*
X137880952Y-95333333D01*
X129452380Y-97238095D02*
X129452380Y-96619047D01*
X129833333Y-96952380D01*
X129833333Y-96809523D01*
X129880952Y-96714285D01*
X129928571Y-96666666D01*
X130023809Y-96619047D01*
X130261904Y-96619047D01*
X130357142Y-96666666D01*
X130404761Y-96714285D01*
X130452380Y-96809523D01*
X130452380Y-97095238D01*
X130404761Y-97190476D01*
X130357142Y-97238095D01*
X129452380Y-96333333D02*
X130452380Y-96000000D01*
X129452380Y-95666666D01*
X129452380Y-95428571D02*
X129452380Y-94809523D01*
X129833333Y-95142857D01*
X129833333Y-95000000D01*
X129880952Y-94904761D01*
X129928571Y-94857142D01*
X130023809Y-94809523D01*
X130261904Y-94809523D01*
X130357142Y-94857142D01*
X130404761Y-94904761D01*
X130452380Y-95000000D01*
X130452380Y-95285714D01*
X130404761Y-95380952D01*
X130357142Y-95428571D01*
%TO.C,J8*%
X136666666Y-116452380D02*
X136666666Y-117166666D01*
X136619047Y-117309523D01*
X136523809Y-117404761D01*
X136380952Y-117452380D01*
X136285714Y-117452380D01*
X137285714Y-116880952D02*
X137190476Y-116833333D01*
X137142857Y-116785714D01*
X137095238Y-116690476D01*
X137095238Y-116642857D01*
X137142857Y-116547619D01*
X137190476Y-116500000D01*
X137285714Y-116452380D01*
X137476190Y-116452380D01*
X137571428Y-116500000D01*
X137619047Y-116547619D01*
X137666666Y-116642857D01*
X137666666Y-116690476D01*
X137619047Y-116785714D01*
X137571428Y-116833333D01*
X137476190Y-116880952D01*
X137285714Y-116880952D01*
X137190476Y-116928571D01*
X137142857Y-116976190D01*
X137095238Y-117071428D01*
X137095238Y-117261904D01*
X137142857Y-117357142D01*
X137190476Y-117404761D01*
X137285714Y-117452380D01*
X137476190Y-117452380D01*
X137571428Y-117404761D01*
X137619047Y-117357142D01*
X137666666Y-117261904D01*
X137666666Y-117071428D01*
X137619047Y-116976190D01*
X137571428Y-116928571D01*
X137476190Y-116880952D01*
X129500000Y-118761904D02*
X129452380Y-118857142D01*
X129452380Y-119000000D01*
X129500000Y-119142857D01*
X129595238Y-119238095D01*
X129690476Y-119285714D01*
X129880952Y-119333333D01*
X130023809Y-119333333D01*
X130214285Y-119285714D01*
X130309523Y-119238095D01*
X130404761Y-119142857D01*
X130452380Y-119000000D01*
X130452380Y-118904761D01*
X130404761Y-118761904D01*
X130357142Y-118714285D01*
X130023809Y-118714285D01*
X130023809Y-118904761D01*
X130452380Y-118285714D02*
X129452380Y-118285714D01*
X130452380Y-117714285D01*
X129452380Y-117714285D01*
X130452380Y-117238095D02*
X129452380Y-117238095D01*
X129452380Y-117000000D01*
X129500000Y-116857142D01*
X129595238Y-116761904D01*
X129690476Y-116714285D01*
X129880952Y-116666666D01*
X130023809Y-116666666D01*
X130214285Y-116714285D01*
X130309523Y-116761904D01*
X130404761Y-116857142D01*
X130452380Y-117000000D01*
X130452380Y-117238095D01*
%TO.C,J6*%
X149452380Y-96333333D02*
X150166666Y-96333333D01*
X150309523Y-96380952D01*
X150404761Y-96476190D01*
X150452380Y-96619047D01*
X150452380Y-96714285D01*
X149452380Y-95428571D02*
X149452380Y-95619047D01*
X149500000Y-95714285D01*
X149547619Y-95761904D01*
X149690476Y-95857142D01*
X149880952Y-95904761D01*
X150261904Y-95904761D01*
X150357142Y-95857142D01*
X150404761Y-95809523D01*
X150452380Y-95714285D01*
X150452380Y-95523809D01*
X150404761Y-95428571D01*
X150357142Y-95380952D01*
X150261904Y-95333333D01*
X150023809Y-95333333D01*
X149928571Y-95380952D01*
X149880952Y-95428571D01*
X149833333Y-95523809D01*
X149833333Y-95714285D01*
X149880952Y-95809523D01*
X149928571Y-95857142D01*
X150023809Y-95904761D01*
X143500000Y-96761904D02*
X143452380Y-96857142D01*
X143452380Y-97000000D01*
X143500000Y-97142857D01*
X143595238Y-97238095D01*
X143690476Y-97285714D01*
X143880952Y-97333333D01*
X144023809Y-97333333D01*
X144214285Y-97285714D01*
X144309523Y-97238095D01*
X144404761Y-97142857D01*
X144452380Y-97000000D01*
X144452380Y-96904761D01*
X144404761Y-96761904D01*
X144357142Y-96714285D01*
X144023809Y-96714285D01*
X144023809Y-96904761D01*
X144452380Y-96285714D02*
X143452380Y-96285714D01*
X144452380Y-95714285D01*
X143452380Y-95714285D01*
X144452380Y-95238095D02*
X143452380Y-95238095D01*
X143452380Y-95000000D01*
X143500000Y-94857142D01*
X143595238Y-94761904D01*
X143690476Y-94714285D01*
X143880952Y-94666666D01*
X144023809Y-94666666D01*
X144214285Y-94714285D01*
X144309523Y-94761904D01*
X144404761Y-94857142D01*
X144452380Y-95000000D01*
X144452380Y-95238095D01*
%TO.C,J5*%
X150666666Y-116452380D02*
X150666666Y-117166666D01*
X150619047Y-117309523D01*
X150523809Y-117404761D01*
X150380952Y-117452380D01*
X150285714Y-117452380D01*
X151619047Y-116452380D02*
X151142857Y-116452380D01*
X151095238Y-116928571D01*
X151142857Y-116880952D01*
X151238095Y-116833333D01*
X151476190Y-116833333D01*
X151571428Y-116880952D01*
X151619047Y-116928571D01*
X151666666Y-117023809D01*
X151666666Y-117261904D01*
X151619047Y-117357142D01*
X151571428Y-117404761D01*
X151476190Y-117452380D01*
X151238095Y-117452380D01*
X151142857Y-117404761D01*
X151095238Y-117357142D01*
X143500000Y-118761904D02*
X143452380Y-118857142D01*
X143452380Y-119000000D01*
X143500000Y-119142857D01*
X143595238Y-119238095D01*
X143690476Y-119285714D01*
X143880952Y-119333333D01*
X144023809Y-119333333D01*
X144214285Y-119285714D01*
X144309523Y-119238095D01*
X144404761Y-119142857D01*
X144452380Y-119000000D01*
X144452380Y-118904761D01*
X144404761Y-118761904D01*
X144357142Y-118714285D01*
X144023809Y-118714285D01*
X144023809Y-118904761D01*
X144452380Y-118285714D02*
X143452380Y-118285714D01*
X144452380Y-117714285D01*
X143452380Y-117714285D01*
X144452380Y-117238095D02*
X143452380Y-117238095D01*
X143452380Y-117000000D01*
X143500000Y-116857142D01*
X143595238Y-116761904D01*
X143690476Y-116714285D01*
X143880952Y-116666666D01*
X144023809Y-116666666D01*
X144214285Y-116714285D01*
X144309523Y-116761904D01*
X144404761Y-116857142D01*
X144452380Y-117000000D01*
X144452380Y-117238095D01*
%TO.C,J4*%
X149452380Y-83333333D02*
X150166666Y-83333333D01*
X150309523Y-83380952D01*
X150404761Y-83476190D01*
X150452380Y-83619047D01*
X150452380Y-83714285D01*
X149785714Y-82428571D02*
X150452380Y-82428571D01*
X149404761Y-82666666D02*
X150119047Y-82904761D01*
X150119047Y-82285714D01*
X143500000Y-83761904D02*
X143452380Y-83857142D01*
X143452380Y-84000000D01*
X143500000Y-84142857D01*
X143595238Y-84238095D01*
X143690476Y-84285714D01*
X143880952Y-84333333D01*
X144023809Y-84333333D01*
X144214285Y-84285714D01*
X144309523Y-84238095D01*
X144404761Y-84142857D01*
X144452380Y-84000000D01*
X144452380Y-83904761D01*
X144404761Y-83761904D01*
X144357142Y-83714285D01*
X144023809Y-83714285D01*
X144023809Y-83904761D01*
X144452380Y-83285714D02*
X143452380Y-83285714D01*
X144452380Y-82714285D01*
X143452380Y-82714285D01*
X144452380Y-82238095D02*
X143452380Y-82238095D01*
X143452380Y-82000000D01*
X143500000Y-81857142D01*
X143595238Y-81761904D01*
X143690476Y-81714285D01*
X143880952Y-81666666D01*
X144023809Y-81666666D01*
X144214285Y-81714285D01*
X144309523Y-81761904D01*
X144404761Y-81857142D01*
X144452380Y-82000000D01*
X144452380Y-82238095D01*
%TO.C,J3*%
X123452380Y-96333333D02*
X124166666Y-96333333D01*
X124309523Y-96380952D01*
X124404761Y-96476190D01*
X124452380Y-96619047D01*
X124452380Y-96714285D01*
X123452380Y-95952380D02*
X123452380Y-95333333D01*
X123833333Y-95666666D01*
X123833333Y-95523809D01*
X123880952Y-95428571D01*
X123928571Y-95380952D01*
X124023809Y-95333333D01*
X124261904Y-95333333D01*
X124357142Y-95380952D01*
X124404761Y-95428571D01*
X124452380Y-95523809D01*
X124452380Y-95809523D01*
X124404761Y-95904761D01*
X124357142Y-95952380D01*
X115452380Y-96190476D02*
X115452380Y-96666666D01*
X115928571Y-96714285D01*
X115880952Y-96666666D01*
X115833333Y-96571428D01*
X115833333Y-96333333D01*
X115880952Y-96238095D01*
X115928571Y-96190476D01*
X116023809Y-96142857D01*
X116261904Y-96142857D01*
X116357142Y-96190476D01*
X116404761Y-96238095D01*
X116452380Y-96333333D01*
X116452380Y-96571428D01*
X116404761Y-96666666D01*
X116357142Y-96714285D01*
X115452380Y-95857142D02*
X116452380Y-95523809D01*
X115452380Y-95190476D01*
%TO.C,J2*%
X123452380Y-83333333D02*
X124166666Y-83333333D01*
X124309523Y-83380952D01*
X124404761Y-83476190D01*
X124452380Y-83619047D01*
X124452380Y-83714285D01*
X123547619Y-82904761D02*
X123500000Y-82857142D01*
X123452380Y-82761904D01*
X123452380Y-82523809D01*
X123500000Y-82428571D01*
X123547619Y-82380952D01*
X123642857Y-82333333D01*
X123738095Y-82333333D01*
X123880952Y-82380952D01*
X124452380Y-82952380D01*
X124452380Y-82333333D01*
X115452380Y-83190476D02*
X115452380Y-83666666D01*
X115928571Y-83714285D01*
X115880952Y-83666666D01*
X115833333Y-83571428D01*
X115833333Y-83333333D01*
X115880952Y-83238095D01*
X115928571Y-83190476D01*
X116023809Y-83142857D01*
X116261904Y-83142857D01*
X116357142Y-83190476D01*
X116404761Y-83238095D01*
X116452380Y-83333333D01*
X116452380Y-83571428D01*
X116404761Y-83666666D01*
X116357142Y-83714285D01*
X115452380Y-82857142D02*
X116452380Y-82523809D01*
X115452380Y-82190476D01*
%TO.C,J1*%
X137452380Y-108333333D02*
X138166666Y-108333333D01*
X138309523Y-108380952D01*
X138404761Y-108476190D01*
X138452380Y-108619047D01*
X138452380Y-108714285D01*
X138452380Y-107333333D02*
X138452380Y-107904761D01*
X138452380Y-107619047D02*
X137452380Y-107619047D01*
X137595238Y-107714285D01*
X137690476Y-107809523D01*
X137738095Y-107904761D01*
X130452380Y-108404761D02*
X129452380Y-108404761D01*
X129452380Y-108023809D01*
X129500000Y-107928571D01*
X129547619Y-107880952D01*
X129642857Y-107833333D01*
X129785714Y-107833333D01*
X129880952Y-107880952D01*
X129928571Y-107928571D01*
X129976190Y-108023809D01*
X129976190Y-108404761D01*
X129452380Y-107500000D02*
X130452380Y-107261904D01*
X129738095Y-107071428D01*
X130452380Y-106880952D01*
X129452380Y-106642857D01*
X130452380Y-106261904D02*
X129452380Y-106261904D01*
X130166666Y-105928571D01*
X129452380Y-105595238D01*
X130452380Y-105595238D01*
%TD*%
M02*
