M48
; DRILL file {KiCad (5.1.6)-1} date 01/17/22 21:19:18
; FORMAT={-:-/ absolute / metric / decimal}
; #@! TF.CreationDate,2022-01-17T21:19:18-08:00
; #@! TF.GenerationSoftware,Kicad,Pcbnew,(5.1.6)-1
FMAT,2
METRIC
T1C0.400
T2C1.000
T3C1.100
%
G90
G05
T1
X149.0Y-104.0
X153.0Y-112.0
X156.0Y-101.0
X157.0Y-76.0
X157.0Y-93.0
T2
X160.0Y-60.0
X160.0Y-62.54
X160.0Y-65.08
X160.0Y-67.62
X160.0Y-70.16
X160.0Y-72.7
X160.0Y-75.24
X160.0Y-77.78
X160.0Y-80.32
X160.0Y-82.86
X160.0Y-85.4
X160.0Y-87.94
X160.0Y-90.48
X160.0Y-93.02
X160.0Y-95.56
X160.0Y-98.1
X160.0Y-100.64
X160.0Y-103.18
X160.0Y-105.72
X160.0Y-108.26
X162.54Y-60.0
X162.54Y-62.54
X162.54Y-65.08
X162.54Y-67.62
X162.54Y-70.16
X162.54Y-72.7
X162.54Y-75.24
X162.54Y-77.78
X162.54Y-80.32
X162.54Y-82.86
X162.54Y-85.4
X162.54Y-87.94
X162.54Y-90.48
X162.54Y-93.02
X162.54Y-95.56
X162.54Y-98.1
X162.54Y-100.64
X162.54Y-103.18
X162.54Y-105.72
X162.54Y-108.26
T3
X149.75Y-65.75
X154.75Y-62.25
X147.25Y-78.75
X147.25Y-85.75
X152.25Y-82.25
X121.75Y-96.75
X126.75Y-93.25
X126.75Y-100.25
X135.75Y-74.75
X140.75Y-71.25
X135.75Y-65.75
X140.75Y-62.25
X121.75Y-74.75
X126.75Y-71.25
X148.25Y-114.25
X151.75Y-119.25
X155.25Y-114.25
X149.75Y-74.75
X154.75Y-71.25
X135.75Y-83.75
X140.75Y-80.25
X140.75Y-87.25
X134.25Y-114.25
X137.75Y-119.25
X141.25Y-114.25
X121.75Y-65.75
X126.75Y-62.25
X135.75Y-96.75
X140.75Y-93.25
X140.75Y-100.25
X147.25Y-91.75
X147.25Y-98.75
X152.25Y-95.25
X149.75Y-109.75
X154.75Y-106.25
X121.75Y-83.75
X126.75Y-80.25
X126.75Y-87.25
X135.75Y-109.75
X140.75Y-106.25
T0
M30
